<svg xmlns="http://www.w3.org/2000/svg" id="Layer_2" data-name="Layer 2" viewBox="0 0 1178.54 464.67"><defs><style>.cls-1{fill:#fff}</style></defs><g id="_草莓派" data-name="草莓派"><path d="M309.59 339.32c1.35 2.37 2.87 4.64 4 7.14 3.11 6.87 2.5 13.54-.9 20.12-3.53 6.84-8.72 12.05-15.43 15.75-3.46 1.91-7.09 3.5-10.6 5.3-5.73 2.93-8.47 7.71-9.27 13.9-.84 6.45-.32 12.86.45 19.26.66 5.46 1.4 10.93.52 16.45-.37 2.35-1 4.62-2.14 6.73-4.54 8.39-12.93 7.34-17.69 3.3-4.69-3.97-6.12-9.27-5.96-15.14.16-5.96 2.45-11.24 5.28-16.36 3.14-5.68 6.72-11.09 9.89-16.74 1.96-3.5 3.57-7.15 4.1-11.19.14-1.06.11-2.12-.26-3.14-.32-.87-.86-1.11-1.71-.61-1.3.76-2 2.01-2.7 3.25-1.49 2.62-2.65 5.43-4.55 7.81-1.57 1.96-3.29 3.71-5.57 4.87-3.12 1.59-6.32 1.16-8.51-1.23-2.25-2.45-2.54-6.09-.72-8.94 1.8-2.81 4.57-4.49 7.27-6.24 1.62-1.05 3.17-2.15 4.55-3.49 3.59-3.48 3.97-8.41.98-12.4-5.57-7.42-14.8-10.08-23.48-6.78-4.2 1.6-7.85 4.13-11.45 6.73-5.88 4.25-11.3 9.1-17.18 13.35-5.2 3.75-10.52 7.31-16.82 9.03-3.09.84-6.23 1.31-9.43.59-7.64-1.73-10.89-9.38-6.77-16.06 2.56-4.15 6.24-7.07 10.56-9.19 6.79-3.32 14.02-5.54 20.97-8.46 8.1-3.41 15.91-7.37 22.6-13.2 2.07-1.8 3.92-3.81 5.22-6.26 2.8-5.25.63-10.52-5.08-12.19-3.59-1.05-7.12-.43-10.59.61-2.86.86-5.58 2.12-8.15 3.59-5.91 3.38-11.93 6.54-18.03 9.57-3.94 1.96-7.25 4.82-10.61 7.61-2.61 2.17-5.31 4.24-8.58 5.3-4.48 1.45-8.78 1.23-12.59-1.88-1.96-1.6-3.05-3.77-3.9-6.11-1.13-3.15-1.83-6.43-3.01-9.56-3.58-9.46-13.14-13.26-22.3-8.86-3.34 1.6-36.6 19.21-42.01 20.12-2.9.49-5.67-.01-8-1.82-5.31-4.13-4.72-11.78 1.14-15.33 2.99-1.81 25.12-9.5 28.49-10.13 4.69-.87 19.54-4.13 21.94-5.75 4.47-3.03 6.35-7.39 6.42-12.64.05-3.26-.06-6.52.36-9.77.99-7.6 3.75-14.42 8.33-20.61 4.6-6.21 10.46-11.06 16.34-15.91 6.34-5.23 13.42-9.36 20.68-13.19 5.33-2.82 10.49-5.95 15.49-9.34 3.58-2.42 7.19-4.78 10.81-7.14 6.53-4.25 13.27-8.15 20.11-11.88a458 458 0 0 1 20.43-10.51c5.36-2.59 10.67-5.26 16.26-7.33 6.3-2.34 12.78-3.65 19.53-3.08 8.5.72 15.82 4.03 21.74 10.23 8.02 8.4 13.61 18.18 16.22 29.53 2.57 11.16-.39 21.06-7.37 29.9-3.16 4-7.08 7.18-11.34 9.97-5.97 3.9-12.04 7.66-17.46 12.32-2.61 2.24-5.06 4.63-6.62 7.76-1.65 3.31-1.02 5.4 2.27 7.02 5.07 2.49 10.39 2.41 15.79 1.38 5.7-1.08 10.2-4.36 14.53-7.95 4.47-3.71 8.39-7.97 12.47-12.08 5.53-5.57 11.32-10.85 18.21-14.71 4.34-2.43 9.01-3.91 14.07-3.17 12.13 1.76 17.79 14.27 11.62 24.55-2.97 4.94-7.24 8.68-11.79 12.11-9.65 7.28-20.42 11.94-32.35 13.96-5.45.92-10.76 2.36-15.55 5.25-2.43 1.47-4.54 3.32-6.07 5.76-2.16 3.44-2.31 6.98-.37 10.55 1.05 1.94 2.19 3.82 3.29 5.72Zm-97.06-48.94c-.85.49-1.73.92-2.54 1.48-2.83 1.95-5.63 3.94-7.25 7.11-1.62 3.18-.66 5.37 2.75 6.33 2.9.82 5.82.63 8.72.06 6.53-1.27 12.6-3.86 18.6-6.65 8.95-4.17 17.66-8.75 25.67-14.57 7.86-5.71 14.72-12.38 19.82-20.72 2.33-3.81 4.29-7.78 4.7-12.34.64-7.18-1.52-13.58-5.7-19.27-4.62-6.28-10.99-9.11-18.8-8.61-3.7.24-7.25 1.12-10.69 2.45-9.15 3.53-17.75 8.2-26.27 12.99-3.9 2.19-7.72 4.54-11.45 7.04-5.55 3.71-10.71 7.87-14.87 13.14-4.19 5.3-6.99 11.27-8.27 17.92-.22 1.16-.03 2.27.54 3.31.69 1.22 1.65 1.61 2.99 1.15a30.5 30.5 0 0 0 7.5-3.76c5.3-3.65 10.49-7.46 15.7-11.23 5.85-4.23 11.1-9.05 15.39-14.91 2.8-3.83 5.9-7.34 10.27-9.58 5.94-3.04 13.65-1.99 18.36 2.72 3.52 3.51 5.04 7.93 5.63 12.72 1.2 9.66-2.81 16.64-11.6 20.52-4.56 2.01-9.37 3.08-14.24 3.88a75.6 75.6 0 0 0-25 8.82ZM134.46 197.77c1.46 2.72 3.05 5.36 4.78 7.91 3.17 4.71 7.68 6.46 13.2 5.96 4.76-.43 8.63-2.63 11.73-6.15 3.66-4.16 7.18-8.45 10.82-12.63 4.75-5.45 10.33-9.91 16.39-13.83 4.15-2.68 8.47-5.06 12.74-7.52 7.45-4.31 10.83-10.89 11.07-19.29.1-3.47-.53-6.91-.62-10.37-.11-4.21.29-8.31 2.29-12.12 2.87-5.44 7.92-8.09 13.66-6.96 4.21.83 7.17 3.51 9.52 6.96 2 2.94 3.09 6.28 4.18 9.61 1.6 4.92 4.24 4.8 8.17 2.41 2.58-1.57 4.78-3.67 6.96-5.75 2.62-2.5 5.15-5.11 8.16-7.18 4.22-2.9 8.85-4.11 13.92-3.21 3.5.62 6.8 1.82 9.37 4.43 3.71 3.77 4.98 8.41 4.58 13.57-.51 6.77-4.08 11.13-10.5 13.26-3.97 1.32-8.13 1.72-12.18 2.66-1.59.37-3.13.87-4.61 1.58-3.45 1.66-5.1 4.54-5.66 8.19-.34 2.23-.2 4.47-.22 6.71-.05 6.9-1.96 13.15-7.27 17.88-4.22 3.76-9.2 5.84-14.98 5.5-2.28-.14-4.33-1.07-6.35-2.08-1.97-.99-3.93-1.98-6.12-2.43-3.71-.77-7 .52-10.21 2.11-7.5 3.71-14.49 8.32-21.68 12.57-1.89 1.12-3.67 2.43-5.44 3.73-3.41 2.5-5.25 5.93-6.31 9.81-.38 1.41-.99 2.75-1.84 3.93-7.35 10.28-17.57 15.91-28.98 16.85-3.11.25-6.2-.26-9.2-1.13-3.87-1.13-7.74-.99-11.68.98-2.81 1.4-5.22 3.31-7.63 5.25-4.45 3.57-8.68 7.42-13.8 10.07-2.7 1.4-5.53 2.44-8.58 2.71-4.85.42-8.97-1.11-11.55-5.34-2.56-4.2-2.22-8.64.27-12.78 3.12-5.18 7.99-8.12 13.64-9.92 4.76-1.52 9.7-2.16 14.57-3.18 4.1-.86 7.87-2.47 11.39-4.69 2.38-1.5 3.25-4.61 1.84-7.05-4.35-7.54-10.79-12.59-18.94-15.51-3.07-1.1-6.24-1.9-9.24-3.2-7.44-3.21-11.06-9.53-11.28-17.4-.1-3.49 1.52-5.73 5.41-7.54 5.19-2.41 10.35-1.64 15.3.95 6.15 3.21 10.83 8.13 15.28 13.32 2.19 2.56 4.04 5.39 5.63 8.36ZM70.19 200.39c1.48 2.55 2.71 5.21 3.34 8.1.35 1.61.88 3.42-1 4.45-1.83.99-3.73.99-5.51-.33-6.3-4.69-13.46-6.85-21.23-7.34-5.94-.38-11.49 1.15-16.95 3.19-2.83 1.05-5.68 1.99-8.66 2.5-7.7 1.31-16.05-3.5-18.86-10.88-3.1-8.14-.6-15.89 6.8-20.35 3.59-2.16 7.64-3.31 11.82-3.48 18.32-.74 33.97 5.25 46.5 18.83.97 1.05 1.8 2.22 2.64 3.38.44.6.76 1.29 1.14 1.95Z" class="cls-1"/><path d="M146.82 189.61c-1.29-2.5-1.61-5.61.41-8.66 1.81-2.73 5.23-3.92 8.65-3.13 4.06.94 7.23 4.39 7.83 8.51.87 5.98-4.66 10.59-10.44 8.74-2.67-.85-4.71-2.44-6.45-5.47ZM107.03 304.77c-2.43 1.3-4.66 2.05-7.09 1.75-5.66-.69-8.43-6.42-5.51-11.36 1.37-2.32 3.33-3.89 6.09-4.22 2.83-.34 5.66-.6 8.47.25 3.12.95 4.58 3.46 3.72 6.61-.9 3.29-3.36 5.28-5.68 6.97M307.65 412.38c2.12 3.67.96 9.16-2.49 11.78l-.1.07c-3.06 2.26-4.74 1.92-6.44-1.55-1.4-2.87-1.79-5.9-.64-9 1.13-3.05 4.03-4.72 6.69-3.86 1.35.43 2.3 1.34 2.98 2.56M640.92 253.82c-7.17.3-14.34.59-21.51.89-3.8.16-7.61.29-11.41.49-6.29.33-12.57.69-18.86 1.04-2.85.16-5.7.33-8.55.46-6.3.28-12.6.41-18.9.21-7.85-.24-15.65-.94-23.22-3.24-4.75-1.45-9.34-3.25-13.32-6.33-2.82-2.18-4.81-4.94-6.31-8.17-1.62-3.46-1.38-7.05-1.22-10.67.09-2.03-.01-4.02-.79-5.93-.49-1.19-1.37-1.86-2.62-2.09-1.63-.31-3.28-.33-4.92-.44-5.27-.35-9.19-3.74-9.5-8.64-.25-4.04 1.4-7.41 4.49-10.06 1.97-1.69 4.24-2.89 6.57-3.95 5.2-2.37 7.79-6.57 8.58-12.04.54-3.72.49-7.44-.17-11.15-.68-3.8-1.75-4.95-5.52-5.63-2.67-.48-5.36-.83-7.87-1.95-5.06-2.25-8.02-6.35-9.95-11.32-1.22-3.14-1.86-6.42-1.35-9.8.8-5.25 4.05-8.89 8.11-11.95 2.17-1.64 4.54-2.97 6.97-4.18 6.47-3.23 11.04-8.33 14.62-14.47 1.74-2.98 3.08-6.16 4.87-9.11 1.84-3.04 4.09-5.64 7.71-6.65 1.25-.35 2.53-.46 3.8-.46 1.5 0 3 .09 4.49.24 1.16.12 2.24.44 3.2 1.25 1.79 1.5 3.8 2.73 5.23 4.64.35.46.97.68 1.39 1.17.79.92 1.46 1.88 1.95 3.01.91 2.1 2.79 3.17 4.77 4 3.68 1.54 7.57 1.99 11.52 1.84 4.25-.16 8.49-.17 12.74 0 4.9.2 9.8.51 14.71.16 2.23-.16 4.46-.09 6.7-.24 2.85-.18 5.71-.22 8.56-.25 14.25-.17 28.38-1.46 42.28-4.74 10.59-2.49 21.33-2.78 32.12-2.49 5.1.14 10.15.62 14.97 2.57 7 2.82 10.29 8.5 9 15.91-1.01 5.81-3.96 10.51-8.57 14.15-3.22 2.55-7.06 3.43-11.05 3.85-4.43.46-8.76-.16-13.1-.94-1.58-.28-3.18-.57-4.8-.25-1.64.32-2.03 1.2-1.03 2.56 1.38 1.89 3.08 3.43 5.3 4.3 3.48 1.36 7.09 2.34 10.49 3.92 8.38 3.9 12.66 10.45 12.9 19.66.04 1.54.04 3.07-.15 4.61-.08.69-.05 1.39-.04 2.09.06 3.78 1.76 5.32 5.91 5.03 1.68-.12 3.34-.43 5.01-.64 5.55-.71 10.69 1.97 13.36 6.95 3.9 7.26 2.2 17.74-3.82 23.34-2.85 2.66-6.39 3.76-10.15 4.32-1.16.17-2.31.4-3.4.87-1.5.64-2.58 1.69-3.11 3.22-.79 2.32-.84 4.68-.03 7.01.74 2.14 2.2 3.62 4.38 4.3 1.54.48 3.1.88 4.66 1.28 5.21 1.33 7.92 4.09 8.5 8.7.65 5.21-1.63 9.76-6.07 12.17-2.25 1.22-4.69 1.61-7.19 1.78-1.51.1-2 .48-2.39 1.94-.24.92-.47 1.85-.57 2.8-.84 7.44-5.01 12.44-11.41 15.91-4.86 2.64-10.04 4.1-15.56 4.14-3.81.03-7.6-.37-11.24-1.66-5.48-1.94-10.14-.56-14.11 3.54-2.42 2.5-4.77 5.08-7.31 7.45-7.96 7.45-17.33 12.24-28.06 14.12-7.11 1.25-13.61-.5-19-5.36-7.12-6.41-8.05-15.74-2.11-23.5 3.89-5.07 9.3-7.81 15.3-9.57 6.24-1.83 12.52-1.48 18.82-.3 4.37.82 8.78 1.29 13.2.34.75-.16 1.48-.42 2.19-.72 4.01-1.71 4.43-5.63 2.52-8.36-.91-1.3-1.39-3.08-3.08-3.86-1.71-.79-3.48-1.09-5.33-1.09h-3.19v-.05Zm-41.23-118.87c-4.2.1-10.68-.12-17.17.16-6.44.27-12.86.75-19.25 1.61-4.67.62-9.24 1.62-13.45 3.85-3.22 1.7-6.03 3.9-8.01 7.02-1.48 2.34-1.04 3.45 1.55 4.36 2.35.82 4.8.8 7.18.49 5.97-.76 11.98-.85 17.97-.97 7.76-.16 15.52-.52 23.28-.48 11.06.05 22.12-.03 33.17-.39 8.98-.29 11.2-1.13 20.18-1.39 8.81-.25 12.32-8.02 1.22-10.83-12.08-3.64-17.21-3.2-29.79-3.41-4.87-.08-9.74-.01-16.89-.01Zm44.79 103.7c4.14.05 7.14 0 10.09-.68 3.27-.75 5.79-2.5 6.47-5.96.73-3.68 0-7.01-3.19-9.42-1.48-1.12-3.14-1.89-4.87-2.51-6.7-2.42-13.65-3.35-20.73-3.3-9.45.06-18.9-.21-28.35-.34-2.6-.04-5.2-.06-7.8-.22-6.22-.39-12.44-.61-18.66-.51-4.16.07-8.24.58-11.88 3.17-2.78 1.98-4.25 4.48-4.7 7.69-.77 5.51 1.4 8.36 6.88 9.3 2.03.34 4.08.5 6.12.52 5.35.05 10.69.4 16.03.5 1.81.03 3.61-.2 5.11-1.36 1.51-1.18 2.06-2.26.88-4-1.33-1.96-1.02-3.97.59-5.73 1.21-1.32 2.65-2.32 4.31-2.97 6.25-2.46 12.62-2.27 19.01-.72 2.74.67 5.26 1.85 7.23 3.96 1.74 1.87 2.29 4.04 1.48 6.5-.23.69-.52 1.37-.81 2.04-.39.9-.12 1.55.69 2.05.99.61 2.08.9 3.2 1.11 4.63.87 9.34.67 12.89.88Zm-50.07-71.4c-5.56-.14-12.51.54-19.43 1.59-4.11.62-7.49 2.48-9.84 5.8-2.67 3.77-3.04 8.08-1.82 12.5.42 1.52 1.36 2.73 2.69 3.64 2.08 1.42 4.45 1.86 6.88 1.93 3.6.12 7.16-.37 10.72-.78 2.43-.28 4.9-.42 7.23-1.27 2.36-.86 2.51-1.73.68-3.36-2.21-1.97-2.41-3.86-.64-6.26 1.86-2.52 4.33-4.26 7.25-5.31 5.91-2.13 12.01-2.5 18.19-1.75 2.46.3 4.83 1.01 6.87 2.46 2.78 1.98 4.46 4.51 2.21 8.14-.82 1.32-.42 2.08 1.1 2.53s3.11.53 4.68.54c5.68.05 11.34-.3 16.99-.91 2.51-.27 5.03-.58 7.4-1.52 2.53-.99 3.75-2.78 3.76-5.48.02-4.99-2.56-8.4-7.4-9.76-3.91-1.1-7.92-1.49-11.95-1.58-6.63-.15-13.25-.17-19.88-.25-.88-.01-1.76 0-2.64-.05-7.2-.37-14.4-.84-23.07-.84Z" class="cls-1"/><path d="M510.07 66.1c3.52.12 6.99.74 10.47 1.22 3.22.45 6.42.47 9.61-.23 3.7-.81 6.14-2.95 7.16-6.64.38-1.38.77-2.75 1.23-4.1 2.35-6.76 8.56-9.15 16.08-5.85.95.42 1.86.93 2.74 1.5 3.65 2.37 7.2 4.87 11.05 6.93 8.01 4.3 16.59 5.19 25.48 4.63 8.73-.55 17.39-2.12 26.18-1.6 2.82.17 5.65.03 8.45.25 3.22.25 6.46-.3 9.33-1.81 5.94-3.12 10.18-10.12 17.84-6.51 2.79 1.32 5.23.88 7.55-1.04 1.14-.95 4.65-6.27 6.04-6.86 3.42-1.45 7.38-.08 9.43 3.02.86 1.31-.05 4.39-.22 5.8-.47 3.88 5.18 5.32 8.12 5.57 3.19.27 6.27-.29 9.29-1.3 3.31-1.1 6.65-2.06 10.19-2 1.59.03 3.15.24 4.67.62 2.27.56 4.57 1.02 6.77 1.87 5.44 2.12 8.24 6.26 9.06 11.85 1.6 10.87-5.76 20.16-16.71 21.36-5.66.62-10.82-1.32-16.16-3-.57-.18-1.14-.39-1.71-.58-5.3-1.82-9.48-.05-13.06 3.89-1.77 1.95-3.53 3.96-5.56 5.62-2.58 2.1-5.69 3.3-8.97 3.9-8.23 1.52-14.75-1.39-19.73-7.91-1.87-2.45-3.84-4.63-7.06-5.19-1.93-.34-3.87-.36-5.81-.21-5.82.45-11.62.51-17.44 0-3.83-.33-7.69-.36-11.49-.96-3.51-.55-7-1.24-10.5-1.84-2.36-.4-4.73-.61-7.1-.16-1.92.36-3.45 1.32-4.55 2.99-.93 1.42-1.63 2.95-2.39 4.45-1.01 2-2.4 3.69-4.19 5.01-.92.68-2.1.85-3.19 1.13-4.31 1.1-8.58.92-12.72-.75-4.05-1.63-7.13-4.34-8.53-8.6-1.18-3.61-4-5.32-7.31-6.36-4.93-1.56-9.85-1.06-14.71.43-2.87.88-5.71 1.88-8.58 2.76-3.94 1.21-7.95 1.75-12.02.71-5.24-1.34-8.77-5.86-8.46-11.03.41-6.66 4.35-11.14 11.42-10.98ZM705.33 10.06c.04 4.73-2.15 8.04-5.47 10.78-1.64 1.36-3.41 2.54-5.25 3.6-5.48 3.14-9.96 7.31-13.28 12.7-.45.73-.92 1.44-1.96 1.3-1.11-.15-1.95-.54-2.42-1.72-.87-2.2-1.17-4.46-1.07-6.78.29-6.54 1.93-12.73 5.19-18.44 2.4-4.2 5.41-7.85 9.85-10.05 2.02-1 4.16-1.66 6.46-1.38 3.66.45 5.96 2.57 7.21 5.94.52 1.38.81 2.81.75 4.05ZM998.9 387.63c2.45-4.45 4.9-8.14 7.39-11.79 3.67-5.37 7.62-10.55 11.65-15.67 5.41-6.86 10.88-13.66 16.41-20.42 2.91-3.56 5.78-7.16 8.38-10.96 1.48-2.16 2.73-4.39 3.47-6.86 1.1-3.65.24-7.01-2.15-9.9-2.55-3.08-5.93-4.75-9.93-4.77-3.94-.02-7.16 2.18-8.24 6.88-.75 3.27-1.39 6.57-2.65 9.71-.76 1.89-1.57 3.75-2.53 5.53-1.54 2.87-3.18 5.68-4.87 8.47-2.32 3.81-4.68 7.59-7.1 11.34-1.94 3.02-3.92 6.03-6 8.95-2.72 3.81-5.47 7.59-8.32 11.29-3.29 4.27-6.71 8.42-10.46 12.29-6.44 6.65-13.86 11.9-22.51 15.31-2.99 1.18-6.09 2.18-9.31 2.27-5.19.16-9.63-1.58-13.1-5.67-1.68-1.98-2.99-4.13-3.93-6.51-.84-2.14-.61-4.39-.34-6.61.46-3.79 1.76-7.28 3.86-10.47 1.98-3.02 4.72-5.12 7.93-6.75 4.95-2.51 9.85-5.13 14.48-8.2 6.6-4.38 12.56-9.54 18.25-15.03 4.98-4.79 9.78-9.75 14.25-15.03 2.77-3.27 5.43-6.63 7.96-10.1.99-1.36 1.97-2.76 2.77-4.19 2.75-4.94 5.52-9.95 5.11-15.92-.21-3.03-1.77-5.45-3.62-7.74-2.62-3.24-4.86-6.67-5.88-10.82-1.42-5.79 1.05-11.75 6.3-14.55 5.41-2.88 11.03-1.66 15.72 1.74 6.29 4.57 10.99 10.73 16.49 16.08 3.5 3.41 7.35 6.35 11.74 8.47 3.87 1.87 8.03 3.01 12.14 4.26 4.04 1.22 7.97 2.69 11.83 4.41 5.83 2.61 11.59 5.41 17.88 6.87 6.13 1.43 11.94.84 17.46-2.27 3.32-1.87 6.24-4.3 9.4-6.39 3.87-2.56 7.88-4.85 12.8-4.46 1.26.1 2.45.46 3.64.86 1.88.64 2.49 2.97 2.32 4.69-.2 2.04-1.32 3.57-2.94 4.73-2.49 1.79-5.35 2.79-8.32 3.35-4.33.81-8.7 1.46-13.05 2.17-3.78.61-7.58 1.17-11.27 2.19-1.8.5-3.56 1.16-5.18 2.14-3.1 1.87-4.39 4.66-4.3 8.18.05 1.82-.02 3.61-.8 5.28-1.04 2.22-2.82 3.58-4.98 4.72-3.7 1.95-7.41 1.32-11.18.55-2.49-.51-4.99-.87-7.56-.86-4.23.03-7.65 1.75-10.36 4.89-3.38 3.9-5.91 8.39-8.25 12.94-2.72 5.3-5.16 10.76-7.08 16.42-1.6 4.7-2.86 9.49-3.74 14.38-.61 3.39-1.13 6.79-1.31 10.22-.23 4.45-.23 8.89.58 13.32.9 4.93 2.77 9.44 5.57 13.57 2.51 3.7 5.62 6.9 8.85 9.97 3.14 2.98 6.36 5.9 9.23 9.15 1.51 1.7 2.8 3.56 3.74 5.64 1.35 3 1.18 6.01.11 9.02-1.08 3.04-2.78 5.72-5.47 7.58-3.62 2.51-7.55 3.19-11.8 1.74-4.35-1.49-6.81-4.96-9.09-8.59-1.54-2.44-2.9-5.01-3.98-7.7-1.73-4.31-4-8.38-5.47-12.8-.84-2.53-2.5-4.58-4.89-5.93-7.62-4.31-10.09 13.88-24.56 12.77-6.12-.47-12.03-7.31-12.87-13.11-.95-6.54 2.44-13.56 4.74-19.52 1.32-3.43 2.74-6.79 4.42-10.06.91-1.78 1.92-3.5 2.53-4.69Z" class="cls-1"/><path d="M893.18 331.03c2.74-5.33 7.06-9.1 11.63-12.63 5.38-4.16 10.98-8.01 16.29-12.26 5.89-4.73 11.35-9.9 16.02-15.87 2.28-2.92 4.44-5.92 6.56-8.97 4.72-6.81 8.63-14.1 12.72-21.28 2.14-3.77 4.1-7.65 6.11-11.5 1.48-2.84 3-5.66 4.4-8.54 2.38-4.91 4.8-9.81 7.02-14.8 2.98-6.72 5.2-13.7 7.64-20.61 1.86-5.26 4.14-10.31 8.47-14.11 4.34-3.82 9.49-5.44 15.18-5.6 4.03-.11 7.92.72 11.75 1.86 2.89.86 5.35 2.55 7.69 4.39 6.15 4.86 11.89 10.21 17.95 15.19 4.31 3.54 8.67 7.01 13.09 10.4 3.43 2.64 6.87 5.27 10.54 7.59 1.69 1.06 3.37 2.13 5.09 3.14 3.22 1.89 6.63 3.3 10.29 4.13 4 .91 7.9 2.2 11.97 2.8 4.79.71 9.59.62 14.39.39 5.42-.26 10.84-.6 16.24.46 7.07 1.39 12.07 5.16 14.78 11.94 1.49 3.72 2.4 7.5 2.17 11.53-.2 3.51-1.76 6.49-3.74 9.23-2.81 3.89-6.63 6.58-11.06 8.39-4.15 1.69-8.53 2.16-12.96 2.47-2.46.17-4.81-.47-7.19-.84-3.71-.57-7.39-1.37-10.85-2.84-3.88-1.65-7.7-3.45-11.13-5.99-1.38-1.02-2.91-1.82-4.34-2.79-2.68-1.82-5.27-3.77-7.81-5.77-3.86-3.04-7.67-6.14-11.48-9.24-3.79-3.07-7.72-5.98-11.8-8.62-8.19-5.28-15.2-11.95-22.46-18.33-2.27-2-4.69-3.78-7.59-4.78-3.66-1.27-8.03.2-10.92 3.56-3.12 3.62-5.12 7.9-7.27 12.09-.3.59-.66 1.16-.98 1.75-2.41 4.38-4.61 8.87-6.7 13.41-1.14 2.48-2.45 4.89-3.65 7.34-3.15 6.43-6.39 12.82-10.14 18.93-2.72 4.43-5.47 8.85-8.25 13.25-1.25 1.99-2.38 4.05-3.68 6-4.97 7.48-9.54 15.21-13.8 23.1-4.77 8.84-9.88 17.48-14.94 26.14-3.52 6.02-7.8 11.5-13.41 15.8-5.3 4.05-11.23 6.46-17.95 6.09-7.74-.43-13.6-4.11-16.64-11.39-2.59-6.22-2.21-12.6-.02-18.91.71-2.04 1.63-3.98 2.77-5.72Z" style="fill:#fff;stroke:#fff;stroke-width:2px"/><path d="M843.68 340.02c-4.79-2.73-8.67-6.4-11.33-11.24-2.04-3.71-2.87-7.76-2.78-11.98.12-5.77 1.27-11.36 3.49-16.65 1.93-4.58 4.25-9 8.11-12.34 1.91-1.66 3.98-3.09 6.64-3.17 1.76-.05 3.27.66 4.79 1.55 2.73 1.6 4.97 3.92 8 5.06 2.7 1.01 5.42 1.08 8.19.67 6.42-.95 11.81-4.14 16.98-7.84 4.22-3.02 8.07-6.58 12.84-8.8 1.4-.65 2.83-1.11 4.36-1.27 2.74-.3 5.21 1.74 5.71 4.43.85 4.63-.45 8.94-1.89 13.19-1.14 3.35-2.64 6.58-4.16 9.79-1.98 4.21-4.65 7.94-7.33 11.69-4.46 6.22-9.12 12.27-14.56 17.68-4.53 4.5-9.61 8.23-15.55 10.67-6.3 2.59-12.63 2.65-18.94.01-.9-.37-1.71-.96-2.56-1.46ZM917.11 205c4.76 2.86 9.09 6.2 12.06 11.03 1.61 2.61 2.73 5.43 3.75 8.31.87 2.45 1.42 4.95 1.78 7.51.64 4.64-.24 9.14-1.75 13.47-1.22 3.5-3.13 6.62-6.47 8.64-2.54 1.53-4.53 1.33-6.59-.85-1.61-1.7-2.91-3.69-4.67-5.25-3.26-2.89-6.94-5.1-10.8-7.15-5.18-2.74-9.99-6.08-12.28-11.88-2-5.04-2.5-10.25-.37-15.29 2.14-5.05 5.5-9.18 11.18-10.54 3.08-.73 6.23-1.62 9.43-.34 1.64.66 3.24 1.37 4.73 2.33ZM928.7 156.42c2.59-4.73 6.67-7.66 11.77-8.93 3.7-.92 7.39-.42 10.9 1.42 5.97 3.12 9.62 8.1 11.83 14.25 2.78 7.76 3.6 15.73 2.17 23.89-.56 3.22-1.68 6.27-3.22 9.12-.84 1.54-1.93 3.02-3.52 4-1.71 1.06-3.54.93-5.02-.48-1.77-1.68-3.03-3.77-4.56-5.64-2.16-2.65-4.67-4.91-7.34-7.02-4.18-3.3-8.89-5.99-12.27-10.24-4.62-5.81-5.18-10.35-2.31-17.23.46-1.09.97-2.13 1.56-3.15ZM1094.35 208.64c-.66-.38-1.31-.78-1.98-1.14-1.04-.55-1.25-1.43-1.04-2.37.2-.92.97-1.29 1.9-1.23 4.15.27 8.25-.04 12.31-.51 9.49-1.1 18.51-3.42 26.68-8.1 6.82-3.9 12.44-9.15 18.27-14.17 2.6-2.24 5.3-4.33 8.73-5.42 3.01-.96 6.05-.86 9.05.24 3.84 1.4 6.84 3.87 8.7 7.48 2.03 3.95 1.98 7.92.44 11.77-2.92 7.3-8.73 11.95-15.57 15.59-5.07 2.69-10.63 4.26-16.36 5.26-5.67.99-11.48 1.21-17.32.94-8-.36-15.92-1.49-23.66-4-3.5-1.13-6.94-2.47-10.14-4.34ZM1106.55 179.34c-3.16 5.63-7.75 9.01-13.17 11.39-3.3 1.45-6.69 2.65-10.35 2.8-.51.02-1.02-.01-1.52-.01-.75 0-1.14-.38-1.31-1.09-.17-.67-.3-1.2.41-1.74 3.41-2.6 6.4-5.63 8.54-9.37 1.52-2.66 2.39-5.58 2.97-8.59.47-2.45 1.06-4.84 2.26-7.11 2.37-4.47 8.83-5.01 12.22-1.41 2.85 3.02 2.78 6.47 1.98 10.09-.42 1.91-1.1 3.75-2.02 5.05ZM1098.94 434.56c6.82 3.86 12.55 7.79 16.37 13.38 4.78 6.99 2.92 14.48-4.2 16.34-4.92 1.29-10.13-.66-14.62-4.11-9.37-7.2-15.74-15.66-18.98-25.12-.5-1.45-.5-2.82-.18-4.07.82-3.21 4.25-4.26 8.61-2.51 4.63 1.86 9.31 3.65 12.99 6.09ZM1124.28 319.56a9.03 9.03 0 0 1-5.03 2.8c-2.4.45-4.83.29-7.21-.23-1.03-.23-1.15-.61-.52-1.44 2.38-3.11 5.7-4.37 9.45-4.72 1.02-.09 2.01.18 2.89.78 1.01.69 1.21 1.44.42 2.81" class="cls-1"/></g></svg>