<svg width="25" height="25" viewBox="0 0 25 25" fill="none" xmlns="http://www.w3.org/2000/svg">
<mask id="mask0_3627_17784" style="mask-type:alpha" maskUnits="userSpaceOnUse" x="0" y="0" width="25" height="25">
<rect x="0.732178" y="0.314453" width="24" height="24" fill="#D9D9D9"/>
</mask>
<g mask="url(#mask0_3627_17784)">
<path d="M13.7322 21.3145C13.4488 21.3145 13.2113 21.2186 13.0197 21.027C12.828 20.8353 12.7322 20.5978 12.7322 20.3145C12.7322 20.0311 12.828 19.7936 13.0197 19.602C13.2113 19.4103 13.4488 19.3145 13.7322 19.3145H19.7322V5.31445H13.7322C13.4488 5.31445 13.2113 5.21862 13.0197 5.02695C12.828 4.83529 12.7322 4.59779 12.7322 4.31445C12.7322 4.03112 12.828 3.79362 13.0197 3.60195C13.2113 3.41029 13.4488 3.31445 13.7322 3.31445H19.7322C20.2822 3.31445 20.753 3.51029 21.1447 3.90195C21.5363 4.29362 21.7322 4.76445 21.7322 5.31445V19.3145C21.7322 19.8645 21.5363 20.3353 21.1447 20.727C20.753 21.1186 20.2822 21.3145 19.7322 21.3145H13.7322ZM11.9072 13.3145H4.73218C4.44884 13.3145 4.21134 13.2186 4.01968 13.027C3.82801 12.8353 3.73218 12.5978 3.73218 12.3145C3.73218 12.0311 3.82801 11.7936 4.01968 11.602C4.21134 11.4103 4.44884 11.3145 4.73218 11.3145H11.9072L10.0322 9.43945C9.84884 9.25612 9.75718 9.03112 9.75718 8.76445C9.75718 8.49779 9.84884 8.26445 10.0322 8.06445C10.2155 7.86445 10.4488 7.76029 10.7322 7.75195C11.0155 7.74362 11.2572 7.83945 11.4572 8.03945L15.0322 11.6145C15.2322 11.8145 15.3322 12.0478 15.3322 12.3145C15.3322 12.5811 15.2322 12.8145 15.0322 13.0145L11.4572 16.5895C11.2572 16.7895 11.0197 16.8853 10.7447 16.877C10.4697 16.8686 10.2322 16.7645 10.0322 16.5645C9.84884 16.3645 9.76134 16.127 9.76968 15.852C9.77801 15.577 9.87384 15.3478 10.0572 15.1645L11.9072 13.3145Z" fill="white"/>
</g>
</svg>
