<svg width="20" height="20" viewBox="0 0 20 20" fill="none" xmlns="http://www.w3.org/2000/svg">
<mask id="mask0_3540_5292" style="mask-type:alpha" maskUnits="userSpaceOnUse" x="0" y="0" width="20" height="20">
<rect x="20" width="20" height="20" transform="rotate(90 20 0)" fill="#FFFFFF"/>
</mask>
<g mask="url(#mask0_3540_5292)">
<path d="M10.0001 12.0622L16.1251 5.93718C16.3334 5.72885 16.5799 5.62816 16.8647 5.6351C17.1494 5.64205 17.3959 5.74968 17.6042 5.95802C17.8126 6.16635 17.9167 6.41288 17.9167 6.6976C17.9167 6.98232 17.8126 7.22885 17.6042 7.43719L11.1876 13.833C11.0209 13.9997 10.8334 14.1247 10.6251 14.208C10.4167 14.2914 10.2084 14.333 10.0001 14.333C9.79175 14.333 9.58341 14.2914 9.37508 14.208C9.16675 14.1247 8.97925 13.9997 8.81258 13.833L2.39591 7.41635C2.18758 7.20802 2.08689 6.96496 2.09383 6.68718C2.10078 6.40941 2.20842 6.16635 2.41675 5.95802C2.62508 5.74968 2.87161 5.64552 3.15633 5.64552C3.44105 5.64552 3.68758 5.74968 3.89591 5.95802L10.0001 12.0622Z" fill="white"/>
</g>
</svg>
