<svg width="32" height="32" viewBox="0 0 32 32" fill="none" xmlns="http://www.w3.org/2000/svg">
<mask id="mask0_2901_15431" style="mask-type:alpha" maskUnits="userSpaceOnUse" x="0" y="0" width="32" height="32">
<rect width="32" height="32" fill="#D9D9D9"/>
</mask>
<g mask="url(#mask0_2901_15431)">
<path d="M5.33342 26.6673V14.6673C4.60008 14.6673 3.9723 14.4062 3.45008 13.884C2.92786 13.3618 2.66675 12.734 2.66675 12.0007V9.33399C2.66675 8.60065 2.92786 7.97287 3.45008 7.45065C3.9723 6.92843 4.60008 6.66732 5.33342 6.66732H9.60008C9.48897 6.46732 9.41675 6.25621 9.38342 6.03399C9.35008 5.81176 9.33342 5.57843 9.33342 5.33398C9.33342 4.22287 9.7223 3.27843 10.5001 2.50065C11.2779 1.72287 12.2223 1.33398 13.3334 1.33398C13.8445 1.33398 14.3223 1.42843 14.7667 1.61732C15.2112 1.80621 15.6223 2.06732 16.0001 2.40065C16.3779 2.0451 16.789 1.77843 17.2334 1.60065C17.6779 1.42287 18.1556 1.33398 18.6667 1.33398C19.7779 1.33398 20.7223 1.72287 21.5001 2.50065C22.2779 3.27843 22.6667 4.22287 22.6667 5.33398C22.6667 5.57843 22.6445 5.80621 22.6001 6.01732C22.5556 6.22843 22.489 6.4451 22.4001 6.66732H26.6668C27.4001 6.66732 28.0279 6.92843 28.5501 7.45065C29.0723 7.97287 29.3334 8.60065 29.3334 9.33399V12.0007C29.3334 12.734 29.0723 13.3618 28.5501 13.884C28.0279 14.4062 27.4001 14.6673 26.6668 14.6673V26.6673C26.6668 27.4007 26.4056 28.0284 25.8834 28.5507C25.3612 29.0729 24.7334 29.334 24.0001 29.334H8.00008C7.26675 29.334 6.63897 29.0729 6.11675 28.5507C5.59453 28.0284 5.33342 27.4007 5.33342 26.6673ZM18.6667 4.00065C18.289 4.00065 17.9723 4.12843 17.7168 4.38399C17.4612 4.63954 17.3334 4.95621 17.3334 5.33398C17.3334 5.71176 17.4612 6.02843 17.7168 6.28399C17.9723 6.53954 18.289 6.66732 18.6667 6.66732C19.0445 6.66732 19.3612 6.53954 19.6168 6.28399C19.8723 6.02843 20.0001 5.71176 20.0001 5.33398C20.0001 4.95621 19.8723 4.63954 19.6168 4.38399C19.3612 4.12843 19.0445 4.00065 18.6667 4.00065ZM12.0001 5.33398C12.0001 5.71176 12.1279 6.02843 12.3834 6.28399C12.639 6.53954 12.9556 6.66732 13.3334 6.66732C13.7112 6.66732 14.0279 6.53954 14.2834 6.28399C14.539 6.02843 14.6667 5.71176 14.6667 5.33398C14.6667 4.95621 14.539 4.63954 14.2834 4.38399C14.0279 4.12843 13.7112 4.00065 13.3334 4.00065C12.9556 4.00065 12.639 4.12843 12.3834 4.38399C12.1279 4.63954 12.0001 4.95621 12.0001 5.33398ZM5.33342 9.33399V12.0007H14.6667V9.33399H5.33342ZM14.6667 26.6673V14.6673H8.00008V26.6673H14.6667ZM17.3334 26.6673H24.0001V14.6673H17.3334V26.6673ZM26.6668 12.0007V9.33399H17.3334V12.0007H26.6668Z" fill="#FFB0CE"/>
</g>
</svg>
