<svg width="36" height="36" viewBox="0 0 36 36" fill="none" xmlns="http://www.w3.org/2000/svg">
<rect width="36" height="36" rx="18" fill="black" fill-opacity="0.2"/>
<mask id="mask0_3060_15041" style="mask-type:alpha" maskUnits="userSpaceOnUse" x="6" y="6" width="24" height="24">
<rect x="6" y="6" width="24" height="24" fill="#D9D9D9"/>
</mask>
<g mask="url(#mask0_3060_15041)">
<path d="M18.0001 19.4008L13.1 24.3008C12.9167 24.4841 12.6834 24.5758 12.4 24.5758C12.1167 24.5758 11.8834 24.4841 11.7 24.3008C11.5167 24.1174 11.425 23.8841 11.425 23.6008C11.425 23.3174 11.5167 23.0841 11.7 22.9008L16.6 18.0008L11.7 13.1008C11.5167 12.9174 11.425 12.6841 11.425 12.4008C11.425 12.1174 11.5167 11.8841 11.7 11.7008C11.8834 11.5174 12.1167 11.4258 12.4 11.4258C12.6834 11.4258 12.9167 11.5174 13.1 11.7008L18.0001 16.6008L22.9001 11.7008C23.0834 11.5174 23.3167 11.4258 23.6001 11.4258C23.8834 11.4258 24.1167 11.5174 24.3001 11.7008C24.4834 11.8841 24.5751 12.1174 24.5751 12.4008C24.5751 12.6841 24.4834 12.9174 24.3001 13.1008L19.4 18.0008L24.3001 22.9008C24.4834 23.0841 24.5751 23.3174 24.5751 23.6008C24.5751 23.8841 24.4834 24.1174 24.3001 24.3008C24.1167 24.4841 23.8834 24.5758 23.6001 24.5758C23.3167 24.5758 23.0834 24.4841 22.9001 24.3008L18.0001 19.4008Z" fill="white"/>
</g>
</svg>
