<svg width="20" height="20" viewBox="0 0 20 20" fill="none" xmlns="http://www.w3.org/2000/svg">
<mask id="mask0_2534_18795" style="mask-type:alpha" maskUnits="userSpaceOnUse" x="0" y="0" width="20" height="20">
<rect width="20" height="20" fill="#D9D9D9"/>
</mask>
<g mask="url(#mask0_2534_18795)">
<path d="M9.99915 11.0618L6.58248 14.4785C6.42971 14.6313 6.2561 14.7042 6.06165 14.6973C5.86721 14.6903 5.6936 14.6105 5.54082 14.4577C5.38804 14.3049 5.31165 14.1278 5.31165 13.9264C5.31165 13.725 5.38804 13.548 5.54082 13.3952L8.93665 9.99935L5.51998 6.58268C5.36721 6.4299 5.29429 6.25282 5.30123 6.05143C5.30818 5.85004 5.38804 5.67296 5.54082 5.52018C5.6936 5.3674 5.87068 5.29102 6.07207 5.29102C6.27346 5.29102 6.45054 5.3674 6.60332 5.52018L9.99915 8.93685L13.4158 5.52018C13.5686 5.3674 13.7457 5.29102 13.9471 5.29102C14.1485 5.29102 14.3255 5.3674 14.4783 5.52018C14.6311 5.67296 14.7075 5.85004 14.7075 6.05143C14.7075 6.25282 14.6311 6.4299 14.4783 6.58268L11.0617 9.99935L14.4783 13.416C14.6311 13.5688 14.7075 13.7424 14.7075 13.9368C14.7075 14.1313 14.6311 14.3049 14.4783 14.4577C14.3255 14.6105 14.1485 14.6868 13.9471 14.6868C13.7457 14.6868 13.5686 14.6105 13.4158 14.4577L9.99915 11.0618Z" fill="white"/>
</g>
</svg>
