<svg width="20" height="21" viewBox="0 0 20 21" fill="none" xmlns="http://www.w3.org/2000/svg">
<path d="M10 1.125C7.45586 1.125 7.13594 1.13672 6.13633 1.18125C5.13672 1.22812 4.45586 1.38516 3.85937 1.61719C3.23341 1.85194 2.66657 2.22117 2.19883 2.69883C1.72117 3.16657 1.35194 3.73341 1.11719 4.35937C0.885156 4.95469 0.726953 5.63672 0.68125 6.63281C0.636719 7.63477 0.625 7.95352 0.625 10.5012C0.625 13.0465 0.636719 13.3652 0.68125 14.3648C0.728125 15.3633 0.885156 16.0441 1.11719 16.6406C1.35742 17.257 1.67734 17.7797 2.19883 18.3012C2.71914 18.8227 3.2418 19.1437 3.8582 19.3828C4.45586 19.6148 5.13555 19.773 6.13398 19.8187C7.13477 19.8633 7.45352 19.875 10 19.875C12.5465 19.875 12.8641 19.8633 13.8648 19.8187C14.8621 19.7719 15.5453 19.6148 16.1418 19.3828C16.7673 19.1479 17.3338 18.7787 17.8012 18.3012C18.3227 17.7797 18.6426 17.257 18.8828 16.6406C19.1137 16.0441 19.2719 15.3633 19.3187 14.3648C19.3633 13.3652 19.375 13.0465 19.375 10.5C19.375 7.95352 19.3633 7.63477 19.3187 6.63398C19.2719 5.63672 19.1137 4.95469 18.8828 4.35937C18.6481 3.73341 18.2788 3.16657 17.8012 2.69883C17.3334 2.22117 16.7666 1.85194 16.1406 1.61719C15.543 1.38516 14.8609 1.22695 13.8637 1.18125C12.8629 1.13672 12.5453 1.125 9.99766 1.125H10ZM9.15977 2.81484H10.0012C12.5043 2.81484 12.8008 2.82305 13.7887 2.86875C14.7027 2.90977 15.1996 3.06328 15.5301 3.19102C15.9672 3.36094 16.2801 3.56484 16.6082 3.89297C16.9363 4.22109 17.1391 4.53281 17.309 4.97109C17.4379 5.30039 17.5902 5.79727 17.6313 6.71133C17.677 7.69922 17.6863 7.9957 17.6863 10.4977C17.6863 12.9996 17.677 13.2973 17.6313 14.2852C17.5902 15.1992 17.4367 15.6949 17.309 16.0254C17.1576 16.4319 16.9179 16.7998 16.607 17.1023C16.2789 17.4305 15.9672 17.6332 15.5289 17.8031C15.2008 17.932 14.7039 18.0844 13.7887 18.1266C12.8008 18.1711 12.5043 18.1816 10.0012 18.1816C7.49805 18.1816 7.20039 18.1711 6.2125 18.1266C5.29844 18.0844 4.80273 17.932 4.47227 17.8031C4.06543 17.6523 3.69719 17.4129 3.39414 17.1023C3.08274 16.7995 2.84257 16.4313 2.69102 16.0242C2.56328 15.6949 2.40977 15.198 2.36875 14.284C2.32422 13.2961 2.31484 12.9996 2.31484 10.4953C2.31484 7.99102 2.32422 7.69687 2.36875 6.70898C2.41094 5.79492 2.56328 5.29805 2.69219 4.96758C2.86211 4.53047 3.06602 4.21758 3.39414 3.88945C3.72227 3.56133 4.03398 3.35859 4.47227 3.18867C4.80273 3.05977 5.29844 2.90742 6.2125 2.86523C7.07734 2.82539 7.4125 2.81367 9.15977 2.8125V2.81484ZM15.0051 4.37109C14.8573 4.37109 14.7111 4.40019 14.5746 4.45673C14.4381 4.51327 14.314 4.59613 14.2096 4.7006C14.1051 4.80506 14.0222 4.92908 13.9657 5.06557C13.9092 5.20207 13.8801 5.34836 13.8801 5.49609C13.8801 5.64383 13.9092 5.79012 13.9657 5.92661C14.0222 6.0631 14.1051 6.18712 14.2096 6.29159C14.314 6.39605 14.4381 6.47892 14.5746 6.53546C14.7111 6.59199 14.8573 6.62109 15.0051 6.62109C15.3034 6.62109 15.5896 6.50257 15.8006 6.29159C16.0116 6.08061 16.1301 5.79446 16.1301 5.49609C16.1301 5.19773 16.0116 4.91158 15.8006 4.7006C15.5896 4.48962 15.3034 4.37109 15.0051 4.37109ZM10.0012 5.68594C9.36258 5.67597 8.72839 5.79315 8.13552 6.03063C7.54265 6.26812 7.00295 6.62118 6.54783 7.06925C6.09272 7.51732 5.73129 8.05145 5.48458 8.64054C5.23787 9.22963 5.11082 9.86192 5.11082 10.5006C5.11082 11.1393 5.23787 11.7715 5.48458 12.3606C5.73129 12.9497 6.09272 13.4839 6.54783 13.9319C7.00295 14.38 7.54265 14.7331 8.13552 14.9705C8.72839 15.208 9.36258 15.3252 10.0012 15.3152C11.2651 15.2955 12.4706 14.7796 13.3574 13.8788C14.2442 12.978 14.7413 11.7647 14.7413 10.5006C14.7413 9.23652 14.2442 8.02314 13.3574 7.12236C12.4706 6.22159 11.2651 5.70566 10.0012 5.68594ZM10.0012 7.37461C10.4116 7.37461 10.818 7.45545 11.1972 7.61252C11.5764 7.76958 11.9209 7.9998 12.2112 8.29002C12.5014 8.58023 12.7316 8.92478 12.8887 9.30397C13.0457 9.68315 13.1266 10.0896 13.1266 10.5C13.1266 10.9104 13.0457 11.3168 12.8887 11.696C12.7316 12.0752 12.5014 12.4198 12.2112 12.71C11.9209 13.0002 11.5764 13.2304 11.1972 13.3875C10.818 13.5445 10.4116 13.6254 10.0012 13.6254C9.17227 13.6254 8.37731 13.2961 7.79119 12.71C7.20506 12.1239 6.87578 11.3289 6.87578 10.5C6.87578 9.67109 7.20506 8.87614 7.79119 8.29002C8.37731 7.70389 9.17227 7.37461 10.0012 7.37461Z" fill="white"/>
</svg>
