<svg width="20" height="21" viewBox="0 0 20 21" fill="none" xmlns="http://www.w3.org/2000/svg">
<path d="M4.84395 9.01701L2.65317 11.179C1.75474 12.0657 1.25 13.2682 1.25 14.5221C1.25 15.776 1.75474 16.9786 2.65317 17.8652C3.55161 18.7519 4.77015 19.25 6.04073 19.25C7.31131 19.25 8.52985 18.7519 9.42828 17.8652L12.3472 14.9831C12.889 14.4483 13.2929 13.7931 13.525 13.0725C13.7571 12.3518 13.8106 11.5867 13.6811 10.8414C13.5515 10.0961 13.2428 9.39231 12.7806 8.78915C12.3184 8.18599 11.7164 7.70104 11.0251 7.375L10.0893 8.29843C9.99433 8.39233 9.91171 8.49769 9.84345 8.61202C10.3776 8.76356 10.8625 9.05007 11.25 9.4432C11.6376 9.83633 11.9145 10.3225 12.0534 10.8536C12.1922 11.3847 12.1882 11.9424 12.0418 12.4715C11.8953 13.0006 11.6115 13.4829 11.2183 13.8705L8.30096 16.7511C7.70172 17.3425 6.88898 17.6747 6.04153 17.6747C5.19407 17.6747 4.38133 17.3425 3.78209 16.7511C3.18285 16.1598 2.8462 15.3577 2.8462 14.5213C2.8462 13.685 3.18285 12.8829 3.78209 12.2916L5.04833 11.0435C4.86918 10.3829 4.80015 9.6995 4.84395 9.01701Z" fill="white"/>
<path d="M7.65281 6.01593C7.11103 6.55074 6.70715 7.20603 6.47505 7.92679C6.24295 8.64755 6.18941 9.41274 6.31893 10.1582C6.44845 10.9036 6.75725 11.6074 7.2194 12.2107C7.68155 12.8139 8.28358 13.2989 8.97494 13.625L10.2124 12.402C9.67105 12.2587 9.17742 11.9772 8.78115 11.5859C8.38488 11.1947 8.09993 10.7073 7.95494 10.1729C7.80995 9.63848 7.81002 9.07581 7.95515 8.54143C8.10028 8.00705 8.38536 7.51979 8.78173 7.1286L11.699 4.24762C12.2983 3.65617 13.111 3.32389 13.9585 3.32389C14.8059 3.32389 15.6187 3.65617 16.2179 4.24762C16.8171 4.83908 17.1538 5.64126 17.1538 6.4777C17.1538 7.31415 16.8171 8.11633 16.2179 8.70779L14.9517 9.956C15.1305 10.6179 15.1992 11.3035 15.1561 11.9844L17.3468 9.82204C18.2453 8.93527 18.75 7.73256 18.75 6.47849C18.75 5.22442 18.2453 4.02171 17.3468 3.13494C16.4484 2.24818 15.2299 1.75 13.9593 1.75C12.6887 1.75 11.4702 2.24818 10.5717 3.13494L7.65281 6.01593Z" fill="white"/>
</svg>
