<svg width="32" height="32" viewBox="0 0 32 32" fill="none" xmlns="http://www.w3.org/2000/svg">
<mask id="mask0_2901_15434" style="mask-type:alpha" maskUnits="userSpaceOnUse" x="0" y="0" width="32" height="32">
<rect width="32" height="32" fill="#D9D9D9"/>
</mask>
<g mask="url(#mask0_2901_15434)">
<path d="M3.99984 9.33463C3.62206 9.33463 3.30539 9.20686 3.04984 8.9513C2.79428 8.69575 2.6665 8.37908 2.6665 8.0013V4.0013C2.6665 3.62352 2.79428 3.30686 3.04984 3.0513C3.30539 2.79575 3.62206 2.66797 3.99984 2.66797H7.99984C8.37761 2.66797 8.69428 2.79575 8.94984 3.0513C9.20539 3.30686 9.33317 3.62352 9.33317 4.0013C9.33317 4.37908 9.20539 4.69575 8.94984 4.9513C8.69428 5.20686 8.37761 5.33464 7.99984 5.33464H5.33317V8.0013C5.33317 8.37908 5.20539 8.69575 4.94984 8.9513C4.69428 9.20686 4.37761 9.33463 3.99984 9.33463ZM3.99984 29.3346C3.62206 29.3346 3.30539 29.2069 3.04984 28.9513C2.79428 28.6957 2.6665 28.3791 2.6665 28.0013V24.0013C2.6665 23.6235 2.79428 23.3069 3.04984 23.0513C3.30539 22.7957 3.62206 22.668 3.99984 22.668C4.37761 22.668 4.69428 22.7957 4.94984 23.0513C5.20539 23.3069 5.33317 23.6235 5.33317 24.0013V26.668H7.99984C8.37761 26.668 8.69428 26.7957 8.94984 27.0513C9.20539 27.3069 9.33317 27.6235 9.33317 28.0013C9.33317 28.3791 9.20539 28.6957 8.94984 28.9513C8.69428 29.2069 8.37761 29.3346 7.99984 29.3346H3.99984ZM23.9998 29.3346C23.6221 29.3346 23.3054 29.2069 23.0498 28.9513C22.7943 28.6957 22.6665 28.3791 22.6665 28.0013C22.6665 27.6235 22.7943 27.3069 23.0498 27.0513C23.3054 26.7957 23.6221 26.668 23.9998 26.668H26.6665V24.0013C26.6665 23.6235 26.7943 23.3069 27.0498 23.0513C27.3054 22.7957 27.6221 22.668 27.9998 22.668C28.3776 22.668 28.6943 22.7957 28.9498 23.0513C29.2054 23.3069 29.3332 23.6235 29.3332 24.0013V28.0013C29.3332 28.3791 29.2054 28.6957 28.9498 28.9513C28.6943 29.2069 28.3776 29.3346 27.9998 29.3346H23.9998ZM27.9998 9.33463C27.6221 9.33463 27.3054 9.20686 27.0498 8.9513C26.7943 8.69575 26.6665 8.37908 26.6665 8.0013V5.33464H23.9998C23.6221 5.33464 23.3054 5.20686 23.0498 4.9513C22.7943 4.69575 22.6665 4.37908 22.6665 4.0013C22.6665 3.62352 22.7943 3.30686 23.0498 3.0513C23.3054 2.79575 23.6221 2.66797 23.9998 2.66797H27.9998C28.3776 2.66797 28.6943 2.79575 28.9498 3.0513C29.2054 3.30686 29.3332 3.62352 29.3332 4.0013V8.0013C29.3332 8.37908 29.2054 8.69575 28.9498 8.9513C28.6943 9.20686 28.3776 9.33463 27.9998 9.33463ZM23.3332 25.3346V23.3346H25.3332V25.3346H23.3332ZM23.3332 21.3346V19.3346H25.3332V21.3346H23.3332ZM21.3332 23.3346V21.3346H23.3332V23.3346H21.3332ZM19.3332 25.3346V23.3346H21.3332V25.3346H19.3332ZM17.3332 23.3346V21.3346H19.3332V23.3346H17.3332ZM21.3332 19.3346V17.3346H23.3332V19.3346H21.3332ZM19.3332 21.3346V19.3346H21.3332V21.3346H19.3332ZM17.3332 19.3346V17.3346H19.3332V19.3346H17.3332ZM18.6665 14.668C18.2887 14.668 17.9721 14.5402 17.7165 14.2846C17.4609 14.0291 17.3332 13.7124 17.3332 13.3346V8.0013C17.3332 7.62352 17.4609 7.30686 17.7165 7.0513C17.9721 6.79575 18.2887 6.66797 18.6665 6.66797H23.9998C24.3776 6.66797 24.6943 6.79575 24.9498 7.0513C25.2054 7.30686 25.3332 7.62352 25.3332 8.0013V13.3346C25.3332 13.7124 25.2054 14.0291 24.9498 14.2846C24.6943 14.5402 24.3776 14.668 23.9998 14.668H18.6665ZM7.99984 25.3346C7.62206 25.3346 7.30539 25.2069 7.04984 24.9513C6.79428 24.6957 6.6665 24.3791 6.6665 24.0013V18.668C6.6665 18.2902 6.79428 17.9735 7.04984 17.718C7.30539 17.4624 7.62206 17.3346 7.99984 17.3346H13.3332C13.7109 17.3346 14.0276 17.4624 14.2832 17.718C14.5387 17.9735 14.6665 18.2902 14.6665 18.668V24.0013C14.6665 24.3791 14.5387 24.6957 14.2832 24.9513C14.0276 25.2069 13.7109 25.3346 13.3332 25.3346H7.99984ZM7.99984 14.668C7.62206 14.668 7.30539 14.5402 7.04984 14.2846C6.79428 14.0291 6.6665 13.7124 6.6665 13.3346V8.0013C6.6665 7.62352 6.79428 7.30686 7.04984 7.0513C7.30539 6.79575 7.62206 6.66797 7.99984 6.66797H13.3332C13.7109 6.66797 14.0276 6.79575 14.2832 7.0513C14.5387 7.30686 14.6665 7.62352 14.6665 8.0013V13.3346C14.6665 13.7124 14.5387 14.0291 14.2832 14.2846C14.0276 14.5402 13.7109 14.668 13.3332 14.668H7.99984ZM8.6665 23.3346H12.6665V19.3346H8.6665V23.3346ZM8.6665 12.668H12.6665V8.66797H8.6665V12.668ZM19.3332 12.668H23.3332V8.66797H19.3332V12.668Z" fill="#FFB0CE"/>
</g>
</svg>
