<svg width="860" height="675" viewBox="0 0 860 675" fill="none" xmlns="http://www.w3.org/2000/svg">
<g filter="url(#filter0_ii_1699_6958)">
<path d="M0 33.3571C31.8516 34.8877 63.7031 36.4182 95.5562 42.8873C127.408 49.3564 159.259 60.762 191.111 52.4175C222.963 44.0729 254.814 15.9773 286.667 9.53017C318.519 3.08409 350.37 18.2856 382.222 28.5915C414.073 38.8975 445.927 44.3059 477.778 47.6529C509.63 50.9989 541.481 52.2835 573.333 42.8873C605.186 33.4911 637.037 13.416 668.889 19.0613C700.741 24.7067 732.592 56.0734 764.444 57.183C796.297 58.2927 828.148 29.1464 860 0V675C828.148 675 796.297 675 764.444 675C732.592 675 700.741 675 668.889 675C637.037 675 605.186 675 573.333 675C541.481 675 509.63 675 477.778 675C445.927 675 414.073 675 382.222 675C350.37 675 318.519 675 286.667 675C254.814 675 222.963 675 191.111 675C159.259 675 127.408 675 95.5562 675C63.7031 675 31.8516 675 0 675V33.3571Z" fill="#310E1C"/>
</g>
<defs>
<filter id="filter0_ii_1699_6958" x="0" y="0" width="860" height="685" filterUnits="userSpaceOnUse" color-interpolation-filters="sRGB">
<feFlood flood-opacity="0" result="BackgroundImageFix"/>
<feBlend mode="normal" in="SourceGraphic" in2="BackgroundImageFix" result="shape"/>
<feColorMatrix in="SourceAlpha" type="matrix" values="0 0 0 0 0 0 0 0 0 0 0 0 0 0 0 0 0 0 127 0" result="hardAlpha"/>
<feOffset dy="10"/>
<feGaussianBlur stdDeviation="50"/>
<feComposite in2="hardAlpha" operator="arithmetic" k2="-1" k3="1"/>
<feColorMatrix type="matrix" values="0 0 0 0 1 0 0 0 0 0.291498 0 0 0 0 0.781376 0 0 0 1 0"/>
<feBlend mode="normal" in2="shape" result="effect1_innerShadow_1699_6958"/>
<feColorMatrix in="SourceAlpha" type="matrix" values="0 0 0 0 0 0 0 0 0 0 0 0 0 0 0 0 0 0 127 0" result="hardAlpha"/>
<feOffset dx="12" dy="4"/>
<feComposite in2="hardAlpha" operator="arithmetic" k2="-1" k3="1"/>
<feColorMatrix type="matrix" values="0 0 0 0 0.968627 0 0 0 0 0.282353 0 0 0 0 0.756863 0 0 0 1 0"/>
<feBlend mode="normal" in2="effect1_innerShadow_1699_6958" result="effect2_innerShadow_1699_6958"/>
</filter>
</defs>
</svg>
