<svg width="2100" height="698" viewBox="0 0 2100 698" fill="none" xmlns="http://www.w3.org/2000/svg">
<g filter="url(#filter0_ii_1434_2157)">
<path d="M2100 34.4937C2022.22 36.0764 1944.45 37.6591 1866.67 44.3486C1788.89 51.0381 1711.11 62.8324 1633.33 54.2035C1555.56 45.5747 1477.78 16.5217 1400 9.85491C1322.22 3.18917 1244.44 18.9086 1166.67 29.5658C1088.89 40.2229 1011.11 45.8155 933.332 49.2766C855.555 52.7366 777.778 54.065 700.001 44.3486C622.22 34.6322 544.443 13.8732 466.666 19.7108C388.889 25.5485 311.112 57.984 233.335 59.1315C155.554 60.279 77.7771 30.1395 0 0V698C77.7771 698 155.554 698 233.335 698C311.112 698 388.889 698 466.666 698C544.443 698 622.22 698 700.001 698C777.778 698 855.555 698 933.332 698C1011.11 698 1088.89 698 1166.67 698C1244.44 698 1322.22 698 1400 698C1477.78 698 1555.56 698 1633.33 698C1711.11 698 1788.89 698 1866.67 698C1944.45 698 2022.22 698 2100 698V34.4937Z" fill="#310E1C"/>
</g>
<defs>
<filter id="filter0_ii_1434_2157" x="0" y="0" width="2100" height="708" filterUnits="userSpaceOnUse" color-interpolation-filters="sRGB">
<feFlood flood-opacity="0" result="BackgroundImageFix"/>
<feBlend mode="normal" in="SourceGraphic" in2="BackgroundImageFix" result="shape"/>
<feColorMatrix in="SourceAlpha" type="matrix" values="0 0 0 0 0 0 0 0 0 0 0 0 0 0 0 0 0 0 127 0" result="hardAlpha"/>
<feOffset dy="10"/>
<feGaussianBlur stdDeviation="50"/>
<feComposite in2="hardAlpha" operator="arithmetic" k2="-1" k3="1"/>
<feColorMatrix type="matrix" values="0 0 0 0 1 0 0 0 0 0.291498 0 0 0 0 0.781376 0 0 0 1 0"/>
<feBlend mode="normal" in2="shape" result="effect1_innerShadow_1434_2157"/>
<feColorMatrix in="SourceAlpha" type="matrix" values="0 0 0 0 0 0 0 0 0 0 0 0 0 0 0 0 0 0 127 0" result="hardAlpha"/>
<feOffset dx="12" dy="4"/>
<feComposite in2="hardAlpha" operator="arithmetic" k2="-1" k3="1"/>
<feColorMatrix type="matrix" values="0 0 0 0 0.968627 0 0 0 0 0.282353 0 0 0 0 0.756863 0 0 0 1 0"/>
<feBlend mode="normal" in2="effect1_innerShadow_1434_2157" result="effect2_innerShadow_1434_2157"/>
</filter>
</defs>
</svg>
