<svg viewBox="0 0 1720 690" fill="none" xmlns="http://www.w3.org/2000/svg"  preserveAspectRatio="none">
<g filter="url(#filter0_ii_1754_7021)">
<path d="M95.5562 9.96948C76.6124 5.49511 31.8516 -1.88447 0 0.443837V689.443H95.5562H191.111H286.667H382.222H477.778H573.333H668.889H764.444L955.556 689.447H1051.11H1146.67H1242.22H1337.78H1433.33H1528.89H1624.44H1720V0.447291C1688.15 3.63898 1656.3 6.83066 1624.44 19.5005C1592.59 32.1693 1560.74 54.3162 1528.89 48.0797C1497.04 41.8423 1465.19 7.22138 1433.33 9.97338C1401.48 12.7254 1369.63 52.8503 1337.78 52.8423C1305.93 52.8353 1274.07 12.6954 1242.22 9.97338C1210.37 7.25236 1178.52 41.9482 1146.67 52.8423C1114.81 63.7374 1094.22 53.1548 1051.11 38.5526C1008 23.9504 974.5 14.4477 955.556 9.97338C936.612 5.49902 891.852 -1.88493 860 0.443385C828.148 3.63507 802.353 9.84411 770.5 22.5139C738.648 35.1827 700.741 54.3123 668.889 48.0758C637.037 41.8384 605.186 7.21747 573.333 9.96948C541.481 12.7215 509.63 52.8464 477.778 52.8384C445.927 52.8314 414.073 12.6915 382.222 9.96948C350.37 7.24845 318.519 41.9443 286.667 52.8384C254.814 63.7335 234.222 53.1509 191.111 38.5487C148 23.9465 114.5 14.4438 95.5562 9.96948Z" fill="#1C090B"/>
</g>
<defs>
<filter id="filter0_ii_1754_7021" x="0" y="0" width="1720" height="699.447" filterUnits="userSpaceOnUse" color-interpolation-filters="sRGB">
<feFlood flood-opacity="0" result="BackgroundImageFix"/>
<feBlend mode="normal" in="SourceGraphic" in2="BackgroundImageFix" result="shape"/>
<feColorMatrix in="SourceAlpha" type="matrix" values="0 0 0 0 0 0 0 0 0 0 0 0 0 0 0 0 0 0 127 0" result="hardAlpha"/>
<feOffset dy="10"/>
<feGaussianBlur stdDeviation="50"/>
<feComposite in2="hardAlpha" operator="arithmetic" k2="-1" k3="1"/>
<feColorMatrix type="matrix" values="0 0 0 0 1 0 0 0 0 1 0 0 0 0 1 0 0 0 1 0"/>
<feBlend mode="normal" in2="shape" result="effect1_innerShadow_1754_7021"/>
<feColorMatrix in="SourceAlpha" type="matrix" values="0 0 0 0 0 0 0 0 0 0 0 0 0 0 0 0 0 0 127 0" result="hardAlpha"/>
<feOffset dx="12" dy="4"/>
<feComposite in2="hardAlpha" operator="arithmetic" k2="-1" k3="1"/>
<feColorMatrix type="matrix" values="0 0 0 0 1 0 0 0 0 1 0 0 0 0 1 0 0 0 1 0"/>
<feBlend mode="normal" in2="effect1_innerShadow_1754_7021" result="effect2_innerShadow_1754_7021"/>
</filter>
</defs>
</svg>
