<svg viewBox="0 0 1720 690" fill="none" xmlns="http://www.w3.org/2000/svg" preserveAspectRatio="none">
<g filter="url(#filter0_ii_1754_7027)">
<path d="M763.5 36.0083C798 20.0083 836.5 7 860 8.5C893 11 923.703 52.0186 955.556 50.8711C987.408 49.7236 1019.26 17.2882 1051.11 11.4505C1082.96 5.61282 1114.81 26.3719 1146.67 36.0883C1178.52 45.8046 1210.37 44.4763 1242.22 41.0162C1274.07 37.5552 1305.93 31.9625 1337.78 21.3054C1369.63 10.6483 1401.48 -5.07119 1433.33 1.59454C1465.19 8.26131 1497.04 37.3144 1528.89 45.9432C1560.74 54.5721 1589.8 51.6305 1623.5 36C1658 20 1696.5 7 1720 8.5V689.74H1624.44H1528.89H1433.33H1337.78H1242.22H1146.67H1051.11H955.556L764.444 689.748H668.889H573.333H477.778H382.222H286.667H191.111H95.5562H-0.000244141V8.50828C32.9998 11.0083 63.7031 52.0269 95.5562 50.8794C127.408 49.7319 159.259 17.2965 191.111 11.4588C222.962 5.62109 254.814 26.3802 286.667 36.0966C318.519 45.8129 350.37 44.4845 382.222 41.0245C414.073 37.5635 445.927 31.9708 477.778 21.3137C509.63 10.6566 541.481 -5.06294 573.333 1.6028C605.186 8.26956 637.037 37.3226 668.889 45.9515C700.74 54.5803 729.797 51.6388 763.5 36.0083Z" fill="#330E1E"/>
</g>
<defs>
<filter id="filter0_ii_1754_7027" x="0" y="0" width="1720" height="699.748" filterUnits="userSpaceOnUse" color-interpolation-filters="sRGB">
<feFlood flood-opacity="0" result="BackgroundImageFix"/>
<feBlend mode="normal" in="SourceGraphic" in2="BackgroundImageFix" result="shape"/>
<feColorMatrix in="SourceAlpha" type="matrix" values="0 0 0 0 0 0 0 0 0 0 0 0 0 0 0 0 0 0 127 0" result="hardAlpha"/>
<feOffset dy="10"/>
<feGaussianBlur stdDeviation="50"/>
<feComposite in2="hardAlpha" operator="arithmetic" k2="-1" k3="1"/>
<feColorMatrix type="matrix" values="0 0 0 0 1 0 0 0 0 0.291498 0 0 0 0 0.781376 0 0 0 1 0"/>
<feBlend mode="normal" in2="shape" result="effect1_innerShadow_1754_7027"/>
<feColorMatrix in="SourceAlpha" type="matrix" values="0 0 0 0 0 0 0 0 0 0 0 0 0 0 0 0 0 0 127 0" result="hardAlpha"/>
<feOffset dx="12" dy="4"/>
<feComposite in2="hardAlpha" operator="arithmetic" k2="-1" k3="1"/>
<feColorMatrix type="matrix" values="0 0 0 0 0.968627 0 0 0 0 0.282353 0 0 0 0 0.756863 0 0 0 1 0"/>
<feBlend mode="normal" in2="effect1_innerShadow_1754_7027" result="effect2_innerShadow_1754_7027"/>
</filter>
</defs>
</svg>
