<svg width="860" height="161" viewBox="0 0 860 161" fill="none" xmlns="http://www.w3.org/2000/svg">
<path d="M0 29.4119C26.0601 30.9769 52.1217 32.5419 78.1818 35.2172C104.242 37.8925 130.304 41.6792 156.364 46.8278C182.424 51.9775 208.485 58.4892 234.545 52.6332C260.606 46.7771 286.667 28.5532 312.727 15.8668C338.787 3.18029 364.849 -3.96778 390.909 2.32065C416.969 8.60908 443.031 28.334 469.091 37.1526C495.151 45.9713 521.213 43.8826 547.273 42.958C573.333 42.0334 599.394 42.2709 625.455 44.8934C651.515 47.5149 677.576 52.5205 703.636 46.8278C729.696 41.1352 755.758 24.7453 781.818 17.8012C807.878 10.8581 833.94 13.3619 860 15.8668V161C833.94 161 807.878 161 781.818 161C755.758 161 729.696 161 703.636 161C677.576 161 651.515 161 625.455 161C599.394 161 573.333 161 547.273 161C521.213 161 495.151 161 469.091 161C443.031 161 416.969 161 390.909 161C364.849 161 338.787 161 312.727 161C286.667 161 260.606 161 234.545 161C208.485 161 182.424 161 156.364 161C130.304 161 104.242 161 78.1818 161C52.1217 161 26.0601 161 0 161V29.4119Z" fill="#1B080A"/>
</svg>
