<svg width="860" height="689" viewBox="0 0 860 689" fill="none" xmlns="http://www.w3.org/2000/svg">
<path d="M0 9.52609C31.8516 7.19778 63.7031 4.86847 95.5562 9.52609C127.408 14.1847 159.259 25.8293 191.111 38.1053C222.963 50.3824 254.814 63.2901 286.667 52.395C318.519 41.5009 350.37 6.80506 382.222 9.52609C414.073 12.2481 445.927 52.388 477.778 52.395C509.63 52.403 541.481 12.2781 573.333 9.52609C605.186 6.77408 637.037 41.395 668.889 47.6324C700.741 53.8689 732.592 31.722 764.444 19.0532C796.297 6.38337 828.148 3.19168 860 0V689C828.148 689 796.297 689 764.444 689C732.592 689 700.741 689 668.889 689C637.037 689 605.186 689 573.333 689C541.481 689 509.63 689 477.778 689C445.927 689 414.073 689 382.222 689C350.37 689 318.519 689 286.667 689C254.814 689 222.963 689 191.111 689C159.259 689 127.408 689 95.5562 689C63.7031 689 31.8516 689 0 689V9.52609Z" fill="#1B080A"/>
</svg>
