<svg width="860" height="698" viewBox="0 0 860 698" fill="none" xmlns="http://www.w3.org/2000/svg">
<g filter="url(#filter0_ii_1699_6961)">
<path d="M860 34.4937C828.148 36.0764 796.297 37.6591 764.444 44.3486C732.592 51.0381 700.741 62.8324 668.889 54.2035C637.037 45.5747 605.186 16.5217 573.333 9.85491C541.481 3.18917 509.63 18.9086 477.778 29.5658C445.927 40.2229 414.073 45.8155 382.222 49.2766C350.37 52.7366 318.519 54.065 286.667 44.3486C254.814 34.6322 222.963 13.8732 191.111 19.7108C159.259 25.5485 127.408 57.984 95.5562 59.1315C63.7032 60.279 31.8516 30.1395 1.90735e-05 0V698C31.8516 698 63.7032 698 95.5562 698C127.408 698 159.259 698 191.111 698C222.963 698 254.814 698 286.667 698C318.519 698 350.37 698 382.222 698C414.073 698 445.927 698 477.778 698C509.63 698 541.481 698 573.333 698C605.186 698 637.037 698 668.889 698C700.741 698 732.592 698 764.444 698C796.297 698 828.148 698 860 698V34.4937Z" fill="#310E1C"/>
</g>
<defs>
<filter id="filter0_ii_1699_6961" x="0" y="0" width="860" height="708" filterUnits="userSpaceOnUse" color-interpolation-filters="sRGB">
<feFlood flood-opacity="0" result="BackgroundImageFix"/>
<feBlend mode="normal" in="SourceGraphic" in2="BackgroundImageFix" result="shape"/>
<feColorMatrix in="SourceAlpha" type="matrix" values="0 0 0 0 0 0 0 0 0 0 0 0 0 0 0 0 0 0 127 0" result="hardAlpha"/>
<feOffset dy="10"/>
<feGaussianBlur stdDeviation="50"/>
<feComposite in2="hardAlpha" operator="arithmetic" k2="-1" k3="1"/>
<feColorMatrix type="matrix" values="0 0 0 0 1 0 0 0 0 0.291498 0 0 0 0 0.781376 0 0 0 1 0"/>
<feBlend mode="normal" in2="shape" result="effect1_innerShadow_1699_6961"/>
<feColorMatrix in="SourceAlpha" type="matrix" values="0 0 0 0 0 0 0 0 0 0 0 0 0 0 0 0 0 0 127 0" result="hardAlpha"/>
<feOffset dx="12" dy="4"/>
<feComposite in2="hardAlpha" operator="arithmetic" k2="-1" k3="1"/>
<feColorMatrix type="matrix" values="0 0 0 0 0.968627 0 0 0 0 0.282353 0 0 0 0 0.756863 0 0 0 1 0"/>
<feBlend mode="normal" in2="effect1_innerShadow_1699_6961" result="effect2_innerShadow_1699_6961"/>
</filter>
</defs>
</svg>
