<svg width="20" height="21" viewBox="0 0 20 21" fill="none" xmlns="http://www.w3.org/2000/svg">
<path d="M10.0637 2.99805H10.175C11.2025 3.0018 16.4087 3.0393 17.8125 3.4168C18.2369 3.53201 18.6236 3.75657 18.9339 4.06806C19.2443 4.37954 19.4675 4.76703 19.5812 5.1918C19.7075 5.6668 19.7963 6.29555 19.8563 6.9443L19.8688 7.0743L19.8962 7.3993L19.9063 7.5293C19.9875 8.6718 19.9975 9.7418 19.9987 9.97555V10.0693C19.9975 10.3118 19.9862 11.4543 19.8962 12.6443L19.8863 12.7755L19.875 12.9055C19.8125 13.6205 19.72 14.3305 19.5812 14.853C19.4675 15.2778 19.2443 15.6653 18.9339 15.9768C18.6236 16.2883 18.2369 16.5128 17.8125 16.628C16.3625 17.018 10.8512 17.0455 10.0875 17.0468H9.91C9.52375 17.0468 7.92625 17.0393 6.25125 16.9818L6.03875 16.9743L5.93 16.9693L5.71625 16.9605L5.5025 16.9518C4.115 16.8905 2.79375 16.7918 2.185 16.6268C1.76078 16.5117 1.37419 16.2873 1.06381 15.9761C0.753441 15.6648 0.530154 15.2776 0.41625 14.853C0.2775 14.3318 0.185 13.6205 0.1225 12.9055L0.1125 12.7743L0.1025 12.6443C0.0404543 11.7973 0.00626915 10.9485 0 10.0993L0 9.94555C0.0025 9.6768 0.0125 8.74805 0.08 7.72305L0.08875 7.5943L0.0925 7.5293L0.1025 7.3993L0.13 7.0743L0.1425 6.9443C0.2025 6.29555 0.29125 5.66555 0.4175 5.1918C0.531213 4.76703 0.754415 4.37954 1.0648 4.06806C1.37519 3.75657 1.76188 3.53201 2.18625 3.4168C2.795 3.2543 4.11625 3.1543 5.50375 3.0918L5.71625 3.08305L5.93125 3.07555L6.03875 3.0718L6.2525 3.06305C7.44214 3.0248 8.63226 3.00355 9.8225 2.9993L10.0637 2.99805ZM8 7.01055V13.033L13.1963 10.023L8 7.01055Z" fill="white"/>
</svg>
