<svg width="366" height="78" viewBox="0 0 366 78" fill="none" xmlns="http://www.w3.org/2000/svg">
<mask id="path-1-outside-1_1246_11246" maskUnits="userSpaceOnUse" x="0.5" y="0.204102" width="244" height="77" fill="black">
<rect fill="white" x="0.5" y="0.204102" width="244" height="77"/>
<path d="M37.18 73.0441C33.724 73.0441 31.996 71.3161 31.996 67.8601V66.4921H11.836C9.052 66.4921 7.66 65.1001 7.66 62.3161C7.66 59.5321 9.052 58.1401 11.836 58.1401H31.996V55.5481H13.204C10.468 55.5481 9.1 54.1801 9.1 51.4441C9.1 48.7081 10.468 47.3401 13.204 47.3401H15.508V43.8841H9.028C6.244 43.8841 4.852 42.4921 4.852 39.7081C4.852 36.9241 6.244 35.5321 9.028 35.5321H15.508V32.1481H12.7C11.98 32.1481 11.404 31.9321 10.972 31.5001C10.54 31.0681 10.324 30.4921 10.324 29.7721V12.3481C10.324 10.9561 10.756 9.8281 11.62 8.9641C12.484 8.1001 13.612 7.6681 15.004 7.6681H37.54H60.148C61.54 7.6681 62.668 8.1001 63.532 8.9641C64.396 9.8281 64.828 10.9561 64.828 12.3481V27.4681C64.828 28.8601 64.396 29.9881 63.532 30.8521C62.668 31.7161 61.54 32.1481 60.148 32.1481H59.428V35.5321H66.124C68.908 35.5321 70.3 36.9241 70.3 39.7081C70.3 42.4921 68.908 43.8841 66.124 43.8841H59.428V47.3401H62.452C65.188 47.3401 66.556 48.7081 66.556 51.4441C66.556 54.1801 65.188 55.5481 62.452 55.5481H42.364V58.1401H64.54C67.324 58.1401 68.716 59.5321 68.716 62.3161C68.716 65.1001 67.324 66.4921 64.54 66.4921H42.364V67.8601C42.364 71.3161 40.636 73.0441 37.18 73.0441ZM25.012 47.3401H31.996V43.8841H28.468H25.012V47.3401ZM42.364 47.3401H46.036H49.78V43.8841H42.364V47.3401ZM25.012 35.5321H31.996V32.1481H28.468H25.012V35.5321ZM42.364 35.5321H46.036H49.78V32.1481H42.364V35.5321ZM21.196 25.3801H31.996V23.0761H26.092H20.26V24.4441C20.26 25.0681 20.572 25.3801 21.196 25.3801ZM42.364 25.3801H48.34H54.316V23.0761H42.364V25.3801ZM20.26 16.7401H31.996V14.4361H26.092H21.988C20.836 14.4361 20.26 15.0121 20.26 16.1641V16.7401ZM42.364 16.7401H48.34H54.316V14.4361H42.364V16.7401ZM122.428 73.0441C119.02 73.0441 117.316 71.3401 117.316 67.9321V61.9561C111.988 65.8441 105.988 68.8921 99.316 71.1001C97.78 71.5321 96.484 71.6281 95.428 71.3881C94.324 71.1001 93.316 70.3561 92.404 69.1561C90.916 67.1881 90.508 65.6281 91.18 64.4761C91.804 63.3721 93.412 62.5321 96.004 61.9561C100.66 60.6601 104.932 59.0041 108.82 56.9881H94.78C91.948 56.9881 90.532 55.5721 90.532 52.7401C90.532 49.9081 91.948 48.4921 94.78 48.4921H117.316V46.4761H100.828C98.38 46.4761 97.156 45.2281 97.156 42.7321C97.156 40.2841 98.38 39.0601 100.828 39.0601H117.316V37.0441H97.66C94.972 37.0441 93.628 35.7001 93.628 33.0121C93.628 30.3241 94.972 28.9801 97.66 28.9801H106.084C105.844 28.2121 105.412 26.9881 104.788 25.3081C104.644 24.8281 104.524 24.4921 104.428 24.3001H94.924C92.092 24.3001 90.676 22.8841 90.676 20.0521C90.676 17.2201 92.092 15.8041 94.924 15.8041H99.244C98.668 14.2681 98.044 12.8521 97.372 11.5561C96.748 10.3561 96.628 9.3001 97.012 8.3881C97.396 7.4761 98.212 6.8041 99.46 6.3721L99.892 6.2281C101.284 5.7481 102.724 5.9881 104.212 6.9481C105.46 7.8121 106.492 9.0121 107.308 10.5481C107.836 11.6041 108.052 12.6121 107.956 13.5721C107.812 14.6761 107.26 15.3961 106.3 15.7321L106.156 15.8041H111.34V9.3241C111.34 6.1561 112.948 4.5721 116.164 4.5721C119.332 4.5721 120.916 6.1561 120.916 9.3241V15.8041H124.372V9.3961C124.372 6.1801 126.004 4.5721 129.268 4.5721C132.484 4.5721 134.092 6.1801 134.092 9.3961V15.8041H138.844L137.548 15.3721C136.972 15.2281 136.804 14.9161 137.044 14.4361C137.092 14.2921 137.212 14.0521 137.404 13.7161C138.076 12.2281 138.58 11.0761 138.916 10.2601C139.492 8.4361 140.308 7.2121 141.364 6.5881C142.42 5.8681 143.836 5.7241 145.612 6.1561C147.724 6.6361 148.948 7.5001 149.284 8.7481C149.62 9.9481 149.164 11.5321 147.916 13.5001C147.724 13.7881 147.436 14.2201 147.052 14.7961C146.764 15.2761 146.548 15.6121 146.404 15.8041H150.364C153.196 15.8041 154.612 17.2201 154.612 20.0521C154.612 22.8841 153.196 24.3001 150.364 24.3001H141.652C141.268 24.9241 140.74 25.8121 140.068 26.9641C139.54 27.8761 139.156 28.5481 138.916 28.9801H147.7C150.388 28.9801 151.732 30.3241 151.732 33.0121C151.732 35.7001 150.388 37.0441 147.7 37.0441H127.54V39.0601H144.82C147.268 39.0601 148.492 40.2841 148.492 42.7321C148.492 45.2281 147.268 46.4761 144.82 46.4761H127.54V48.4921H141.148H150.508C153.34 48.4921 154.756 49.9081 154.756 52.7401C154.756 55.5721 153.34 56.9881 150.508 56.9881H136.54C139.756 58.6201 143.62 60.0121 148.132 61.1641C151.012 61.7401 152.836 62.5801 153.604 63.6841C154.42 64.9801 154.036 66.7081 152.452 68.8681C150.724 71.2201 148.228 71.9401 144.964 71.0281C138.436 68.8681 132.628 65.7241 127.54 61.5961V67.9321C127.54 71.3401 125.836 73.0441 122.428 73.0441ZM116.308 28.9801H128.404C129.124 27.3961 129.724 25.8361 130.204 24.3001H122.716H115.3C115.78 25.2601 116.356 26.6041 117.028 28.3321C117.124 28.6681 116.956 28.8601 116.524 28.9081L116.308 28.9801ZM237.412 69.8041C235.924 72.0121 233.524 72.6121 230.212 71.6041C224.884 69.5881 220.492 66.5881 217.036 62.6041L217.18 65.7001C217.276 67.4281 216.46 68.4361 214.732 68.7241C213.532 68.9161 211.732 69.1801 209.332 69.5161C202.948 70.4281 198.316 71.0761 195.436 71.4601C193.9 71.7001 192.748 71.4841 191.98 70.8121C191.212 70.1881 190.708 69.0601 190.468 67.4281C189.988 64.2121 191.356 62.4361 194.572 62.1001C195.004 62.0521 195.7 61.9801 196.66 61.8841V52.8841H193.204C192.292 52.8841 191.548 52.6201 190.972 52.0921C190.444 51.5161 190.18 50.7721 190.18 49.8601V46.2601C189.268 55.2841 187.492 62.7001 184.852 68.5081C183.94 70.2361 182.932 71.2681 181.828 71.6041C180.772 71.9881 179.428 71.7001 177.796 70.7401C176.068 69.7321 175.06 68.5561 174.772 67.2121C174.484 65.9161 174.844 64.3561 175.852 62.5321C177.82 57.8761 179.164 52.1881 179.884 45.4681C180.364 41.0521 180.604 35.5801 180.604 29.0521V12.2041C180.604 10.8121 181.036 9.6841 181.9 8.8201C182.764 7.9561 183.892 7.5241 185.284 7.5241H208.684H232.084C233.476 7.5241 234.604 7.9561 235.468 8.8201C236.332 9.6841 236.764 10.8121 236.764 12.2041V23.6521C236.764 25.0441 236.332 26.1721 235.468 27.0361C234.604 27.9001 233.476 28.3321 232.084 28.3321H227.692V32.0041H232.66C235.54 32.0041 236.98 33.4441 236.98 36.3241C236.98 39.2041 235.54 40.6441 232.66 40.6441H227.692V44.1721H235.972C238.852 44.1721 240.292 45.6121 240.292 48.4921C240.292 51.4201 238.852 52.8841 235.972 52.8841H233.236L236.116 54.8281C236.884 55.3561 237.244 55.9321 237.196 56.5561C237.196 57.1321 236.812 57.6601 236.044 58.1401C234.46 59.1001 232.684 60.1081 230.716 61.1641C231.676 61.6441 232.732 62.1001 233.884 62.5321C236.332 63.1561 237.868 64.0201 238.492 65.1241C239.116 66.3241 238.756 67.8841 237.412 69.8041ZM206.092 60.7321C206.572 60.6361 207.292 60.5401 208.252 60.4441C209.212 60.3001 209.932 60.2041 210.412 60.1561C210.844 60.1081 211.492 60.0361 212.356 59.9401C213.364 59.7961 214.132 59.7001 214.66 59.6521C213.316 57.7801 212.068 55.5241 210.916 52.8841H206.092V60.7321ZM223.66 56.1961C224.092 55.9561 224.692 55.5721 225.46 55.0441C225.796 54.8041 226.036 54.6361 226.18 54.5401C226.516 54.3001 227.044 53.9401 227.764 53.4601C228.1 53.1721 228.364 52.9801 228.556 52.8841H220.852C221.716 54.1801 222.652 55.2841 223.66 56.1961ZM190.396 44.1721H200.044V40.6441H196.3C193.42 40.6441 191.98 39.2041 191.98 36.3241C191.98 33.4441 193.42 32.0041 196.3 32.0041H200.044V28.3321H191.044V29.0521C191.044 32.1721 190.996 34.5721 190.9 36.2521C190.804 39.1321 190.636 41.7721 190.396 44.1721ZM209.548 44.1721H213.796H218.116V40.6441H209.548V44.1721ZM209.548 32.0041H213.796H218.116V28.3321H209.548V32.0041ZM191.044 19.5481H208.612H226.252V16.3081H192.772C191.62 16.3081 191.044 16.8841 191.044 18.0361V19.5481Z"/>
</mask>
<path d="M37.18 73.0441C33.724 73.0441 31.996 71.3161 31.996 67.8601V66.4921H11.836C9.052 66.4921 7.66 65.1001 7.66 62.3161C7.66 59.5321 9.052 58.1401 11.836 58.1401H31.996V55.5481H13.204C10.468 55.5481 9.1 54.1801 9.1 51.4441C9.1 48.7081 10.468 47.3401 13.204 47.3401H15.508V43.8841H9.028C6.244 43.8841 4.852 42.4921 4.852 39.7081C4.852 36.9241 6.244 35.5321 9.028 35.5321H15.508V32.1481H12.7C11.98 32.1481 11.404 31.9321 10.972 31.5001C10.54 31.0681 10.324 30.4921 10.324 29.7721V12.3481C10.324 10.9561 10.756 9.8281 11.62 8.9641C12.484 8.1001 13.612 7.6681 15.004 7.6681H37.54H60.148C61.54 7.6681 62.668 8.1001 63.532 8.9641C64.396 9.8281 64.828 10.9561 64.828 12.3481V27.4681C64.828 28.8601 64.396 29.9881 63.532 30.8521C62.668 31.7161 61.54 32.1481 60.148 32.1481H59.428V35.5321H66.124C68.908 35.5321 70.3 36.9241 70.3 39.7081C70.3 42.4921 68.908 43.8841 66.124 43.8841H59.428V47.3401H62.452C65.188 47.3401 66.556 48.7081 66.556 51.4441C66.556 54.1801 65.188 55.5481 62.452 55.5481H42.364V58.1401H64.54C67.324 58.1401 68.716 59.5321 68.716 62.3161C68.716 65.1001 67.324 66.4921 64.54 66.4921H42.364V67.8601C42.364 71.3161 40.636 73.0441 37.18 73.0441ZM25.012 47.3401H31.996V43.8841H28.468H25.012V47.3401ZM42.364 47.3401H46.036H49.78V43.8841H42.364V47.3401ZM25.012 35.5321H31.996V32.1481H28.468H25.012V35.5321ZM42.364 35.5321H46.036H49.78V32.1481H42.364V35.5321ZM21.196 25.3801H31.996V23.0761H26.092H20.26V24.4441C20.26 25.0681 20.572 25.3801 21.196 25.3801ZM42.364 25.3801H48.34H54.316V23.0761H42.364V25.3801ZM20.26 16.7401H31.996V14.4361H26.092H21.988C20.836 14.4361 20.26 15.0121 20.26 16.1641V16.7401ZM42.364 16.7401H48.34H54.316V14.4361H42.364V16.7401ZM122.428 73.0441C119.02 73.0441 117.316 71.3401 117.316 67.9321V61.9561C111.988 65.8441 105.988 68.8921 99.316 71.1001C97.78 71.5321 96.484 71.6281 95.428 71.3881C94.324 71.1001 93.316 70.3561 92.404 69.1561C90.916 67.1881 90.508 65.6281 91.18 64.4761C91.804 63.3721 93.412 62.5321 96.004 61.9561C100.66 60.6601 104.932 59.0041 108.82 56.9881H94.78C91.948 56.9881 90.532 55.5721 90.532 52.7401C90.532 49.9081 91.948 48.4921 94.78 48.4921H117.316V46.4761H100.828C98.38 46.4761 97.156 45.2281 97.156 42.7321C97.156 40.2841 98.38 39.0601 100.828 39.0601H117.316V37.0441H97.66C94.972 37.0441 93.628 35.7001 93.628 33.0121C93.628 30.3241 94.972 28.9801 97.66 28.9801H106.084C105.844 28.2121 105.412 26.9881 104.788 25.3081C104.644 24.8281 104.524 24.4921 104.428 24.3001H94.924C92.092 24.3001 90.676 22.8841 90.676 20.0521C90.676 17.2201 92.092 15.8041 94.924 15.8041H99.244C98.668 14.2681 98.044 12.8521 97.372 11.5561C96.748 10.3561 96.628 9.3001 97.012 8.3881C97.396 7.4761 98.212 6.8041 99.46 6.3721L99.892 6.2281C101.284 5.7481 102.724 5.9881 104.212 6.9481C105.46 7.8121 106.492 9.0121 107.308 10.5481C107.836 11.6041 108.052 12.6121 107.956 13.5721C107.812 14.6761 107.26 15.3961 106.3 15.7321L106.156 15.8041H111.34V9.3241C111.34 6.1561 112.948 4.5721 116.164 4.5721C119.332 4.5721 120.916 6.1561 120.916 9.3241V15.8041H124.372V9.3961C124.372 6.1801 126.004 4.5721 129.268 4.5721C132.484 4.5721 134.092 6.1801 134.092 9.3961V15.8041H138.844L137.548 15.3721C136.972 15.2281 136.804 14.9161 137.044 14.4361C137.092 14.2921 137.212 14.0521 137.404 13.7161C138.076 12.2281 138.58 11.0761 138.916 10.2601C139.492 8.4361 140.308 7.2121 141.364 6.5881C142.42 5.8681 143.836 5.7241 145.612 6.1561C147.724 6.6361 148.948 7.5001 149.284 8.7481C149.62 9.9481 149.164 11.5321 147.916 13.5001C147.724 13.7881 147.436 14.2201 147.052 14.7961C146.764 15.2761 146.548 15.6121 146.404 15.8041H150.364C153.196 15.8041 154.612 17.2201 154.612 20.0521C154.612 22.8841 153.196 24.3001 150.364 24.3001H141.652C141.268 24.9241 140.74 25.8121 140.068 26.9641C139.54 27.8761 139.156 28.5481 138.916 28.9801H147.7C150.388 28.9801 151.732 30.3241 151.732 33.0121C151.732 35.7001 150.388 37.0441 147.7 37.0441H127.54V39.0601H144.82C147.268 39.0601 148.492 40.2841 148.492 42.7321C148.492 45.2281 147.268 46.4761 144.82 46.4761H127.54V48.4921H141.148H150.508C153.34 48.4921 154.756 49.9081 154.756 52.7401C154.756 55.5721 153.34 56.9881 150.508 56.9881H136.54C139.756 58.6201 143.62 60.0121 148.132 61.1641C151.012 61.7401 152.836 62.5801 153.604 63.6841C154.42 64.9801 154.036 66.7081 152.452 68.8681C150.724 71.2201 148.228 71.9401 144.964 71.0281C138.436 68.8681 132.628 65.7241 127.54 61.5961V67.9321C127.54 71.3401 125.836 73.0441 122.428 73.0441ZM116.308 28.9801H128.404C129.124 27.3961 129.724 25.8361 130.204 24.3001H122.716H115.3C115.78 25.2601 116.356 26.6041 117.028 28.3321C117.124 28.6681 116.956 28.8601 116.524 28.9081L116.308 28.9801ZM237.412 69.8041C235.924 72.0121 233.524 72.6121 230.212 71.6041C224.884 69.5881 220.492 66.5881 217.036 62.6041L217.18 65.7001C217.276 67.4281 216.46 68.4361 214.732 68.7241C213.532 68.9161 211.732 69.1801 209.332 69.5161C202.948 70.4281 198.316 71.0761 195.436 71.4601C193.9 71.7001 192.748 71.4841 191.98 70.8121C191.212 70.1881 190.708 69.0601 190.468 67.4281C189.988 64.2121 191.356 62.4361 194.572 62.1001C195.004 62.0521 195.7 61.9801 196.66 61.8841V52.8841H193.204C192.292 52.8841 191.548 52.6201 190.972 52.0921C190.444 51.5161 190.18 50.7721 190.18 49.8601V46.2601C189.268 55.2841 187.492 62.7001 184.852 68.5081C183.94 70.2361 182.932 71.2681 181.828 71.6041C180.772 71.9881 179.428 71.7001 177.796 70.7401C176.068 69.7321 175.06 68.5561 174.772 67.2121C174.484 65.9161 174.844 64.3561 175.852 62.5321C177.82 57.8761 179.164 52.1881 179.884 45.4681C180.364 41.0521 180.604 35.5801 180.604 29.0521V12.2041C180.604 10.8121 181.036 9.6841 181.9 8.8201C182.764 7.9561 183.892 7.5241 185.284 7.5241H208.684H232.084C233.476 7.5241 234.604 7.9561 235.468 8.8201C236.332 9.6841 236.764 10.8121 236.764 12.2041V23.6521C236.764 25.0441 236.332 26.1721 235.468 27.0361C234.604 27.9001 233.476 28.3321 232.084 28.3321H227.692V32.0041H232.66C235.54 32.0041 236.98 33.4441 236.98 36.3241C236.98 39.2041 235.54 40.6441 232.66 40.6441H227.692V44.1721H235.972C238.852 44.1721 240.292 45.6121 240.292 48.4921C240.292 51.4201 238.852 52.8841 235.972 52.8841H233.236L236.116 54.8281C236.884 55.3561 237.244 55.9321 237.196 56.5561C237.196 57.1321 236.812 57.6601 236.044 58.1401C234.46 59.1001 232.684 60.1081 230.716 61.1641C231.676 61.6441 232.732 62.1001 233.884 62.5321C236.332 63.1561 237.868 64.0201 238.492 65.1241C239.116 66.3241 238.756 67.8841 237.412 69.8041ZM206.092 60.7321C206.572 60.6361 207.292 60.5401 208.252 60.4441C209.212 60.3001 209.932 60.2041 210.412 60.1561C210.844 60.1081 211.492 60.0361 212.356 59.9401C213.364 59.7961 214.132 59.7001 214.66 59.6521C213.316 57.7801 212.068 55.5241 210.916 52.8841H206.092V60.7321ZM223.66 56.1961C224.092 55.9561 224.692 55.5721 225.46 55.0441C225.796 54.8041 226.036 54.6361 226.18 54.5401C226.516 54.3001 227.044 53.9401 227.764 53.4601C228.1 53.1721 228.364 52.9801 228.556 52.8841H220.852C221.716 54.1801 222.652 55.2841 223.66 56.1961ZM190.396 44.1721H200.044V40.6441H196.3C193.42 40.6441 191.98 39.2041 191.98 36.3241C191.98 33.4441 193.42 32.0041 196.3 32.0041H200.044V28.3321H191.044V29.0521C191.044 32.1721 190.996 34.5721 190.9 36.2521C190.804 39.1321 190.636 41.7721 190.396 44.1721ZM209.548 44.1721H213.796H218.116V40.6441H209.548V44.1721ZM209.548 32.0041H213.796H218.116V28.3321H209.548V32.0041ZM191.044 19.5481H208.612H226.252V16.3081H192.772C191.62 16.3081 191.044 16.8841 191.044 18.0361V19.5481Z" fill="white"/>
<path d="M31.996 66.4921H35.996V62.4921H31.996V66.4921ZM31.996 58.1401V62.1401H35.996V58.1401H31.996ZM31.996 55.5481H35.996V51.5481H31.996V55.5481ZM15.508 47.3401V51.3401H19.508V47.3401H15.508ZM15.508 43.8841H19.508V39.8841H15.508V43.8841ZM15.508 35.5321V39.5321H19.508V35.5321H15.508ZM15.508 32.1481H19.508V28.1481H15.508V32.1481ZM10.972 31.5001L13.8004 28.6717L13.8004 28.6717L10.972 31.5001ZM11.62 8.9641L8.79157 6.13567L8.79157 6.13567L11.62 8.9641ZM63.532 30.8521L60.7036 28.0237V28.0237L63.532 30.8521ZM59.428 32.1481V28.1481H55.428V32.1481H59.428ZM59.428 35.5321H55.428V39.5321H59.428V35.5321ZM59.428 43.8841V39.8841H55.428V43.8841H59.428ZM59.428 47.3401H55.428V51.3401H59.428V47.3401ZM42.364 55.5481V51.5481H38.364V55.5481H42.364ZM42.364 58.1401H38.364V62.1401H42.364V58.1401ZM42.364 66.4921V62.4921H38.364V66.4921H42.364ZM25.012 47.3401H21.012V51.3401H25.012V47.3401ZM31.996 47.3401V51.3401H35.996V47.3401H31.996ZM31.996 43.8841H35.996V39.8841H31.996V43.8841ZM25.012 43.8841V39.8841H21.012V43.8841H25.012ZM42.364 47.3401H38.364V51.3401H42.364V47.3401ZM49.78 47.3401V51.3401H53.78V47.3401H49.78ZM49.78 43.8841H53.78V39.8841H49.78V43.8841ZM42.364 43.8841V39.8841H38.364V43.8841H42.364ZM25.012 35.5321H21.012V39.5321H25.012V35.5321ZM31.996 35.5321V39.5321H35.996V35.5321H31.996ZM31.996 32.1481H35.996V28.1481H31.996V32.1481ZM25.012 32.1481V28.1481H21.012V32.1481H25.012ZM42.364 35.5321H38.364V39.5321H42.364V35.5321ZM49.78 35.5321V39.5321H53.78V35.5321H49.78ZM49.78 32.1481H53.78V28.1481H49.78V32.1481ZM42.364 32.1481V28.1481H38.364V32.1481H42.364ZM31.996 25.3801V29.3801H35.996V25.3801H31.996ZM31.996 23.0761H35.996V19.0761H31.996V23.0761ZM20.26 23.0761V19.0761H16.26V23.0761H20.26ZM42.364 25.3801H38.364V29.3801H42.364V25.3801ZM54.316 25.3801V29.3801H58.316V25.3801H54.316ZM54.316 23.0761H58.316V19.0761H54.316V23.0761ZM42.364 23.0761V19.0761H38.364V23.0761H42.364ZM20.26 16.7401H16.26V20.7401H20.26V16.7401ZM31.996 16.7401V20.7401H35.996V16.7401H31.996ZM31.996 14.4361H35.996V10.4361H31.996V14.4361ZM42.364 16.7401H38.364V20.7401H42.364V16.7401ZM54.316 16.7401V20.7401H58.316V16.7401H54.316ZM54.316 14.4361H58.316V10.4361H54.316V14.4361ZM42.364 14.4361V10.4361H38.364V14.4361H42.364ZM37.18 69.0441C36.0686 69.0441 35.9697 68.769 36.1204 68.9197C36.2711 69.0704 35.996 68.9715 35.996 67.8601H27.996C27.996 70.2047 28.5849 72.6978 30.4636 74.5765C32.3423 76.4552 34.8354 77.0441 37.18 77.0441V69.0441ZM35.996 67.8601V66.4921H27.996V67.8601H35.996ZM31.996 62.4921H11.836V70.4921H31.996V62.4921ZM11.836 62.4921C11.6531 62.4921 11.5176 62.4806 11.4229 62.4671C11.3286 62.4536 11.2824 62.4392 11.2739 62.4364C11.2666 62.4339 11.2964 62.4432 11.3492 62.4749C11.4035 62.5074 11.4681 62.5554 11.5324 62.6197C11.5967 62.684 11.6447 62.7486 11.6772 62.8029C11.7089 62.8557 11.7182 62.8855 11.7157 62.8782C11.7129 62.8697 11.6985 62.8235 11.685 62.7292C11.6715 62.6345 11.66 62.499 11.66 62.3161H3.66C3.66 64.3247 4.16486 66.5658 5.87557 68.2765C7.58629 69.9873 9.82742 70.4921 11.836 70.4921V62.4921ZM11.66 62.3161C11.66 62.1332 11.6715 61.9977 11.685 61.903C11.6985 61.8087 11.7129 61.7625 11.7157 61.754C11.7182 61.7467 11.7089 61.7765 11.6772 61.8293C11.6447 61.8836 11.5967 61.9482 11.5324 62.0125C11.4681 62.0768 11.4035 62.1248 11.3492 62.1573C11.2964 62.189 11.2666 62.1983 11.2739 62.1958C11.2824 62.193 11.3286 62.1786 11.4229 62.1651C11.5176 62.1516 11.6531 62.1401 11.836 62.1401V54.1401C9.82742 54.1401 7.58629 54.645 5.87557 56.3557C4.16486 58.0664 3.66 60.3075 3.66 62.3161H11.66ZM11.836 62.1401H31.996V54.1401H11.836V62.1401ZM35.996 58.1401V55.5481H27.996V58.1401H35.996ZM31.996 51.5481H13.204V59.5481H31.996V51.5481ZM13.204 51.5481C13.0271 51.5481 12.8972 51.5369 12.8078 51.5242C12.7187 51.5115 12.6774 51.4982 12.6734 51.4969C12.6706 51.4959 12.7045 51.507 12.7611 51.541C12.8191 51.5758 12.8871 51.6264 12.9544 51.6937C13.0217 51.761 13.0723 51.829 13.1071 51.887C13.1411 51.9436 13.1522 51.9775 13.1512 51.9747C13.1499 51.9707 13.1366 51.9294 13.1239 51.8403C13.1112 51.7509 13.1 51.621 13.1 51.4441H5.1C5.1 53.4287 5.59886 55.6518 7.29757 57.3505C8.99629 59.0492 11.2194 59.5481 13.204 59.5481V51.5481ZM13.1 51.4441C13.1 51.2672 13.1112 51.1373 13.1239 51.0479C13.1366 50.9588 13.1499 50.9175 13.1512 50.9135C13.1522 50.9107 13.1411 50.9446 13.1071 51.0012C13.0723 51.0592 13.0217 51.1272 12.9544 51.1945C12.8871 51.2618 12.8191 51.3124 12.7611 51.3472C12.7045 51.3812 12.6706 51.3923 12.6734 51.3913C12.6774 51.39 12.7187 51.3767 12.8078 51.364C12.8972 51.3512 13.0271 51.3401 13.204 51.3401V43.3401C11.2194 43.3401 8.99629 43.839 7.29757 45.5377C5.59886 47.2364 5.1 49.4595 5.1 51.4441H13.1ZM13.204 51.3401H15.508V43.3401H13.204V51.3401ZM19.508 47.3401V43.8841H11.508V47.3401H19.508ZM15.508 39.8841H9.028V47.8841H15.508V39.8841ZM9.028 39.8841C8.84513 39.8841 8.70959 39.8726 8.61494 39.8591C8.52061 39.8456 8.47444 39.8312 8.46591 39.8284C8.45864 39.8259 8.48838 39.8352 8.54123 39.8669C8.59551 39.8994 8.66014 39.9474 8.72443 40.0117C8.78872 40.076 8.83666 40.1406 8.86922 40.1949C8.90093 40.2477 8.91016 40.2775 8.90773 40.2702C8.90489 40.2617 8.89052 40.2155 8.87705 40.1212C8.86353 40.0265 8.852 39.891 8.852 39.7081H0.852001C0.852001 41.7167 1.35685 43.9578 3.06757 45.6685C4.77829 47.3792 7.01942 47.8841 9.028 47.8841V39.8841ZM8.852 39.7081C8.852 39.5252 8.86353 39.3897 8.87705 39.295C8.89052 39.2007 8.90489 39.1545 8.90773 39.146C8.91016 39.1387 8.90093 39.1685 8.86922 39.2213C8.83666 39.2756 8.78872 39.3402 8.72443 39.4045C8.66014 39.4688 8.59551 39.5168 8.54123 39.5493C8.48838 39.581 8.45864 39.5903 8.46591 39.5878C8.47444 39.585 8.52061 39.5706 8.61494 39.5571C8.70959 39.5436 8.84513 39.5321 9.028 39.5321V31.5321C7.01942 31.5321 4.77829 32.037 3.06757 33.7477C1.35686 35.4584 0.852001 37.6995 0.852001 39.7081H8.852ZM9.028 39.5321H15.508V31.5321H9.028V39.5321ZM19.508 35.5321V32.1481H11.508V35.5321H19.508ZM15.508 28.1481H12.7V36.1481H15.508V28.1481ZM12.7 28.1481C12.7395 28.1481 12.902 28.1543 13.1325 28.2408C13.3753 28.3318 13.6098 28.481 13.8004 28.6717L8.14357 34.3285C9.45851 35.6435 11.123 36.1481 12.7 36.1481V28.1481ZM13.8004 28.6717C13.9911 28.8623 14.1403 29.0968 14.2313 29.3396C14.3178 29.5701 14.324 29.7326 14.324 29.7721H6.324C6.324 31.3491 6.82863 33.0136 8.14357 34.3285L13.8004 28.6717ZM14.324 29.7721V12.3481H6.324V29.7721H14.324ZM14.324 12.3481C14.324 12.0676 14.3668 11.932 14.3834 11.8887C14.3962 11.8554 14.4088 11.8322 14.4484 11.7925L8.79157 6.13567C7.071 7.85624 6.324 10.0559 6.324 12.3481H14.324ZM14.4484 11.7925C14.4881 11.7529 14.5113 11.7403 14.5446 11.7275C14.5879 11.7109 14.7235 11.6681 15.004 11.6681V3.6681C12.7118 3.6681 10.5121 4.4151 8.79157 6.13567L14.4484 11.7925ZM15.004 11.6681H37.54V3.6681H15.004V11.6681ZM37.54 11.6681H60.148V3.6681H37.54V11.6681ZM60.148 11.6681C60.4285 11.6681 60.5641 11.7109 60.6074 11.7275C60.6407 11.7403 60.6639 11.7529 60.7036 11.7925L66.3604 6.13567C64.6399 4.4151 62.4402 3.6681 60.148 3.6681V11.6681ZM60.7036 11.7925C60.7432 11.8322 60.7558 11.8554 60.7686 11.8887C60.7852 11.932 60.828 12.0676 60.828 12.3481H68.828C68.828 10.0559 68.081 7.85624 66.3604 6.13567L60.7036 11.7925ZM60.828 12.3481V27.4681H68.828V12.3481H60.828ZM60.828 27.4681C60.828 27.7486 60.7852 27.8842 60.7686 27.9275C60.7558 27.9608 60.7432 27.984 60.7036 28.0237L66.3604 33.6805C68.081 31.96 68.828 29.7603 68.828 27.4681H60.828ZM60.7036 28.0237C60.6639 28.0633 60.6407 28.0759 60.6074 28.0887C60.5641 28.1053 60.4285 28.1481 60.148 28.1481V36.1481C62.4402 36.1481 64.6399 35.4011 66.3604 33.6805L60.7036 28.0237ZM60.148 28.1481H59.428V36.1481H60.148V28.1481ZM55.428 32.1481V35.5321H63.428V32.1481H55.428ZM59.428 39.5321H66.124V31.5321H59.428V39.5321ZM66.124 39.5321C66.3069 39.5321 66.4424 39.5436 66.5371 39.5571C66.6314 39.5706 66.6776 39.585 66.6861 39.5878C66.6934 39.5903 66.6636 39.581 66.6108 39.5493C66.5565 39.5168 66.4919 39.4688 66.4276 39.4045C66.3633 39.3402 66.3154 39.2756 66.2828 39.2213C66.2511 39.1685 66.2418 39.1387 66.2443 39.146C66.2471 39.1545 66.2615 39.2007 66.275 39.295C66.2885 39.3897 66.3 39.5252 66.3 39.7081H74.3C74.3 37.6995 73.7952 35.4584 72.0844 33.7477C70.3737 32.037 68.1326 31.5321 66.124 31.5321V39.5321ZM66.3 39.7081C66.3 39.891 66.2885 40.0265 66.275 40.1212C66.2615 40.2155 66.2471 40.2617 66.2443 40.2702C66.2418 40.2775 66.2511 40.2477 66.2828 40.1949C66.3153 40.1406 66.3633 40.076 66.4276 40.0117C66.4919 39.9474 66.5565 39.8994 66.6108 39.8669C66.6636 39.8352 66.6934 39.8259 66.6861 39.8284C66.6776 39.8312 66.6314 39.8456 66.5371 39.8591C66.4424 39.8726 66.3069 39.8841 66.124 39.8841V47.8841C68.1326 47.8841 70.3737 47.3792 72.0844 45.6685C73.7952 43.9578 74.3 41.7167 74.3 39.7081H66.3ZM66.124 39.8841H59.428V47.8841H66.124V39.8841ZM55.428 43.8841V47.3401H63.428V43.8841H55.428ZM59.428 51.3401H62.452V43.3401H59.428V51.3401ZM62.452 51.3401C62.6289 51.3401 62.7588 51.3512 62.8482 51.364C62.9373 51.3767 62.9786 51.39 62.9826 51.3913C62.9854 51.3923 62.9515 51.3812 62.8949 51.3472C62.8369 51.3124 62.7689 51.2618 62.7016 51.1945C62.6343 51.1272 62.5837 51.0592 62.5489 51.0012C62.5149 50.9446 62.5038 50.9107 62.5048 50.9135C62.5061 50.9175 62.5194 50.9588 62.5321 51.0479C62.5449 51.1373 62.556 51.2672 62.556 51.4441H70.556C70.556 49.4595 70.0572 47.2364 68.3584 45.5377C66.6597 43.839 64.4366 43.3401 62.452 43.3401V51.3401ZM62.556 51.4441C62.556 51.621 62.5449 51.7509 62.5321 51.8403C62.5194 51.9294 62.5061 51.9707 62.5048 51.9747C62.5038 51.9775 62.5149 51.9436 62.5489 51.887C62.5837 51.829 62.6343 51.761 62.7016 51.6937C62.7689 51.6264 62.8369 51.5758 62.8949 51.541C62.9515 51.507 62.9854 51.4959 62.9826 51.4969C62.9786 51.4982 62.9373 51.5115 62.8482 51.5242C62.7588 51.5369 62.6289 51.5481 62.452 51.5481V59.5481C64.4366 59.5481 66.6597 59.0492 68.3584 57.3505C70.0572 55.6518 70.556 53.4287 70.556 51.4441H62.556ZM62.452 51.5481H42.364V59.5481H62.452V51.5481ZM38.364 55.5481V58.1401H46.364V55.5481H38.364ZM42.364 62.1401H64.54V54.1401H42.364V62.1401ZM64.54 62.1401C64.7229 62.1401 64.8584 62.1516 64.9531 62.1651C65.0474 62.1786 65.0936 62.193 65.1021 62.1958C65.1094 62.1983 65.0796 62.189 65.0268 62.1573C64.9725 62.1248 64.9079 62.0768 64.8436 62.0125C64.7793 61.9482 64.7313 61.8836 64.6988 61.8293C64.6671 61.7765 64.6578 61.7467 64.6603 61.754C64.6631 61.7625 64.6775 61.8087 64.691 61.903C64.7045 61.9977 64.716 62.1332 64.716 62.3161H72.716C72.716 60.3075 72.2112 58.0664 70.5004 56.3557C68.7897 54.645 66.5486 54.1401 64.54 54.1401V62.1401ZM64.716 62.3161C64.716 62.499 64.7045 62.6345 64.691 62.7292C64.6775 62.8235 64.6631 62.8697 64.6603 62.8782C64.6578 62.8855 64.6671 62.8557 64.6988 62.8029C64.7313 62.7486 64.7793 62.684 64.8436 62.6197C64.9079 62.5554 64.9725 62.5074 65.0268 62.4749C65.0796 62.4432 65.1094 62.4339 65.1021 62.4364C65.0936 62.4392 65.0474 62.4536 64.9531 62.4671C64.8584 62.4806 64.7229 62.4921 64.54 62.4921V70.4921C66.5486 70.4921 68.7897 69.9872 70.5004 68.2765C72.2112 66.5658 72.716 64.3247 72.716 62.3161H64.716ZM64.54 62.4921H42.364V70.4921H64.54V62.4921ZM38.364 66.4921V67.8601H46.364V66.4921H38.364ZM38.364 67.8601C38.364 68.9715 38.0889 69.0704 38.2396 68.9197C38.3903 68.769 38.2914 69.0441 37.18 69.0441V77.0441C39.5246 77.0441 42.0177 76.4552 43.8964 74.5765C45.7752 72.6978 46.364 70.2047 46.364 67.8601H38.364ZM25.012 51.3401H31.996V43.3401H25.012V51.3401ZM35.996 47.3401V43.8841H27.996V47.3401H35.996ZM31.996 39.8841H28.468V47.8841H31.996V39.8841ZM28.468 39.8841H25.012V47.8841H28.468V39.8841ZM21.012 43.8841V47.3401H29.012V43.8841H21.012ZM42.364 51.3401H46.036V43.3401H42.364V51.3401ZM46.036 51.3401H49.78V43.3401H46.036V51.3401ZM53.78 47.3401V43.8841H45.78V47.3401H53.78ZM49.78 39.8841H42.364V47.8841H49.78V39.8841ZM38.364 43.8841V47.3401H46.364V43.8841H38.364ZM25.012 39.5321H31.996V31.5321H25.012V39.5321ZM35.996 35.5321V32.1481H27.996V35.5321H35.996ZM31.996 28.1481H28.468V36.1481H31.996V28.1481ZM28.468 28.1481H25.012V36.1481H28.468V28.1481ZM21.012 32.1481V35.5321H29.012V32.1481H21.012ZM42.364 39.5321H46.036V31.5321H42.364V39.5321ZM46.036 39.5321H49.78V31.5321H46.036V39.5321ZM53.78 35.5321V32.1481H45.78V35.5321H53.78ZM49.78 28.1481H42.364V36.1481H49.78V28.1481ZM38.364 32.1481V35.5321H46.364V32.1481H38.364ZM21.196 29.3801H31.996V21.3801H21.196V29.3801ZM35.996 25.3801V23.0761H27.996V25.3801H35.996ZM31.996 19.0761H26.092V27.0761H31.996V19.0761ZM26.092 19.0761H20.26V27.0761H26.092V19.0761ZM16.26 23.0761V24.4441H24.26V23.0761H16.26ZM16.26 24.4441C16.26 25.3727 16.4949 26.8038 17.6656 27.9745C18.8363 29.1452 20.2674 29.3801 21.196 29.3801V21.3801C21.5006 21.3801 22.4637 21.459 23.3224 22.3177C24.1812 23.1764 24.26 24.1395 24.26 24.4441H16.26ZM42.364 29.3801H48.34V21.3801H42.364V29.3801ZM48.34 29.3801H54.316V21.3801H48.34V29.3801ZM58.316 25.3801V23.0761H50.316V25.3801H58.316ZM54.316 19.0761H42.364V27.0761H54.316V19.0761ZM38.364 23.0761V25.3801H46.364V23.0761H38.364ZM20.26 20.7401H31.996V12.7401H20.26V20.7401ZM35.996 16.7401V14.4361H27.996V16.7401H35.996ZM31.996 10.4361H26.092V18.4361H31.996V10.4361ZM26.092 10.4361H21.988V18.4361H26.092V10.4361ZM21.988 10.4361C20.7954 10.4361 19.1663 10.737 17.8636 12.0397C16.5609 13.3424 16.26 14.9715 16.26 16.1641H24.26C24.26 16.2047 24.2471 16.9698 23.5204 17.6965C22.7937 18.4232 22.0286 18.4361 21.988 18.4361V10.4361ZM16.26 16.1641V16.7401H24.26V16.1641H16.26ZM42.364 20.7401H48.34V12.7401H42.364V20.7401ZM48.34 20.7401H54.316V12.7401H48.34V20.7401ZM58.316 16.7401V14.4361H50.316V16.7401H58.316ZM54.316 10.4361H42.364V18.4361H54.316V10.4361ZM38.364 14.4361V16.7401H46.364V14.4361H38.364ZM117.316 61.9561H121.316V54.0854L114.958 58.7249L117.316 61.9561ZM99.316 71.1001L100.399 74.9507L100.486 74.9261L100.573 74.8976L99.316 71.1001ZM95.428 71.3881L94.4183 75.2586L94.4797 75.2746L94.5415 75.2886L95.428 71.3881ZM92.404 69.1561L89.2134 71.5685L89.2194 71.5764L92.404 69.1561ZM91.18 64.4761L94.6351 66.4916L94.6488 66.4681L94.6623 66.4443L91.18 64.4761ZM96.004 61.9561L96.8717 65.8609L96.9748 65.8379L97.0766 65.8096L96.004 61.9561ZM108.82 56.9881L110.661 60.5391L108.82 52.9881V56.9881ZM117.316 48.4921V52.4921H121.316V48.4921H117.316ZM117.316 46.4761H121.316V42.4761H117.316V46.4761ZM117.316 39.0601V43.0601H121.316V39.0601H117.316ZM117.316 37.0441H121.316V33.0441H117.316V37.0441ZM106.084 28.9801V32.9801H111.525L109.902 27.787L106.084 28.9801ZM104.788 25.3081L100.957 26.4575L100.994 26.5805L101.038 26.7008L104.788 25.3081ZM104.428 24.3001L108.006 22.5112L106.9 20.3001H104.428V24.3001ZM99.244 15.8041V19.8041H105.016L102.989 14.3996L99.244 15.8041ZM97.372 11.5561L100.923 9.71483L100.921 9.71069L97.372 11.5561ZM99.46 6.3721L98.1951 2.57737L98.1733 2.58464L98.1516 2.59216L99.46 6.3721ZM99.892 6.2281L101.157 10.0228L101.176 10.0163L101.196 10.0096L99.892 6.2281ZM104.212 6.9481L106.489 3.65933L106.435 3.62224L106.381 3.58692L104.212 6.9481ZM107.308 10.5481L110.886 8.75924L110.864 8.71508L110.84 8.67148L107.308 10.5481ZM107.956 13.5721L111.922 14.0895L111.93 14.0299L111.936 13.9701L107.956 13.5721ZM106.3 15.7321L104.979 11.9567L104.739 12.0407L104.511 12.1544L106.3 15.7321ZM106.156 15.8041L104.367 12.2264L106.156 19.8041V15.8041ZM111.34 15.8041V19.8041H115.34V15.8041H111.34ZM120.916 15.8041H116.916V19.8041H120.916V15.8041ZM124.372 15.8041V19.8041H128.372V15.8041H124.372ZM134.092 15.8041H130.092V19.8041H134.092V15.8041ZM138.844 15.8041V19.8041L140.109 12.0094L138.844 15.8041ZM137.548 15.3721L138.813 11.5774L138.667 11.5288L138.518 11.4915L137.548 15.3721ZM137.044 14.4361L140.622 16.225L140.749 15.9707L140.839 15.701L137.044 14.4361ZM137.404 13.7161L140.877 15.7007L140.971 15.5357L141.049 15.3624L137.404 13.7161ZM138.916 10.2601L142.615 11.7831L142.679 11.6263L142.73 11.4646L138.916 10.2601ZM141.364 6.5881L143.399 10.0318L143.51 9.96594L143.617 9.89301L141.364 6.5881ZM145.612 6.1561L144.667 10.0428L144.696 10.0499L144.726 10.0566L145.612 6.1561ZM149.284 8.7481L145.422 9.78799L145.427 9.80733L145.432 9.82662L149.284 8.7481ZM147.916 13.5001L151.244 15.7189L151.27 15.6809L151.294 15.6423L147.916 13.5001ZM147.052 14.7961L143.724 12.5773L143.671 12.6565L143.622 12.7381L147.052 14.7961ZM146.404 15.8041L143.204 13.4041L138.404 19.8041H146.404V15.8041ZM141.652 24.3001V20.3001H139.417L138.245 22.2037L141.652 24.3001ZM140.068 26.9641L136.613 24.9486L136.606 24.96L140.068 26.9641ZM138.916 28.9801L135.419 27.0375L132.118 32.9801H138.916V28.9801ZM127.54 37.0441V33.0441H123.54V37.0441H127.54ZM127.54 39.0601H123.54V43.0601H127.54V39.0601ZM127.54 46.4761V42.4761H123.54V46.4761H127.54ZM127.54 48.4921H123.54V52.4921H127.54V48.4921ZM136.54 56.9881V52.9881L134.73 60.5551L136.54 56.9881ZM148.132 61.1641L147.142 65.0398L147.244 65.0658L147.348 65.0864L148.132 61.1641ZM153.604 63.6841L156.989 61.5528L156.94 61.4752L156.888 61.3998L153.604 63.6841ZM152.452 68.8681L155.676 71.2364L155.678 71.2336L152.452 68.8681ZM144.964 71.0281L143.707 74.8256L143.797 74.8552L143.888 74.8805L144.964 71.0281ZM127.54 61.5961L130.06 58.4899L123.54 53.1999V61.5961H127.54ZM116.308 28.9801L115.043 25.1854L116.308 32.9801V28.9801ZM128.404 28.9801V32.9801H130.98L132.045 30.6353L128.404 28.9801ZM130.204 24.3001L134.022 25.4932L135.645 20.3001H130.204V24.3001ZM115.3 24.3001V20.3001H108.828L111.722 26.089L115.3 24.3001ZM117.028 28.3321L120.874 27.2332L120.823 27.055L120.756 26.8823L117.028 28.3321ZM116.524 28.9081L116.082 24.9326L115.661 24.9794L115.259 25.1134L116.524 28.9081ZM122.428 69.0441C121.341 69.0441 121.26 68.775 121.422 68.9377C121.585 69.1004 121.316 69.0195 121.316 67.9321H113.316C113.316 70.2527 113.899 72.7278 115.766 74.5945C117.632 76.4613 120.107 77.0441 122.428 77.0441V69.0441ZM121.316 67.9321V61.9561H113.316V67.9321H121.316ZM114.958 58.7249C109.987 62.3526 104.363 65.2165 98.0593 67.3026L100.573 74.8976C107.613 72.5677 113.989 69.3356 119.674 65.1873L114.958 58.7249ZM98.233 67.2495C97.0572 67.5802 96.4844 67.5262 96.3145 67.4876L94.5415 75.2886C96.4836 75.73 98.5028 75.484 100.399 74.9507L98.233 67.2495ZM96.4377 67.5176C96.4245 67.5142 96.3541 67.4952 96.2194 67.3958C96.0765 67.2903 95.8594 67.092 95.5886 66.7358L89.2194 71.5764C90.4991 73.2603 92.2046 74.6811 94.4183 75.2586L96.4377 67.5176ZM95.5946 66.7437C95.3195 66.3798 95.1342 66.0869 95.0139 65.8631C94.8924 65.637 94.8571 65.5183 94.8518 65.498C94.8478 65.4825 94.8799 65.5963 94.8597 65.8041C94.838 66.0266 94.7642 66.2703 94.6351 66.4916L87.7249 62.4606C85.7032 65.9263 87.6165 69.4565 89.2134 71.5685L95.5946 66.7437ZM94.6623 66.4443C94.464 66.7952 94.3056 66.7727 94.7061 66.5635C95.0918 66.362 95.7754 66.1045 96.8717 65.8609L95.1363 58.0514C93.6406 58.3837 92.2242 58.8342 91.0019 59.4727C89.7944 60.1035 88.5201 61.053 87.6977 62.5079L94.6623 66.4443ZM97.0766 65.8096C101.972 64.4471 106.504 62.6945 110.661 60.5391L106.979 53.4371C103.36 55.3137 99.3484 56.8731 94.9314 58.1026L97.0766 65.8096ZM108.82 52.9881H94.78V60.9881H108.82V52.9881ZM94.78 52.9881C94.3934 52.9881 94.218 52.9384 94.1864 52.9279C94.1746 52.9239 94.2003 52.9313 94.2494 52.9608C94.2999 52.9911 94.3611 53.0364 94.4224 53.0977C94.4837 53.159 94.529 53.2202 94.5593 53.2707C94.5888 53.3198 94.5962 53.3455 94.5922 53.3337C94.5817 53.3021 94.532 53.1267 94.532 52.7401H86.532C86.532 54.7727 87.0429 57.0318 88.7656 58.7545C90.4883 60.4772 92.7474 60.9881 94.78 60.9881V52.9881ZM94.532 52.7401C94.532 52.3535 94.5817 52.1781 94.5922 52.1465C94.5962 52.1347 94.5888 52.1604 94.5593 52.2095C94.529 52.26 94.4837 52.3212 94.4224 52.3825C94.3611 52.4438 94.2999 52.4891 94.2494 52.5194C94.2003 52.5489 94.1746 52.5563 94.1864 52.5523C94.218 52.5418 94.3934 52.4921 94.78 52.4921V44.4921C92.7474 44.4921 90.4883 45.003 88.7656 46.7257C87.0429 48.4484 86.532 50.7075 86.532 52.7401H94.532ZM94.78 52.4921H117.316V44.4921H94.78V52.4921ZM121.316 48.4921V46.4761H113.316V48.4921H121.316ZM117.316 42.4761H100.828V50.4761H117.316V42.4761ZM100.828 42.4761C100.544 42.4761 100.461 42.4386 100.509 42.4549C100.537 42.4643 100.598 42.4884 100.678 42.5375C100.759 42.5874 100.847 42.6547 100.93 42.7393C101.013 42.8237 101.075 42.9094 101.12 42.9849C101.163 43.059 101.182 43.111 101.187 43.1271C101.195 43.1511 101.156 43.0413 101.156 42.7321H93.156C93.156 44.5774 93.6086 46.6998 95.2182 48.3409C96.8419 49.9965 98.9675 50.4761 100.828 50.4761V42.4761ZM101.156 42.7321C101.156 42.4415 101.194 42.3501 101.18 42.3905C101.172 42.4147 101.15 42.4734 101.102 42.5525C101.054 42.633 100.988 42.7212 100.902 42.8065C100.817 42.8918 100.729 42.9581 100.648 43.0064C100.569 43.0539 100.511 43.0763 100.486 43.0843C100.446 43.0978 100.537 43.0601 100.828 43.0601V35.0601C98.9874 35.0601 96.8723 35.523 95.2456 37.1497C93.6189 38.7764 93.156 40.8915 93.156 42.7321H101.156ZM100.828 43.0601H117.316V35.0601H100.828V43.0601ZM121.316 39.0601V37.0441H113.316V39.0601H121.316ZM117.316 33.0441H97.66V41.0441H117.316V33.0441ZM97.66 33.0441C97.4891 33.0441 97.3648 33.0333 97.2807 33.0213C97.1969 33.0093 97.1604 32.9972 97.1609 32.9974C97.1626 32.9979 97.2006 33.0109 97.261 33.0471C97.2908 33.065 97.3242 33.0874 97.3595 33.1149C97.3949 33.1425 97.4302 33.1735 97.4644 33.2077C97.4986 33.2419 97.5296 33.2772 97.5572 33.3126C97.5847 33.3479 97.6071 33.3813 97.625 33.4111C97.6612 33.4715 97.6742 33.5095 97.6747 33.5112C97.6749 33.5117 97.6628 33.4752 97.6508 33.3914C97.6388 33.3073 97.628 33.183 97.628 33.0121H89.628C89.628 34.9727 90.1209 37.1778 91.8076 38.8645C93.4943 40.5512 95.6994 41.0441 97.66 41.0441V33.0441ZM97.628 33.0121C97.628 32.8412 97.6388 32.7169 97.6508 32.6328C97.6628 32.549 97.6749 32.5125 97.6747 32.513C97.6742 32.5147 97.6612 32.5527 97.625 32.6131C97.6071 32.6429 97.5847 32.6763 97.5572 32.7116C97.5296 32.747 97.4986 32.7823 97.4644 32.8165C97.4302 32.8507 97.3949 32.8817 97.3595 32.9093C97.3242 32.9368 97.2908 32.9592 97.261 32.9771C97.2006 33.0133 97.1626 33.0263 97.1609 33.0268C97.1604 33.027 97.1969 33.0149 97.2807 33.0029C97.3648 32.9909 97.4891 32.9801 97.66 32.9801V24.9801C95.6994 24.9801 93.4943 25.473 91.8076 27.1597C90.1209 28.8464 89.628 31.0515 89.628 33.0121H97.628ZM97.66 32.9801H106.084V24.9801H97.66V32.9801ZM109.902 27.787C109.628 26.9105 109.164 25.6016 108.538 23.9154L101.038 26.7008C101.66 28.3746 102.06 29.5137 102.266 30.1732L109.902 27.787ZM108.619 24.1587C108.473 23.6711 108.271 23.0409 108.006 22.5112L100.85 26.089C100.833 26.0542 100.821 26.0279 100.814 26.0123C100.807 25.9964 100.803 25.9871 100.802 25.9856C100.802 25.984 100.809 26.0009 100.823 26.0414C100.853 26.1247 100.897 26.2593 100.957 26.4575L108.619 24.1587ZM104.428 20.3001H94.924V28.3001H104.428V20.3001ZM94.924 20.3001C94.5374 20.3001 94.362 20.2504 94.3304 20.2399C94.3186 20.2359 94.3443 20.2433 94.3934 20.2728C94.4439 20.3031 94.5051 20.3484 94.5664 20.4097C94.6277 20.471 94.673 20.5322 94.7033 20.5827C94.7328 20.6318 94.7402 20.6575 94.7362 20.6457C94.7257 20.6141 94.676 20.4387 94.676 20.0521H86.676C86.676 22.0847 87.1869 24.3438 88.9096 26.0665C90.6323 27.7892 92.8914 28.3001 94.924 28.3001V20.3001ZM94.676 20.0521C94.676 19.6655 94.7257 19.4901 94.7362 19.4585C94.7402 19.4467 94.7328 19.4724 94.7033 19.5215C94.673 19.572 94.6277 19.6332 94.5664 19.6945C94.5051 19.7558 94.4439 19.8011 94.3934 19.8314C94.3443 19.8609 94.3186 19.8683 94.3304 19.8643C94.362 19.8538 94.5374 19.8041 94.924 19.8041V11.8041C92.8914 11.8041 90.6323 12.315 88.9096 14.0377C87.1869 15.7604 86.676 18.0195 86.676 20.0521H94.676ZM94.924 19.8041H99.244V11.8041H94.924V19.8041ZM102.989 14.3996C102.364 12.7322 101.677 11.1685 100.923 9.71483L93.821 13.3974C94.4112 14.5357 94.972 15.804 95.4987 17.2086L102.989 14.3996ZM100.921 9.71069C100.776 9.43196 100.78 9.34117 100.788 9.41246C100.793 9.45254 100.797 9.52868 100.783 9.63092C100.769 9.73469 100.74 9.8409 100.699 9.94033L93.3255 6.83587C92.3266 9.2082 92.8628 11.5546 93.8231 13.4015L100.921 9.71069ZM100.699 9.94033C100.665 10.021 100.62 10.0978 100.569 10.1645C100.52 10.2303 100.476 10.2702 100.455 10.2878C100.417 10.3189 100.486 10.2498 100.768 10.152L98.1516 2.59216C96.2078 3.26498 94.2843 4.55869 93.3255 6.83587L100.699 9.94033ZM100.725 10.1668L101.157 10.0228L98.6271 2.43337L98.1951 2.57737L100.725 10.1668ZM101.196 10.0096C101.268 9.98487 101.302 9.98421 101.358 9.99367C101.438 10.007 101.663 10.0635 102.043 10.3093L106.381 3.58692C104.094 2.11158 101.38 1.48397 98.588 2.4466L101.196 10.0096ZM101.935 10.2369C102.586 10.6873 103.215 11.3702 103.776 12.4247L110.84 8.67148C109.769 6.65404 108.334 4.93687 106.489 3.65933L101.935 10.2369ZM103.73 12.337C103.996 12.8685 103.981 13.1191 103.976 13.1741L111.936 13.9701C112.123 12.1051 111.676 10.3397 110.886 8.75924L103.73 12.337ZM103.99 13.0547C103.988 13.0669 104.02 12.8182 104.26 12.5064C104.513 12.1752 104.816 12.0137 104.979 11.9567L107.621 19.5075C108.744 19.1145 109.803 18.425 110.608 17.3738C111.4 16.342 111.78 15.1813 111.922 14.0895L103.99 13.0547ZM104.511 12.1544L104.367 12.2264L107.945 19.3818L108.089 19.3098L104.511 12.1544ZM106.156 19.8041H111.34V11.8041H106.156V19.8041ZM115.34 15.8041V9.3241H107.34V15.8041H115.34ZM115.34 9.3241C115.34 8.85874 115.4 8.61597 115.43 8.52722C115.454 8.4585 115.444 8.52018 115.353 8.60971C115.14 8.81921 115.158 8.5721 116.164 8.5721V0.572097C113.954 0.572097 111.56 1.11699 109.739 2.91049C107.907 4.71491 107.34 7.10817 107.34 9.3241H115.34ZM116.164 8.5721C116.635 8.5721 116.884 8.63231 116.978 8.66383C117.053 8.68889 116.992 8.68117 116.9 8.58852C116.807 8.49587 116.799 8.43483 116.824 8.51001C116.856 8.60456 116.916 8.8535 116.916 9.3241H124.916C124.916 7.12352 124.363 4.73839 122.556 2.93167C120.75 1.12495 118.365 0.572097 116.164 0.572097V8.5721ZM116.916 9.3241V15.8041H124.916V9.3241H116.916ZM120.916 19.8041H124.372V11.8041H120.916V19.8041ZM128.372 15.8041V9.3961H120.372V15.8041H128.372ZM128.372 9.3961C128.372 8.4198 128.615 8.41893 128.403 8.6274C128.203 8.82509 128.238 8.5721 129.268 8.5721V0.572097C127.034 0.572097 124.621 1.1231 122.789 2.9288C120.945 4.74526 120.372 7.1564 120.372 9.3961H128.372ZM129.268 8.5721C130.259 8.5721 130.268 8.81724 130.058 8.60652C129.847 8.3958 130.092 8.40468 130.092 9.3961H138.092C138.092 7.17152 137.533 4.76839 135.714 2.94967C133.896 1.13095 131.493 0.572097 129.268 0.572097V8.5721ZM130.092 9.3961V15.8041H138.092V9.3961H130.092ZM134.092 19.8041H138.844V11.8041H134.092V19.8041ZM140.109 12.0094L138.813 11.5774L136.283 19.1668L137.579 19.5988L140.109 12.0094ZM138.518 11.4915C138.616 11.516 139.794 11.8014 140.512 13.1337C141.315 14.6256 140.771 15.9261 140.622 16.225L133.466 12.6472C133.077 13.4261 132.497 15.1226 133.468 16.9265C134.354 18.5708 135.904 19.0842 136.578 19.2527L138.518 11.4915ZM140.839 15.701C140.829 15.7313 140.819 15.758 140.811 15.7807C140.803 15.8035 140.795 15.8234 140.788 15.8402C140.775 15.8732 140.765 15.898 140.758 15.9134C140.751 15.929 140.747 15.9386 140.745 15.9416C140.744 15.9448 140.745 15.9434 140.748 15.937C140.754 15.9234 140.768 15.8968 140.791 15.8552C140.813 15.8141 140.841 15.7629 140.877 15.7007L133.931 11.7315C133.748 12.0514 133.438 12.6056 133.249 13.1712L140.839 15.701ZM141.049 15.3624C141.727 13.8616 142.253 12.6615 142.615 11.7831L135.217 8.73709C134.907 9.49066 134.425 10.5946 133.759 12.0698L141.049 15.3624ZM142.73 11.4646C142.937 10.8105 143.141 10.4137 143.288 10.1929C143.428 9.98275 143.482 9.98291 143.399 10.0318L139.329 3.14439C137.059 4.4858 135.816 6.79501 135.102 9.05558L142.73 11.4646ZM143.617 9.89301C143.535 9.94944 143.501 9.93197 143.623 9.91957C143.771 9.9045 144.101 9.90516 144.667 10.0428L146.557 2.26943C144.165 1.68757 141.447 1.68989 139.111 3.28319L143.617 9.89301ZM144.726 10.0566C145.086 10.1387 145.35 10.224 145.535 10.2983C145.72 10.373 145.798 10.4256 145.807 10.432C145.813 10.4357 145.74 10.3852 145.648 10.2606C145.551 10.1297 145.469 9.96559 145.422 9.78799L153.146 7.70821C152.212 4.23821 149.028 2.83047 146.498 2.25557L144.726 10.0566ZM145.432 9.82662C145.345 9.51579 145.437 9.42642 145.35 9.72952C145.261 10.0396 145.035 10.5738 144.538 11.3579L151.294 15.6423C152.668 13.4759 153.957 10.6007 153.136 7.66957L145.432 9.82662ZM144.588 11.2813C144.396 11.5693 144.108 12.0013 143.724 12.5773L150.38 17.0149C150.764 16.4389 151.052 16.0069 151.244 15.7189L144.588 11.2813ZM143.622 12.7381C143.492 12.9556 143.388 13.1224 143.309 13.2451C143.224 13.3776 143.193 13.4187 143.204 13.4041L149.604 18.2041C149.883 17.8316 150.191 17.3387 150.482 16.8541L143.622 12.7381ZM146.404 19.8041H150.364V11.8041H146.404V19.8041ZM150.364 19.8041C150.751 19.8041 150.926 19.8538 150.958 19.8643C150.969 19.8683 150.944 19.8609 150.895 19.8314C150.844 19.8011 150.783 19.7558 150.722 19.6945C150.66 19.6332 150.615 19.572 150.585 19.5215C150.555 19.4724 150.548 19.4467 150.552 19.4585C150.562 19.4901 150.612 19.6655 150.612 20.0521H158.612C158.612 18.0195 158.101 15.7604 156.378 14.0377C154.656 12.315 152.397 11.8041 150.364 11.8041V19.8041ZM150.612 20.0521C150.612 20.4387 150.562 20.6141 150.552 20.6457C150.548 20.6575 150.555 20.6318 150.585 20.5827C150.615 20.5322 150.66 20.471 150.722 20.4097C150.783 20.3484 150.844 20.3031 150.895 20.2728C150.944 20.2433 150.969 20.2359 150.958 20.2399C150.926 20.2504 150.751 20.3001 150.364 20.3001V28.3001C152.397 28.3001 154.656 27.7892 156.378 26.0665C158.101 24.3438 158.612 22.0847 158.612 20.0521H150.612ZM150.364 20.3001H141.652V28.3001H150.364V20.3001ZM138.245 22.2037C137.837 22.8678 137.29 23.7876 136.613 24.9486L143.523 28.9796C144.19 27.8366 144.699 26.9804 145.059 26.3965L138.245 22.2037ZM136.606 24.96C136.077 25.8749 135.678 26.5727 135.419 27.0375L142.413 30.9227C142.634 30.5235 143.003 29.8773 143.53 28.9682L136.606 24.96ZM138.916 32.9801H147.7V24.9801H138.916V32.9801ZM147.7 32.9801C147.871 32.9801 147.995 32.9909 148.079 33.0029C148.163 33.0149 148.2 33.027 148.199 33.0268C148.197 33.0263 148.159 33.0133 148.099 32.9771C148.069 32.9592 148.036 32.9368 148 32.9093C147.965 32.8817 147.93 32.8507 147.896 32.8165C147.861 32.7823 147.83 32.747 147.803 32.7116C147.775 32.6763 147.753 32.6429 147.735 32.6131C147.699 32.5527 147.686 32.5147 147.685 32.513C147.685 32.5125 147.697 32.549 147.709 32.6328C147.721 32.7169 147.732 32.8412 147.732 33.0121H155.732C155.732 31.0515 155.239 28.8464 153.552 27.1597C151.866 25.473 149.661 24.9801 147.7 24.9801V32.9801ZM147.732 33.0121C147.732 33.183 147.721 33.3073 147.709 33.3914C147.697 33.4752 147.685 33.5117 147.685 33.5112C147.686 33.5095 147.699 33.4715 147.735 33.4111C147.753 33.3813 147.775 33.3479 147.803 33.3126C147.83 33.2772 147.861 33.2419 147.896 33.2077C147.93 33.1735 147.965 33.1425 148 33.1149C148.036 33.0874 148.069 33.065 148.099 33.0471C148.159 33.0109 148.197 32.9979 148.199 32.9974C148.2 32.9972 148.163 33.0093 148.079 33.0213C147.995 33.0333 147.871 33.0441 147.7 33.0441V41.0441C149.661 41.0441 151.866 40.5512 153.552 38.8645C155.239 37.1778 155.732 34.9727 155.732 33.0121H147.732ZM147.7 33.0441H127.54V41.0441H147.7V33.0441ZM123.54 37.0441V39.0601H131.54V37.0441H123.54ZM127.54 43.0601H144.82V35.0601H127.54V43.0601ZM144.82 43.0601C145.111 43.0601 145.202 43.0978 145.162 43.0843C145.137 43.0763 145.079 43.0539 145 43.0064C144.919 42.9581 144.831 42.8918 144.746 42.8065C144.66 42.7212 144.594 42.633 144.546 42.5525C144.498 42.4734 144.476 42.4147 144.468 42.3905C144.454 42.3501 144.492 42.4415 144.492 42.7321H152.492C152.492 40.8915 152.029 38.7764 150.402 37.1497C148.776 35.523 146.661 35.0601 144.82 35.0601V43.0601ZM144.492 42.7321C144.492 43.0413 144.453 43.1511 144.461 43.1271C144.466 43.111 144.485 43.059 144.528 42.9849C144.573 42.9094 144.635 42.8237 144.718 42.7393C144.801 42.6547 144.889 42.5874 144.97 42.5375C145.05 42.4884 145.111 42.4643 145.139 42.4549C145.187 42.4386 145.104 42.4761 144.82 42.4761V50.4761C146.68 50.4761 148.806 49.9965 150.43 48.3409C152.039 46.6998 152.492 44.5774 152.492 42.7321H144.492ZM144.82 42.4761H127.54V50.4761H144.82V42.4761ZM123.54 46.4761V48.4921H131.54V46.4761H123.54ZM127.54 52.4921H141.148V44.4921H127.54V52.4921ZM141.148 52.4921H150.508V44.4921H141.148V52.4921ZM150.508 52.4921C150.895 52.4921 151.07 52.5418 151.102 52.5523C151.113 52.5563 151.088 52.5489 151.039 52.5194C150.988 52.4891 150.927 52.4438 150.866 52.3825C150.804 52.3212 150.759 52.26 150.729 52.2095C150.699 52.1604 150.692 52.1347 150.696 52.1465C150.706 52.1781 150.756 52.3535 150.756 52.7401H158.756C158.756 50.7075 158.245 48.4484 156.522 46.7257C154.8 45.003 152.541 44.4921 150.508 44.4921V52.4921ZM150.756 52.7401C150.756 53.1267 150.706 53.3021 150.696 53.3337C150.692 53.3455 150.699 53.3198 150.729 53.2707C150.759 53.2202 150.804 53.159 150.866 53.0977C150.927 53.0364 150.988 52.9911 151.039 52.9608C151.088 52.9313 151.113 52.9239 151.102 52.9279C151.07 52.9384 150.895 52.9881 150.508 52.9881V60.9881C152.541 60.9881 154.8 60.4772 156.522 58.7545C158.245 57.0318 158.756 54.7727 158.756 52.7401H150.756ZM150.508 52.9881H136.54V60.9881H150.508V52.9881ZM134.73 60.5551C138.27 62.3516 142.424 63.835 147.142 65.0398L149.122 57.2884C144.816 56.1892 141.242 54.8886 138.35 53.4211L134.73 60.5551ZM147.348 65.0864C148.608 65.3386 149.456 65.6151 149.987 65.8593C150.548 66.1178 150.496 66.2213 150.32 65.9684L156.888 61.3998C155.944 60.0429 154.596 59.1744 153.333 58.5929C152.04 57.9971 150.536 57.5656 148.916 57.2418L147.348 65.0864ZM150.219 65.8154C150.124 65.665 150.057 65.4828 150.031 65.3028C150.007 65.1342 150.031 65.0493 150.023 65.0844C150.014 65.126 149.975 65.2688 149.846 65.5226C149.718 65.7749 149.521 66.1009 149.226 66.5026L155.678 71.2336C157.444 68.8254 159.222 65.0987 156.989 61.5528L150.219 65.8154ZM149.228 66.4998C148.819 67.0567 148.471 67.2436 148.175 67.3288C147.827 67.4292 147.171 67.4915 146.04 67.1757L143.888 74.8805C146.021 75.4767 148.245 75.635 150.393 75.0154C152.593 74.3806 154.357 73.0315 155.676 71.2364L149.228 66.4998ZM146.221 67.2306C140.129 65.215 134.754 62.298 130.06 58.4899L125.02 64.7024C130.502 69.1502 136.743 72.5212 143.707 74.8256L146.221 67.2306ZM123.54 61.5961V67.9321H131.54V61.5961H123.54ZM123.54 67.9321C123.54 69.0195 123.271 69.1004 123.434 68.9377C123.596 68.775 123.515 69.0441 122.428 69.0441V77.0441C124.749 77.0441 127.224 76.4613 129.09 74.5945C130.957 72.7278 131.54 70.2527 131.54 67.9321H123.54ZM116.308 32.9801H128.404V24.9801H116.308V32.9801ZM132.045 30.6353C132.828 28.9131 133.489 27.1988 134.022 25.4932L126.386 23.107C125.959 24.4734 125.42 25.8791 124.763 27.3249L132.045 30.6353ZM130.204 20.3001H122.716V28.3001H130.204V20.3001ZM122.716 20.3001H115.3V28.3001H122.716V20.3001ZM111.722 26.089C112.121 26.8871 112.646 28.0994 113.3 29.7819L120.756 26.8823C120.066 25.1088 119.439 23.6331 118.878 22.5112L111.722 26.089ZM113.182 29.431C113.009 28.8261 112.842 27.3766 113.964 26.0941C114.868 25.0605 115.951 24.9471 116.082 24.9326L116.966 32.8836C117.529 32.8211 118.912 32.5877 119.984 31.3621C121.274 29.8876 121.143 28.1741 120.874 27.2332L113.182 29.431ZM115.259 25.1134L115.043 25.1854L117.573 32.7748L117.789 32.7028L115.259 25.1134ZM237.412 69.8041L234.135 67.5103L234.115 67.5393L234.095 67.5687L237.412 69.8041ZM230.212 71.6041L228.796 75.3452L228.92 75.3922L229.047 75.4308L230.212 71.6041ZM217.036 62.6041L220.058 59.983L212.505 51.2763L213.04 62.79L217.036 62.6041ZM217.18 65.7001L213.184 65.886L213.185 65.904L213.186 65.922L217.18 65.7001ZM214.732 68.7241L215.364 72.6739L215.377 72.6718L215.39 72.6697L214.732 68.7241ZM209.332 69.5161L208.777 65.5547L208.766 65.5563L209.332 69.5161ZM195.436 71.4601L194.907 67.4952L194.863 67.5011L194.818 67.5081L195.436 71.4601ZM191.98 70.8121L194.614 67.8018L194.559 67.7537L194.502 67.7076L191.98 70.8121ZM190.468 67.4281L194.425 66.8461L194.424 66.8376L190.468 67.4281ZM194.572 62.1001L194.988 66.0784L195.001 66.0771L195.014 66.0756L194.572 62.1001ZM196.66 61.8841L197.058 65.8643L200.66 65.5041V61.8841H196.66ZM196.66 52.8841H200.66V48.8841H196.66V52.8841ZM190.972 52.0921L188.023 54.795L188.141 54.9232L188.269 55.0407L190.972 52.0921ZM190.18 46.2601H194.18L186.2 45.8579L190.18 46.2601ZM184.852 68.5081L188.39 70.3751L188.445 70.2708L188.493 70.1633L184.852 68.5081ZM181.828 71.6041L180.663 67.7774L180.561 67.8085L180.461 67.8449L181.828 71.6041ZM177.796 70.7401L179.824 67.2924L179.818 67.2887L179.811 67.285L177.796 70.7401ZM174.772 67.2121L178.683 66.374L178.68 66.3592L178.677 66.3444L174.772 67.2121ZM175.852 62.5321L179.353 64.4668L179.455 64.283L179.536 64.0894L175.852 62.5321ZM179.884 45.4681L175.907 45.0359L175.907 45.042L179.884 45.4681ZM181.9 8.8201L184.728 11.6485V11.6485L181.9 8.8201ZM227.692 28.3321V24.3321H223.692V28.3321H227.692ZM227.692 32.0041H223.692V36.0041H227.692V32.0041ZM227.692 40.6441V36.6441H223.692V40.6441H227.692ZM227.692 44.1721H223.692V48.1721H227.692V44.1721ZM233.236 52.8841V48.8841H220.16L230.998 56.1995L233.236 52.8841ZM236.116 54.8281L238.382 51.5319L238.368 51.5223L238.354 51.5127L236.116 54.8281ZM237.196 56.5561L233.208 56.2493L233.196 56.4025V56.5561H237.196ZM236.044 58.1401L238.117 61.5609L238.141 61.5467L238.164 61.5321L236.044 58.1401ZM230.716 61.1641L228.825 57.6395L222.022 61.2895L228.927 64.7418L230.716 61.1641ZM233.884 62.5321L232.48 66.2774L232.684 66.3542L232.896 66.4082L233.884 62.5321ZM238.492 65.1241L242.041 63.2787L242.009 63.2167L241.974 63.1559L238.492 65.1241ZM206.092 60.7321H202.092V65.6113L206.876 64.6544L206.092 60.7321ZM208.252 60.4441L208.65 64.4243L208.748 64.4145L208.845 64.3998L208.252 60.4441ZM210.412 60.1561L210.81 64.1362L210.832 64.1341L210.854 64.1316L210.412 60.1561ZM212.356 59.9401L212.798 63.9156L212.86 63.9087L212.922 63.8999L212.356 59.9401ZM214.66 59.6521L215.022 63.6357L221.989 63.0023L217.909 57.3193L214.66 59.6521ZM210.916 52.8841L214.582 51.2843L213.535 48.8841H210.916V52.8841ZM206.092 52.8841V48.8841H202.092V52.8841H206.092ZM223.66 56.1961L220.976 59.1622L223.1 61.0833L225.603 59.6927L223.66 56.1961ZM225.46 55.0441L227.726 58.3403L227.756 58.3199L227.785 58.299L225.46 55.0441ZM226.18 54.5401L228.399 57.8683L228.452 57.8325L228.505 57.795L226.18 54.5401ZM227.764 53.4601L229.983 56.7883L230.184 56.6543L230.367 56.4971L227.764 53.4601ZM228.556 52.8841L230.345 56.4618L228.556 48.8841V52.8841ZM220.852 52.8841V48.8841H213.378L217.524 55.1029L220.852 52.8841ZM190.396 44.1721L186.416 43.7741L185.976 48.1721H190.396V44.1721ZM200.044 44.1721V48.1721H204.044V44.1721H200.044ZM200.044 40.6441H204.044V36.6441H200.044V40.6441ZM200.044 32.0041V36.0041H204.044V32.0041H200.044ZM200.044 28.3321H204.044V24.3321H200.044V28.3321ZM191.044 28.3321V24.3321H187.044V28.3321H191.044ZM190.9 36.2521L186.907 36.0239L186.904 36.0713L186.902 36.1188L190.9 36.2521ZM209.548 44.1721H205.548V48.1721H209.548V44.1721ZM218.116 44.1721V48.1721H222.116V44.1721H218.116ZM218.116 40.6441H222.116V36.6441H218.116V40.6441ZM209.548 40.6441V36.6441H205.548V40.6441H209.548ZM209.548 32.0041H205.548V36.0041H209.548V32.0041ZM218.116 32.0041V36.0041H222.116V32.0041H218.116ZM218.116 28.3321H222.116V24.3321H218.116V28.3321ZM209.548 28.3321V24.3321H205.548V28.3321H209.548ZM191.044 19.5481H187.044V23.5481H191.044V19.5481ZM226.252 19.5481V23.5481H230.252V19.5481H226.252ZM226.252 16.3081H230.252V12.3081H226.252V16.3081ZM234.095 67.5687C233.857 67.9212 233.69 67.9884 233.526 68.0295C233.256 68.097 232.603 68.1507 231.377 67.7774L229.047 75.4308C231.133 76.0655 233.336 76.3232 235.466 75.7907C237.701 75.2318 239.479 73.895 240.729 72.0395L234.095 67.5687ZM231.628 67.863C226.868 66.0622 223.045 63.4268 220.058 59.983L214.014 65.2252C217.939 69.7495 222.9 73.114 228.796 75.3452L231.628 67.863ZM213.04 62.79L213.184 65.886L221.176 65.5143L221.032 62.4183L213.04 62.79ZM213.186 65.922C213.198 66.1323 213.13 65.7303 213.531 65.2353C213.926 64.7476 214.316 64.7383 214.074 64.7785L215.39 72.6697C216.876 72.4219 218.538 71.7646 219.749 70.2689C220.966 68.7659 221.258 66.9959 221.174 65.4782L213.186 65.922ZM214.1 64.7743C212.94 64.9599 211.172 65.2196 208.777 65.5547L209.887 73.4775C212.292 73.1407 214.124 72.8723 215.364 72.6739L214.1 64.7743ZM208.766 65.5563C202.384 66.4681 197.767 67.1138 194.907 67.4952L195.965 75.425C198.865 75.0384 203.512 74.3881 209.898 73.4759L208.766 65.5563ZM194.818 67.5081C194.598 67.5425 194.434 67.5537 194.32 67.5548C194.207 67.5558 194.156 67.5465 194.157 67.5466C194.16 67.5471 194.216 67.5581 194.307 67.6001C194.401 67.6434 194.509 67.7095 194.614 67.8018L189.346 73.8224C191.388 75.6091 193.966 75.7383 196.053 75.4121L194.818 67.5081ZM194.502 67.7076C194.711 67.8773 194.736 67.9969 194.678 67.8663C194.616 67.727 194.509 67.4129 194.425 66.8461L186.511 68.0101C186.806 70.0158 187.536 72.3549 189.458 73.9166L194.502 67.7076ZM194.424 66.8376C194.351 66.3472 194.376 66.0831 194.393 65.9866C194.406 65.9124 194.402 65.9958 194.303 66.125C194.203 66.2548 194.12 66.2829 194.18 66.2551C194.262 66.2175 194.503 66.1291 194.988 66.0784L194.156 58.1218C191.946 58.3527 189.567 59.1634 187.965 61.2432C186.367 63.3178 186.184 65.8231 186.512 68.0186L194.424 66.8376ZM195.014 66.0756C195.422 66.0302 196.099 65.9601 197.058 65.8643L196.262 57.904C195.301 58.0001 194.586 58.074 194.13 58.1246L195.014 66.0756ZM200.66 61.8841V52.8841H192.66V61.8841H200.66ZM196.66 48.8841H193.204V56.8841H196.66V48.8841ZM193.204 48.8841C193.134 48.8841 193.181 48.8744 193.3 48.9164C193.428 48.9619 193.563 49.0412 193.675 49.1435L188.269 55.0407C189.704 56.3565 191.469 56.8841 193.204 56.8841V48.8841ZM193.921 49.3892C194.023 49.5008 194.102 49.6363 194.148 49.7645C194.19 49.8829 194.18 49.9299 194.18 49.8601H186.18C186.18 51.5946 186.708 53.3596 188.023 54.795L193.921 49.3892ZM194.18 49.8601V46.2601H186.18V49.8601H194.18ZM186.2 45.8579C185.315 54.6159 183.612 61.5699 181.211 66.8529L188.493 70.1633C191.372 63.8303 193.221 55.9523 194.16 46.6623L186.2 45.8579ZM181.314 66.6411C180.979 67.2767 180.71 67.6201 180.55 67.7831C180.401 67.9364 180.43 67.8483 180.663 67.7774L182.993 75.4308C185.631 74.6278 187.304 72.4317 188.39 70.3751L181.314 66.6411ZM180.461 67.8449C180.782 67.7282 180.968 67.7867 180.866 67.7649C180.738 67.7374 180.4 67.631 179.824 67.2924L175.768 74.1878C177.745 75.3508 180.44 76.365 183.195 75.3633L180.461 67.8449ZM179.811 67.285C178.606 66.5819 178.645 66.1956 178.683 66.374L170.861 68.0502C171.475 70.9166 173.53 72.8823 175.781 74.1952L179.811 67.285ZM178.677 66.3444C178.692 66.4144 178.561 65.9006 179.353 64.4668L172.351 60.5974C171.127 62.8116 170.276 65.4178 170.867 68.0798L178.677 66.3444ZM179.536 64.0894C181.698 58.9746 183.113 52.8813 183.861 45.8942L175.907 45.042C175.215 51.4949 173.942 56.7776 172.168 60.9748L179.536 64.0894ZM183.861 45.9003C184.362 41.2913 184.604 35.6642 184.604 29.0521H176.604C176.604 35.496 176.366 40.8129 175.907 45.0359L183.861 45.9003ZM184.604 29.0521V12.2041H176.604V29.0521H184.604ZM184.604 12.2041C184.604 11.9236 184.647 11.788 184.663 11.7447C184.676 11.7114 184.689 11.6882 184.728 11.6485L179.072 5.99167C177.351 7.71224 176.604 9.91186 176.604 12.2041H184.604ZM184.728 11.6485C184.768 11.6089 184.791 11.5963 184.825 11.5835C184.868 11.5669 185.003 11.5241 185.284 11.5241V3.5241C182.992 3.5241 180.792 4.2711 179.072 5.99167L184.728 11.6485ZM185.284 11.5241H208.684V3.5241H185.284V11.5241ZM208.684 11.5241H232.084V3.5241H208.684V11.5241ZM232.084 11.5241C232.365 11.5241 232.5 11.5669 232.543 11.5835C232.577 11.5963 232.6 11.6089 232.64 11.6485L238.296 5.99167C236.576 4.2711 234.376 3.5241 232.084 3.5241V11.5241ZM232.64 11.6485C232.679 11.6882 232.692 11.7114 232.705 11.7447C232.721 11.788 232.764 11.9236 232.764 12.2041H240.764C240.764 9.91186 240.017 7.71224 238.296 5.99167L232.64 11.6485ZM232.764 12.2041V23.6521H240.764V12.2041H232.764ZM232.764 23.6521C232.764 23.9326 232.721 24.0682 232.705 24.1115C232.692 24.1448 232.679 24.168 232.64 24.2077L238.296 29.8645C240.017 28.144 240.764 25.9443 240.764 23.6521H232.764ZM232.64 24.2077C232.6 24.2473 232.577 24.2599 232.543 24.2727C232.5 24.2893 232.365 24.3321 232.084 24.3321V32.3321C234.376 32.3321 236.576 31.5851 238.296 29.8645L232.64 24.2077ZM232.084 24.3321H227.692V32.3321H232.084V24.3321ZM223.692 28.3321V32.0041H231.692V28.3321H223.692ZM227.692 36.0041H232.66V28.0041H227.692V36.0041ZM232.66 36.0041C233.059 36.0041 233.245 36.0553 233.285 36.0688C233.301 36.0743 233.28 36.0688 233.235 36.0416C233.188 36.0135 233.13 35.9708 233.072 35.9125C233.013 35.8542 232.971 35.7964 232.943 35.7496C232.915 35.7042 232.91 35.6827 232.915 35.699C232.929 35.7396 232.98 35.9255 232.98 36.3241H240.98C240.98 34.2675 240.463 31.9904 238.728 30.2557C236.994 28.521 234.717 28.0041 232.66 28.0041V36.0041ZM232.98 36.3241C232.98 36.7227 232.929 36.9086 232.915 36.9492C232.91 36.9655 232.915 36.944 232.943 36.8986C232.971 36.8518 233.013 36.794 233.072 36.7357C233.13 36.6774 233.188 36.6347 233.235 36.6066C233.28 36.5794 233.301 36.5739 233.285 36.5794C233.245 36.5929 233.059 36.6441 232.66 36.6441V44.6441C234.717 44.6441 236.994 44.1272 238.728 42.3925C240.463 40.6578 240.98 38.3807 240.98 36.3241H232.98ZM232.66 36.6441H227.692V44.6441H232.66V36.6441ZM223.692 40.6441V44.1721H231.692V40.6441H223.692ZM227.692 48.1721H235.972V40.1721H227.692V48.1721ZM235.972 48.1721C236.371 48.1721 236.557 48.2233 236.597 48.2368C236.613 48.2423 236.592 48.2368 236.547 48.2096C236.5 48.1815 236.442 48.1388 236.384 48.0805C236.325 48.0222 236.283 47.9644 236.255 47.9176C236.227 47.8722 236.222 47.8507 236.227 47.867C236.241 47.9076 236.292 48.0935 236.292 48.4921H244.292C244.292 46.4355 243.775 44.1584 242.04 42.4237C240.306 40.689 238.029 40.1721 235.972 40.1721V48.1721ZM236.292 48.4921C236.292 48.9084 236.239 49.1115 236.221 49.1674C236.209 49.2047 236.236 49.107 236.36 48.9811C236.417 48.9239 236.474 48.8808 236.521 48.8517C236.568 48.8234 236.591 48.8168 236.578 48.8212C236.544 48.8328 236.365 48.8841 235.972 48.8841V56.8841C238.045 56.8841 240.332 56.3521 242.064 54.5911C243.784 52.8422 244.292 50.5562 244.292 48.4921H236.292ZM235.972 48.8841H233.236V56.8841H235.972V48.8841ZM230.998 56.1995L233.878 58.1435L238.354 51.5127L235.474 49.5687L230.998 56.1995ZM233.85 58.1243C233.94 58.186 233.767 58.0919 233.57 57.7761C233.338 57.405 233.161 56.8629 233.208 56.2493L241.184 56.8629C241.39 54.194 239.699 52.4373 238.382 51.5319L233.85 58.1243ZM233.196 56.5561C233.196 55.8882 233.437 55.356 233.673 55.0314C233.875 54.7537 234.03 54.6819 233.924 54.7481L238.164 61.5321C239.399 60.7605 241.196 59.1749 241.196 56.5561H233.196ZM233.971 54.7193C232.457 55.6367 230.743 56.61 228.825 57.6395L232.607 64.6887C234.625 63.6062 236.463 62.5635 238.117 61.5609L233.971 54.7193ZM228.927 64.7418C230.029 65.2926 231.215 65.8032 232.48 66.2774L235.288 58.7868C234.249 58.397 233.323 57.9956 232.505 57.5864L228.927 64.7418ZM232.896 66.4082C233.914 66.6675 234.549 66.931 234.911 67.1344C235.28 67.342 235.171 67.3768 235.01 67.0923L241.974 63.1559C240.48 60.5119 237.46 59.3156 234.872 58.656L232.896 66.4082ZM234.943 66.9695C234.856 66.8022 234.808 66.6259 234.794 66.4725C234.78 66.3284 234.8 66.2604 234.792 66.2947C234.784 66.3331 234.749 66.4564 234.643 66.6725C234.538 66.8876 234.376 67.1662 234.135 67.5103L240.689 72.098C242.237 69.886 243.753 66.5712 242.041 63.2787L234.943 66.9695ZM206.876 64.6544C207.159 64.598 207.721 64.5172 208.65 64.4243L207.854 56.464C206.863 56.563 205.985 56.6742 205.308 56.8098L206.876 64.6544ZM208.845 64.3998C209.791 64.2579 210.432 64.1741 210.81 64.1362L210.014 56.176C209.432 56.2341 208.633 56.3423 207.659 56.4884L208.845 64.3998ZM210.854 64.1316C211.286 64.0836 211.934 64.0116 212.798 63.9156L211.914 55.9646C211.05 56.0606 210.402 56.1326 209.97 56.1806L210.854 64.1316ZM212.922 63.8999C213.911 63.7585 214.598 63.6742 215.022 63.6357L214.298 55.6685C213.666 55.726 212.817 55.8337 211.79 55.9803L212.922 63.8999ZM217.909 57.3193C216.764 55.7247 215.648 53.7271 214.582 51.2843L207.25 54.4839C208.488 57.3211 209.868 59.8355 211.411 61.9849L217.909 57.3193ZM210.916 48.8841H206.092V56.8841H210.916V48.8841ZM202.092 52.8841V60.7321H210.092V52.8841H202.092ZM225.603 59.6927C226.203 59.359 226.928 58.8892 227.726 58.3403L223.194 51.7479C222.456 52.255 221.981 52.5532 221.717 52.6995L225.603 59.6927ZM227.785 58.299C228.12 58.0594 228.314 57.9249 228.399 57.8683L223.961 51.2119C223.758 51.3473 223.472 51.5488 223.135 51.7892L227.785 58.299ZM228.505 57.795C228.786 57.5946 229.269 57.2643 229.983 56.7883L225.545 50.1319C224.819 50.6159 224.246 51.0056 223.855 51.2852L228.505 57.795ZM230.367 56.4971C230.422 56.4502 230.466 56.4135 230.501 56.3856C230.537 56.3574 230.558 56.3414 230.567 56.335C230.571 56.3321 230.57 56.3325 230.565 56.3358C230.561 56.339 230.55 56.346 230.534 56.3561C230.519 56.366 230.495 56.3803 230.465 56.3976C230.435 56.4148 230.395 56.4369 230.345 56.4618L226.767 49.3064C226.113 49.6334 225.541 50.0972 225.161 50.4231L230.367 56.4971ZM228.556 48.8841H220.852V56.8841H228.556V48.8841ZM217.524 55.1029C218.545 56.6346 219.691 57.9993 220.976 59.1622L226.344 53.23C225.613 52.5689 224.887 51.7256 224.18 50.6653L217.524 55.1029ZM190.396 48.1721H200.044V40.1721H190.396V48.1721ZM204.044 44.1721V40.6441H196.044V44.1721H204.044ZM200.044 36.6441H196.3V44.6441H200.044V36.6441ZM196.3 36.6441C195.901 36.6441 195.715 36.5929 195.675 36.5794C195.659 36.5739 195.68 36.5794 195.725 36.6066C195.772 36.6347 195.83 36.6774 195.888 36.7357C195.947 36.794 195.989 36.8518 196.017 36.8986C196.045 36.944 196.05 36.9655 196.045 36.9492C196.031 36.9086 195.98 36.7227 195.98 36.3241H187.98C187.98 38.3807 188.497 40.6578 190.232 42.3925C191.966 44.1272 194.243 44.6441 196.3 44.6441V36.6441ZM195.98 36.3241C195.98 35.9255 196.031 35.7396 196.045 35.699C196.05 35.6827 196.045 35.7042 196.017 35.7496C195.989 35.7964 195.947 35.8542 195.888 35.9125C195.83 35.9708 195.772 36.0135 195.725 36.0416C195.68 36.0688 195.659 36.0743 195.675 36.0688C195.715 36.0553 195.901 36.0041 196.3 36.0041V28.0041C194.243 28.0041 191.966 28.521 190.232 30.2557C188.497 31.9904 187.98 34.2675 187.98 36.3241H195.98ZM196.3 36.0041H200.044V28.0041H196.3V36.0041ZM204.044 32.0041V28.3321H196.044V32.0041H204.044ZM200.044 24.3321H191.044V32.3321H200.044V24.3321ZM187.044 28.3321V29.0521H195.044V28.3321H187.044ZM187.044 29.0521C187.044 32.1484 186.996 34.4586 186.907 36.0239L194.893 36.4803C194.996 34.6856 195.044 32.1958 195.044 29.0521H187.044ZM186.902 36.1188C186.809 38.9268 186.646 41.4771 186.416 43.7741L194.376 44.5701C194.626 42.0671 194.799 39.3374 194.898 36.3854L186.902 36.1188ZM209.548 48.1721H213.796V40.1721H209.548V48.1721ZM213.796 48.1721H218.116V40.1721H213.796V48.1721ZM222.116 44.1721V40.6441H214.116V44.1721H222.116ZM218.116 36.6441H209.548V44.6441H218.116V36.6441ZM205.548 40.6441V44.1721H213.548V40.6441H205.548ZM209.548 36.0041H213.796V28.0041H209.548V36.0041ZM213.796 36.0041H218.116V28.0041H213.796V36.0041ZM222.116 32.0041V28.3321H214.116V32.0041H222.116ZM218.116 24.3321H209.548V32.3321H218.116V24.3321ZM205.548 28.3321V32.0041H213.548V28.3321H205.548ZM191.044 23.5481H208.612V15.5481H191.044V23.5481ZM208.612 23.5481H226.252V15.5481H208.612V23.5481ZM230.252 19.5481V16.3081H222.252V19.5481H230.252ZM226.252 12.3081H192.772V20.3081H226.252V12.3081ZM192.772 12.3081C191.579 12.3081 189.95 12.609 188.648 13.9117C187.345 15.2144 187.044 16.8435 187.044 18.0361H195.044C195.044 18.0767 195.031 18.8418 194.304 19.5685C193.578 20.2952 192.813 20.3081 192.772 20.3081V12.3081ZM187.044 18.0361V19.5481H195.044V18.0361H187.044Z" fill="#F748C1" mask="url(#path-1-outside-1_1246_11246)"/>
<mask id="path-4-outside-2_1246_11246" maskUnits="userSpaceOnUse" x="262.5" y="7.2041" width="103" height="65" fill="black">
<rect fill="white" x="262.5" y="7.2041" width="103" height="65"/>
<path d="M271.133 66.2041C269.789 66.2041 268.709 65.7961 267.893 64.9801C267.077 64.1641 266.669 63.0841 266.669 61.7401V61.5241C266.669 59.7481 267.605 57.9961 269.477 56.2681C275.957 50.2681 280.709 45.2761 283.733 41.2921C287.285 36.5881 289.061 32.5561 289.061 29.1961C289.061 26.7961 288.437 24.9481 287.189 23.6521C285.941 22.3081 284.237 21.6361 282.077 21.6361C280.349 21.6361 278.621 22.1881 276.893 23.2921C274.301 25.6441 271.829 25.6441 269.477 23.2921C268.325 22.1401 267.797 20.9641 267.893 19.7641C268.037 18.5641 268.709 17.4121 269.909 16.3081C273.893 13.1881 278.525 11.6281 283.805 11.6281C289.037 11.6281 293.261 13.1641 296.477 16.2361C299.741 19.3081 301.373 23.3881 301.373 28.4761C301.373 36.0601 295.997 45.2761 285.245 56.1241C288.797 55.6441 291.701 55.4041 293.957 55.4041H298.421C302.021 55.4041 303.821 57.2041 303.821 60.8041C303.821 64.4041 302.021 66.2041 298.421 66.2041H285.245H271.133ZM342.296 67.2121C337.016 67.2121 332.624 65.8921 329.12 63.2521C325.664 60.5641 323.936 57.1081 323.936 52.8841C323.936 46.9801 326.864 42.4681 332.72 39.3481V38.9881C328.064 35.5321 325.736 31.2361 325.736 26.1001C325.736 21.6841 327.32 18.1561 330.488 15.5161C333.608 12.9241 337.688 11.6281 342.728 11.6281C347.576 11.6281 351.464 12.9481 354.392 15.5881C357.32 18.1801 358.784 21.6361 358.784 25.9561C358.784 28.3561 358.112 30.6601 356.768 32.8681C355.568 34.8361 353.984 36.4921 352.016 37.8361V38.1961C358.016 41.3161 361.016 46.1401 361.016 52.6681C361.016 56.8441 359.312 60.3001 355.904 63.0361C352.352 65.8201 347.816 67.2121 342.296 67.2121ZM342.584 58.2841C344.552 58.2841 346.112 57.8041 347.264 56.8441C348.512 55.7401 349.136 54.1801 349.136 52.1641C349.136 50.0041 348.176 48.1801 346.256 46.6921C344.864 45.5401 342.272 44.1961 338.48 42.6601C336.08 44.9641 334.88 47.8681 334.88 51.3721C334.88 53.4841 335.648 55.1881 337.184 56.4841C338.624 57.6841 340.424 58.2841 342.584 58.2841ZM345.536 34.7401C347.456 32.3881 348.416 29.7481 348.416 26.8201C348.416 24.8521 347.864 23.3161 346.76 22.2121C345.704 21.0601 344.24 20.4841 342.368 20.4841C340.832 20.4841 339.584 20.9401 338.624 21.8521C337.52 22.8601 336.968 24.2761 336.968 26.1001C336.968 28.0681 337.736 29.7721 339.272 31.2121C340.52 32.3641 342.608 33.5401 345.536 34.7401Z"/>
</mask>
<path d="M271.133 66.2041C269.789 66.2041 268.709 65.7961 267.893 64.9801C267.077 64.1641 266.669 63.0841 266.669 61.7401V61.5241C266.669 59.7481 267.605 57.9961 269.477 56.2681C275.957 50.2681 280.709 45.2761 283.733 41.2921C287.285 36.5881 289.061 32.5561 289.061 29.1961C289.061 26.7961 288.437 24.9481 287.189 23.6521C285.941 22.3081 284.237 21.6361 282.077 21.6361C280.349 21.6361 278.621 22.1881 276.893 23.2921C274.301 25.6441 271.829 25.6441 269.477 23.2921C268.325 22.1401 267.797 20.9641 267.893 19.7641C268.037 18.5641 268.709 17.4121 269.909 16.3081C273.893 13.1881 278.525 11.6281 283.805 11.6281C289.037 11.6281 293.261 13.1641 296.477 16.2361C299.741 19.3081 301.373 23.3881 301.373 28.4761C301.373 36.0601 295.997 45.2761 285.245 56.1241C288.797 55.6441 291.701 55.4041 293.957 55.4041H298.421C302.021 55.4041 303.821 57.2041 303.821 60.8041C303.821 64.4041 302.021 66.2041 298.421 66.2041H285.245H271.133ZM342.296 67.2121C337.016 67.2121 332.624 65.8921 329.12 63.2521C325.664 60.5641 323.936 57.1081 323.936 52.8841C323.936 46.9801 326.864 42.4681 332.72 39.3481V38.9881C328.064 35.5321 325.736 31.2361 325.736 26.1001C325.736 21.6841 327.32 18.1561 330.488 15.5161C333.608 12.9241 337.688 11.6281 342.728 11.6281C347.576 11.6281 351.464 12.9481 354.392 15.5881C357.32 18.1801 358.784 21.6361 358.784 25.9561C358.784 28.3561 358.112 30.6601 356.768 32.8681C355.568 34.8361 353.984 36.4921 352.016 37.8361V38.1961C358.016 41.3161 361.016 46.1401 361.016 52.6681C361.016 56.8441 359.312 60.3001 355.904 63.0361C352.352 65.8201 347.816 67.2121 342.296 67.2121ZM342.584 58.2841C344.552 58.2841 346.112 57.8041 347.264 56.8441C348.512 55.7401 349.136 54.1801 349.136 52.1641C349.136 50.0041 348.176 48.1801 346.256 46.6921C344.864 45.5401 342.272 44.1961 338.48 42.6601C336.08 44.9641 334.88 47.8681 334.88 51.3721C334.88 53.4841 335.648 55.1881 337.184 56.4841C338.624 57.6841 340.424 58.2841 342.584 58.2841ZM345.536 34.7401C347.456 32.3881 348.416 29.7481 348.416 26.8201C348.416 24.8521 347.864 23.3161 346.76 22.2121C345.704 21.0601 344.24 20.4841 342.368 20.4841C340.832 20.4841 339.584 20.9401 338.624 21.8521C337.52 22.8601 336.968 24.2761 336.968 26.1001C336.968 28.0681 337.736 29.7721 339.272 31.2121C340.52 32.3641 342.608 33.5401 345.536 34.7401Z" fill="#F748C1"/>
<path d="M269.477 56.2681L272.19 59.2073L272.195 59.2031L269.477 56.2681ZM283.733 41.2921L286.919 43.7105L286.925 43.7025L283.733 41.2921ZM287.189 23.6521L284.258 26.3739L284.283 26.4005L284.308 26.4267L287.189 23.6521ZM276.893 23.2921L274.739 19.9213L274.455 20.103L274.205 20.3299L276.893 23.2921ZM269.477 23.2921L266.649 26.1205L266.649 26.1205L269.477 23.2921ZM267.893 19.7641L263.921 19.2875L263.912 19.3662L263.906 19.4451L267.893 19.7641ZM269.909 16.3081L267.443 13.1589L267.318 13.2568L267.201 13.3644L269.909 16.3081ZM296.477 16.2361L293.714 19.1285L293.725 19.1388L293.736 19.1489L296.477 16.2361ZM285.245 56.1241L282.404 53.3083L274.123 61.6635L285.781 60.0881L285.245 56.1241ZM271.133 62.2041C270.866 62.2041 270.749 62.164 270.729 62.1562C270.717 62.1519 270.718 62.151 270.724 62.155C270.73 62.1591 270.73 62.16 270.721 62.1517L265.065 67.8085C266.754 69.4983 268.917 70.2041 271.133 70.2041V62.2041ZM270.721 62.1517C270.713 62.1433 270.714 62.1429 270.718 62.1491C270.722 62.1553 270.721 62.1559 270.717 62.1445C270.709 62.1238 270.669 62.0071 270.669 61.7401H262.669C262.669 63.9563 263.375 66.1187 265.065 67.8085L270.721 62.1517ZM270.669 61.7401V61.5241H262.669V61.7401H270.669ZM270.669 61.5241C270.669 61.2776 270.775 60.5131 272.19 59.2073L266.764 53.3289C264.435 55.4791 262.669 58.2186 262.669 61.5241H270.669ZM272.195 59.2031C278.737 53.1452 283.687 47.969 286.919 43.7105L280.547 38.8737C277.731 42.5832 273.177 47.391 266.759 53.3331L272.195 59.2031ZM286.925 43.7025C290.649 38.7706 293.061 33.8699 293.061 29.1961H285.061C285.061 31.2423 283.921 34.4056 280.541 38.8817L286.925 43.7025ZM293.061 29.1961C293.061 26.1162 292.249 23.1404 290.07 20.8775L284.308 26.4267C284.625 26.7558 285.061 27.476 285.061 29.1961H293.061ZM290.12 20.9303C287.98 18.6258 285.134 17.6361 282.077 17.6361V25.6361C283.34 25.6361 283.902 25.9904 284.258 26.3739L290.12 20.9303ZM282.077 17.6361C279.453 17.6361 276.989 18.4842 274.739 19.9213L279.047 26.6629C280.253 25.892 281.245 25.6361 282.077 25.6361V17.6361ZM274.205 20.3299C273.34 21.1147 272.991 21.0561 273.095 21.0561C273.246 21.0561 272.998 21.1565 272.305 20.4637L266.649 26.1205C268.308 27.7797 270.472 29.0561 273.095 29.0561C275.671 29.0561 277.854 27.8215 279.581 26.2543L274.205 20.3299ZM272.305 20.4637C271.986 20.1444 271.886 19.9528 271.866 19.9077C271.858 19.8888 271.866 19.9023 271.873 19.9441C271.881 19.9872 271.884 20.0364 271.88 20.0831L263.906 19.4451C263.686 22.188 264.977 24.4487 266.649 26.1205L272.305 20.4637ZM271.865 20.2407C271.865 20.2373 271.871 20.1684 271.96 20.0156C272.056 19.8513 272.248 19.5913 272.617 19.2518L267.201 13.3644C265.545 14.8873 264.213 16.8544 263.921 19.2875L271.865 20.2407ZM272.375 19.4573C275.623 16.9138 279.377 15.6281 283.805 15.6281V7.6281C277.673 7.6281 272.163 9.46241 267.443 13.1589L272.375 19.4573ZM283.805 15.6281C288.202 15.6281 291.372 16.8911 293.714 19.1285L299.24 13.3437C295.15 9.43712 289.872 7.6281 283.805 7.6281V15.6281ZM293.736 19.1489C296.084 21.3596 297.373 24.3272 297.373 28.4761H305.373C305.373 22.449 303.398 17.2566 299.218 13.3233L293.736 19.1489ZM297.373 28.4761C297.373 34.3467 293.064 42.5534 282.404 53.3083L288.086 58.9399C298.93 47.9988 305.373 37.7735 305.373 28.4761H297.373ZM285.781 60.0881C289.245 59.6199 291.953 59.4041 293.957 59.4041V51.4041C291.449 51.4041 288.349 51.6683 284.709 52.1601L285.781 60.0881ZM293.957 59.4041H298.421V51.4041H293.957V59.4041ZM298.421 59.4041C299.604 59.4041 299.757 59.6972 299.643 59.5825C299.528 59.4678 299.821 59.6207 299.821 60.8041H307.821C307.821 58.3875 307.214 55.8404 305.299 53.9257C303.385 52.011 300.838 51.4041 298.421 51.4041V59.4041ZM299.821 60.8041C299.821 61.9875 299.528 62.1404 299.643 62.0257C299.757 61.911 299.604 62.2041 298.421 62.2041V70.2041C300.838 70.2041 303.385 69.5972 305.299 67.6825C307.214 65.7678 307.821 63.2207 307.821 60.8041H299.821ZM298.421 62.2041H285.245V70.2041H298.421V62.2041ZM285.245 62.2041H271.133V70.2041H285.245V62.2041ZM329.12 63.2521L326.664 66.4095L326.688 66.4284L326.713 66.4468L329.12 63.2521ZM332.72 39.3481L334.601 42.8783L336.72 41.7493V39.3481H332.72ZM332.72 38.9881H336.72V36.9757L335.104 35.7762L332.72 38.9881ZM330.488 15.5161L327.932 12.4393L327.927 12.4432L330.488 15.5161ZM354.392 15.5881L351.713 18.5589L351.727 18.5711L351.741 18.5832L354.392 15.5881ZM356.768 32.8681L360.183 34.9505L360.185 34.9479L356.768 32.8681ZM352.016 37.8361L349.76 34.5329L348.016 35.724V37.8361H352.016ZM352.016 38.1961H348.016V40.6246L350.171 41.745L352.016 38.1961ZM355.904 63.0361L358.372 66.1843L358.39 66.1699L358.408 66.1553L355.904 63.0361ZM347.264 56.8441L349.825 59.917L349.87 59.8792L349.914 59.8401L347.264 56.8441ZM346.256 46.6921L343.706 49.7737L343.755 49.8145L343.806 49.8538L346.256 46.6921ZM338.48 42.6601L339.982 38.9527L337.58 37.9797L335.71 39.7746L338.48 42.6601ZM337.184 56.4841L334.605 59.5413L334.614 59.5492L334.623 59.557L337.184 56.4841ZM345.536 34.7401L344.019 38.4413L346.761 39.565L348.635 37.2696L345.536 34.7401ZM346.76 22.2121L343.811 24.915L343.87 24.9791L343.932 25.0405L346.76 22.2121ZM338.624 21.8521L341.321 24.806L341.35 24.7794L341.379 24.7521L338.624 21.8521ZM339.272 31.2121L336.536 34.1302L336.548 34.1408L336.559 34.1513L339.272 31.2121ZM342.296 63.2121C337.703 63.2121 334.205 62.0751 331.527 60.0574L326.713 66.4468C331.043 69.7091 336.329 71.2121 342.296 71.2121V63.2121ZM331.576 60.0947C329.053 58.1323 327.936 55.8221 327.936 52.8841H319.936C319.936 58.3941 322.275 62.9959 326.664 66.4095L331.576 60.0947ZM327.936 52.8841C327.936 50.6265 328.485 48.7944 329.487 47.2495C330.506 45.6804 332.133 44.1932 334.601 42.8783L330.839 35.8179C327.451 37.623 324.686 39.9518 322.777 42.8947C320.851 45.8618 319.936 49.2377 319.936 52.8841H327.936ZM336.72 39.3481V38.9881H328.72V39.3481H336.72ZM335.104 35.7762C331.314 32.9631 329.736 29.7937 329.736 26.1001H321.736C321.736 32.6785 324.814 38.1011 330.336 42.2L335.104 35.7762ZM329.736 26.1001C329.736 22.7752 330.864 20.4096 333.049 18.589L327.927 12.4432C323.776 15.9026 321.736 20.593 321.736 26.1001H329.736ZM333.044 18.5929C335.285 16.7313 338.388 15.6281 342.728 15.6281V7.6281C336.988 7.6281 331.931 9.11691 327.932 12.4393L333.044 18.5929ZM342.728 15.6281C346.824 15.6281 349.679 16.7249 351.713 18.5589L357.071 12.6173C353.249 9.17126 348.328 7.6281 342.728 7.6281V15.6281ZM351.741 18.5832C353.715 20.3312 354.784 22.6472 354.784 25.9561H362.784C362.784 20.625 360.925 16.0289 357.043 12.5931L351.741 18.5832ZM354.784 25.9561C354.784 27.5659 354.344 29.1569 353.351 30.7883L360.185 34.9479C361.88 32.1633 362.784 29.1463 362.784 25.9561H354.784ZM353.353 30.7857C352.458 32.2525 351.276 33.4978 349.76 34.5329L354.272 41.1393C356.692 39.4864 358.678 37.4197 360.183 34.9505L353.353 30.7857ZM348.016 37.8361V38.1961H356.016V37.8361H348.016ZM350.171 41.745C352.656 43.0374 354.315 44.5708 355.369 46.2665C356.419 47.9544 357.016 50.037 357.016 52.6681H365.016C365.016 48.7712 364.113 45.1778 362.163 42.0417C360.217 38.9134 357.376 36.4748 353.861 34.6472L350.171 41.745ZM357.016 52.6681C357.016 55.5676 355.913 57.8993 353.4 59.9169L358.408 66.1553C362.711 62.7009 365.016 58.1206 365.016 52.6681H357.016ZM353.436 59.8879C350.735 62.0055 347.127 63.2121 342.296 63.2121V71.2121C348.505 71.2121 353.969 69.6347 358.372 66.1843L353.436 59.8879ZM342.584 62.2841C345.192 62.2841 347.755 61.6414 349.825 59.917L344.703 53.7712C344.469 53.9668 343.912 54.2841 342.584 54.2841V62.2841ZM349.914 59.8401C352.199 57.819 353.136 55.064 353.136 52.1641H345.136C345.136 53.2962 344.825 53.6612 344.614 53.8481L349.914 59.8401ZM353.136 52.1641C353.136 48.6017 351.465 45.6685 348.706 43.5304L343.806 49.8538C344.887 50.6917 345.136 51.4065 345.136 52.1641H353.136ZM348.806 43.6105C346.899 42.0318 343.797 40.498 339.982 38.9527L336.978 46.3675C340.747 47.8942 342.829 49.0484 343.706 49.7737L348.806 43.6105ZM335.71 39.7746C332.479 42.8766 330.88 46.8438 330.88 51.3721H338.88C338.88 48.8924 339.681 47.0516 341.25 45.5457L335.71 39.7746ZM330.88 51.3721C330.88 54.594 332.117 57.4421 334.605 59.5413L339.763 53.4269C339.179 52.9341 338.88 52.3742 338.88 51.3721H330.88ZM334.623 59.557C336.89 61.4458 339.639 62.2841 342.584 62.2841V54.2841C341.209 54.2841 340.358 53.9224 339.745 53.4112L334.623 59.557ZM348.635 37.2696C351.114 34.2321 352.416 30.7062 352.416 26.8201H344.416C344.416 28.79 343.798 30.5441 342.437 32.2106L348.635 37.2696ZM352.416 26.8201C352.416 24.0823 351.626 21.4212 349.588 19.3837L343.932 25.0405C344.102 25.211 344.416 25.6219 344.416 26.8201H352.416ZM349.709 19.5092C347.746 17.3684 345.12 16.4841 342.368 16.4841V24.4841C343.36 24.4841 343.662 24.7518 343.811 24.915L349.709 19.5092ZM342.368 16.4841C339.983 16.4841 337.691 17.2213 335.869 18.9521L341.379 24.7521C341.477 24.6589 341.681 24.4841 342.368 24.4841V16.4841ZM335.927 18.8982C333.814 20.8272 332.968 23.4194 332.968 26.1001H340.968C340.968 25.1328 341.226 24.893 341.321 24.806L335.927 18.8982ZM332.968 26.1001C332.968 29.2573 334.257 31.9931 336.536 34.1302L342.008 28.294C341.215 27.5511 340.968 26.8789 340.968 26.1001H332.968ZM336.559 34.1513C338.34 35.7958 340.963 37.1888 344.019 38.4413L347.053 31.0389C344.253 29.8914 342.7 28.9324 341.985 28.2729L336.559 34.1513Z" fill="white" mask="url(#path-4-outside-2_1246_11246)"/>
</svg>
