<svg width="32" height="33" viewBox="0 0 32 33" fill="none" xmlns="http://www.w3.org/2000/svg">
<g opacity="0.8">
<mask id="mask0_3436_16272" style="mask-type:alpha" maskUnits="userSpaceOnUse" x="0" y="0" width="32" height="33">
<rect y="0.125" width="32" height="32" fill="#D9D9D9"/>
</mask>
<g mask="url(#mask0_3436_16272)">
<path d="M16.0001 17.9927L9.46673 24.526C9.22229 24.7705 8.91118 24.8927 8.5334 24.8927C8.15562 24.8927 7.84451 24.7705 7.60007 24.526C7.35562 24.2816 7.2334 23.9705 7.2334 23.5927C7.2334 23.2149 7.35562 22.9038 7.60007 22.6594L14.1334 16.126L7.60007 9.59271C7.35562 9.34826 7.2334 9.03715 7.2334 8.65938C7.2334 8.2816 7.35562 7.97049 7.60007 7.72604C7.84451 7.4816 8.15562 7.35938 8.5334 7.35938C8.91118 7.35938 9.22229 7.4816 9.46673 7.72604L16.0001 14.2594L22.5334 7.72604C22.7778 7.4816 23.089 7.35938 23.4667 7.35938C23.8445 7.35938 24.1556 7.4816 24.4001 7.72604C24.6445 7.97049 24.7667 8.2816 24.7667 8.65938C24.7667 9.03715 24.6445 9.34826 24.4001 9.59271L17.8667 16.126L24.4001 22.6594C24.6445 22.9038 24.7667 23.2149 24.7667 23.5927C24.7667 23.9705 24.6445 24.2816 24.4001 24.526C24.1556 24.7705 23.8445 24.8927 23.4667 24.8927C23.089 24.8927 22.7778 24.7705 22.5334 24.526L16.0001 17.9927Z" fill="white"/>
</g>
</g>
</svg>
