<svg width="250" height="70" viewBox="0 0 250 70" fill="none" xmlns="http://www.w3.org/2000/svg">
<g clip-path="url(#clip0_3568_17637)">
<g clip-path="url(#clip1_3568_17637)">
<mask id="mask0_3568_17637" style="mask-type:luminance" maskUnits="userSpaceOnUse" x="7" y="-9" width="236" height="88">
<path d="M7 -9H243V79H7V-9Z" fill="white"/>
</mask>
<g mask="url(#mask0_3568_17637)">
<path fill-rule="evenodd" clip-rule="evenodd" d="M66.0467 55.4404L50.1406 39.4259L42.1868 47.4333C38.6727 43.8957 38.6727 38.1599 42.1871 34.6217C42.1868 34.6223 50.1406 26.6143 50.1406 26.6143L58.0935 18.6077L58.8962 19.4534L59.772 20.6514L60.3661 21.8998L60.7681 23.4052L60.9054 24.9863L60.778 26.5653L60.3891 28.0642L59.744 29.4229L58.8796 30.5925L58.0935 31.4188L56.5027 33.0204L72.2619 48.8868L71.3089 50.0504L69.2277 52.2378L66.0467 55.4404Z" fill="#D60D28"/>
<path fill-rule="evenodd" clip-rule="evenodd" d="M64.4561 25.0135L69.2282 29.8174L71.0466 31.7094L71.8994 32.705L73.0491 34.2905L73.7775 35.5568L74.3666 36.8867L74.8322 38.4203L75.0863 39.9993L75.1186 41.5965L74.9278 43.1834L74.6839 44.2072L74.3512 45.2071L73.4427 47.117L72.2621 48.8867L64.4561 41.0274C68.8489 36.6051 68.8489 29.4349 64.4561 25.0135Z" fill="#02314E"/>
<path fill-rule="evenodd" clip-rule="evenodd" d="M32.6431 57.0417L37.4152 61.8462L38.8723 63.2767L39.6319 63.9608L40.8294 64.9144L41.7806 65.5565L42.7788 66.123L44.3574 66.8097L46.0147 67.279L47.9475 67.5283L49.8967 67.4694L51.8109 67.1036L53.6442 66.4468L54.781 65.8745L55.862 65.2028L57.2142 64.1761L58.0643 63.4278L59.6837 61.8462L66.0467 55.4403L58.0935 47.4332L48.5495 57.0417L47.4184 58.1417L46.8191 58.6576L45.8591 59.3613L44.2697 60.2032L42.9271 60.6482L41.5254 60.8896L40.0989 60.9216L38.687 60.7435L37.78 60.5127L36.9039 60.1956L36.0668 59.7963L35.2755 59.3223L33.8324 58.1933L32.6431 57.0417Z" fill="#02314E"/>
<path fill-rule="evenodd" clip-rule="evenodd" d="M27.8713 52.2377L25.8728 50.1442L24.9489 49.0334L23.7334 47.2502L22.9992 45.8193L22.4473 44.3169L22.0852 42.6677L21.9663 40.9861L22.0968 39.3056L22.4765 37.6403L23.0877 36.0393L23.9033 34.5233L24.6279 33.4489L26.2149 31.5313L27.8713 29.8177L34.2336 23.4116L33.2302 24.469L32.7637 25.0384L32.1356 25.9665L31.3932 27.5271L31.1024 28.4425L30.8935 29.3921L30.719 31.3462L30.8766 33.348L31.0829 34.3221L31.3748 35.2614L32.1181 36.8421L32.7501 37.782L33.22 38.3581L34.2336 39.4261L42.1868 47.4332L43.2369 48.4438L43.8021 48.9134L44.7243 49.5458L46.2746 50.2935L47.1833 50.5857L48.1265 50.7966L50.0675 50.9717L52.0566 50.8133L53.0236 50.6053L53.9563 50.312L55.5264 49.5637L56.4602 48.9275L57.0327 48.4534L58.0935 47.4332L48.5492 57.0417L47.4182 58.1417L46.8191 58.6579L45.8588 59.3613L44.2695 60.2035L42.9272 60.6485L41.5255 60.8896L40.099 60.9219L38.6871 60.7438L37.7801 60.5127L36.9039 60.1956L36.0669 59.7966L35.2753 59.3226L33.8322 58.1933L32.6431 57.0417L27.8713 52.2377Z" fill="#ABC022"/>
<path fill-rule="evenodd" clip-rule="evenodd" d="M42.1874 47.4336C38.673 43.896 38.673 38.1602 42.1874 34.622C42.1871 34.6226 50.1409 26.6148 50.1409 26.6148L58.0938 18.608L48.5495 8.9993L34.2339 23.4119L33.2305 24.4694L32.7637 25.0388L32.1358 25.9669L31.3934 27.5274L31.1027 28.4429L30.8938 29.3924L30.7192 31.3466L30.8769 33.3483L31.0831 34.3225L31.3748 35.2617L32.1183 36.8425L32.7503 37.7823L33.2203 38.3584L34.2339 39.4265L42.1874 47.4336Z" fill="#FBC642"/>
<path fill-rule="evenodd" clip-rule="evenodd" d="M54.9123 12.2015C52.2766 9.54831 52.2766 5.24628 54.9123 2.59249C57.5476 -0.0604124 61.8209 -0.0604124 64.4557 2.59249C67.0913 5.24628 67.0913 9.54831 64.4557 12.2015C61.8209 14.8547 57.5476 14.8547 54.9123 12.2015Z" fill="#FBC642"/>
<path fill-rule="evenodd" clip-rule="evenodd" d="M117.136 8.36337V32.6593C117.136 32.9476 117.07 33.1471 116.938 33.2574C116.806 33.3686 116.585 33.4234 116.277 33.4234H113.603H113.57C113.13 33.4234 112.789 33.6012 112.547 33.9552C112.371 34.1996 112.283 34.4539 112.283 34.72C112.283 34.8748 112.316 35.03 112.382 35.1852C112.426 35.3181 112.469 35.4509 112.514 35.5841C112.667 36.1376 112.976 36.592 113.438 36.9466C113.856 37.279 114.318 37.4453 114.825 37.4453H114.924C116.948 37.3787 118.39 37.113 119.249 36.6474C119.909 36.3594 120.371 35.9106 120.635 35.3016C120.899 34.6921 121.031 33.8224 121.031 32.6924V8.36337C121.031 7.83155 120.844 7.3719 120.47 6.98411C120.095 6.59662 119.633 6.40244 119.083 6.40244C118.533 6.40244 118.071 6.59662 117.697 6.98411C117.322 7.3719 117.136 7.83155 117.136 8.36337ZM110.302 10.4073C110.676 10.0418 111.122 9.85907 111.639 9.85907C112.156 9.85907 112.601 10.0418 112.976 10.4073C113.35 10.7731 113.537 11.2216 113.537 11.7534V27.1085C113.537 27.6186 113.35 28.0619 112.976 28.4379C112.601 28.8152 112.156 29.0032 111.639 29.0032C111.122 29.0032 110.676 28.8152 110.302 28.4379C109.928 28.0619 109.741 27.6186 109.741 27.1085V11.7534C109.741 11.2216 109.928 10.7731 110.302 10.4073ZM104.789 31.3296C104.789 31.175 104.701 31.097 104.525 31.097H99.3087C99.1546 31.097 99.0777 31.175 99.0777 31.3296V33.2574C99.0777 33.4129 99.1546 33.49 99.3087 33.49H104.525C104.701 33.49 104.789 33.4129 104.789 33.2574V31.3296ZM98.9128 12.1524C98.8682 12.1746 98.8574 12.2081 98.8796 12.2521C98.9011 12.2967 98.9343 12.3184 98.9786 12.3184H103.865C103.908 12.3184 103.936 12.302 103.947 12.2685C103.958 12.2354 103.952 12.1969 103.931 12.1524C102.874 11.1333 101.994 10.3357 101.29 9.75934C101.158 9.64875 101.036 9.65961 100.926 9.79249C100.222 10.6789 99.5508 11.4657 98.9128 12.1524ZM104.129 19.3314C104.129 19.1542 104.051 19.0653 103.898 19.0653H97.4601C97.2838 19.0653 97.1961 19.1542 97.1961 19.3314V20.0295C97.1961 20.207 97.2838 20.2953 97.4601 20.2953H103.898C104.051 20.2953 104.129 20.207 104.129 20.0295V19.3314ZM97.13 23.7519C97.1078 23.9294 97.1844 24.0177 97.361 24.0177H103.898C104.051 24.0177 104.129 23.9294 104.129 23.7519V22.9544C104.129 22.7995 104.051 22.7214 103.898 22.7214H97.4271C97.273 22.7214 97.1844 22.7995 97.1629 22.9544C97.1629 23.1535 97.1515 23.4196 97.13 23.7519ZM105.053 13.4817C105.053 13.9253 104.899 14.296 104.591 14.5952C104.282 14.8944 103.919 15.044 103.501 15.044H98.3845C98.076 15.044 97.8068 14.9334 97.5757 14.7117C97.3447 14.4902 97.229 14.2245 97.229 13.9138C97.229 13.8921 97.2177 13.8754 97.1961 13.864C97.174 13.8531 97.1515 13.8475 97.13 13.8475C96.2932 14.6451 95.3911 15.3987 94.4229 16.1074C94.4008 16.13 94.395 16.1572 94.4063 16.1907C94.4171 16.2238 94.4445 16.2405 94.4891 16.2405H105.812C106.341 16.2405 106.797 16.4347 107.182 16.8222C107.567 17.21 107.76 17.6697 107.76 18.2015V24.8818C107.76 25.4137 107.567 25.8739 107.182 26.2614C106.797 26.6492 106.341 26.8428 105.812 26.8428H97.097C96.9205 26.8428 96.8214 26.9208 96.7998 27.0754C96.734 27.4526 96.6894 27.7401 96.6679 27.9396C96.6233 28.1173 96.6894 28.2053 96.866 28.2053H106.307C106.857 28.2053 107.32 28.3942 107.694 28.7706C108.068 29.1475 108.255 29.613 108.255 30.1665V35.5841C108.255 36.0713 108.084 36.4867 107.744 36.8308C107.402 37.1734 107.001 37.3453 106.539 37.3453H105.614C105.394 37.3453 105.202 37.2626 105.037 37.0962C104.872 36.9302 104.789 36.736 104.789 36.5146C104.789 36.426 104.756 36.3817 104.69 36.3817H99.1767C99.1109 36.3817 99.0777 36.426 99.0777 36.5146C99.0777 36.7803 98.9839 37.0018 98.7971 37.1793C98.6098 37.3564 98.3953 37.4453 98.1535 37.4453H97.3942C96.9097 37.4453 96.5027 37.279 96.1726 36.9466C95.8424 36.6143 95.6775 36.2154 95.6775 35.7501V32.094C95.6775 32.0723 95.6659 32.0559 95.6443 32.0445C95.6222 32.0333 95.6114 32.0392 95.6114 32.0609C95.193 33.28 94.698 34.3656 94.1258 35.3181C93.8834 35.717 93.5317 35.9276 93.0696 35.9496H92.9705C92.5297 35.9496 92.1559 35.7944 91.8479 35.4844C91.4957 35.152 91.2754 34.7417 91.1877 34.2544C91.1656 34.1441 91.1548 34.0218 91.1548 33.8889C91.1548 33.5349 91.2422 33.2025 91.4188 32.8919C93.0035 30.056 93.7957 26.1564 93.7957 21.1926V16.7058C93.7957 16.5952 93.7514 16.5729 93.6637 16.6392C93.3997 16.8169 93.1078 16.8718 92.789 16.8055C92.4694 16.7389 92.211 16.5729 92.0131 16.3068C91.8808 16.13 91.7375 15.9528 91.584 15.775C91.3413 15.465 91.2209 15.1103 91.2209 14.7117V14.5454C91.2646 14.0581 91.4735 13.6926 91.8479 13.4486C94.2464 11.7869 96.227 9.85908 97.7902 7.66524C98.5165 6.64649 99.441 6.13638 100.563 6.13638C101.773 6.13638 102.841 6.50217 103.766 7.23345C105.504 8.62913 106.923 9.84822 108.024 10.8893C108.442 11.2882 108.651 11.7757 108.651 12.3518C108.651 12.8833 108.487 13.3489 108.156 13.7475L108.123 13.7809C107.793 14.1579 107.364 14.3573 106.836 14.379C106.307 14.379 105.878 14.191 105.548 13.8141C105.416 13.6812 105.295 13.5483 105.185 13.4154C105.163 13.3934 105.136 13.3934 105.103 13.4154C105.069 13.4377 105.053 13.46 105.053 13.4817Z" fill="white"/>
<path fill-rule="evenodd" clip-rule="evenodd" d="M152.631 8.36337V32.6593C152.631 32.9476 152.565 33.1471 152.433 33.2574C152.301 33.3686 152.081 33.4234 151.773 33.4234H149.098H149.066C148.625 33.4234 148.284 33.6012 148.042 33.9552C147.866 34.1996 147.778 34.4539 147.778 34.72C147.778 34.8748 147.811 35.03 147.877 35.1852C147.921 35.3181 147.964 35.4509 148.009 35.5841C148.163 36.1376 148.471 36.592 148.934 36.9466C149.351 37.279 149.813 37.4453 150.32 37.4453H150.419C152.444 37.3787 153.885 37.113 154.744 36.6474C155.404 36.3594 155.866 35.9106 156.13 35.3016C156.394 34.6921 156.526 33.8224 156.526 32.6924V8.36337C156.526 7.83155 156.339 7.3719 155.965 6.98411C155.59 6.59662 155.128 6.40244 154.579 6.40244C154.028 6.40244 153.566 6.59662 153.192 6.98411C152.817 7.3719 152.631 7.83155 152.631 8.36337ZM145.797 10.4073C146.171 10.0418 146.617 9.85907 147.134 9.85907C147.651 9.85907 148.096 10.0418 148.471 10.4073C148.845 10.7731 149.032 11.2216 149.032 11.7534V27.1085C149.032 27.6186 148.845 28.0619 148.471 28.4379C148.096 28.8152 147.651 29.0032 147.134 29.0032C146.617 29.0032 146.171 28.8152 145.797 28.4379C145.423 28.0619 145.236 27.6186 145.236 27.1085V11.7534C145.236 11.2216 145.423 10.7731 145.797 10.4073ZM140.284 31.3296C140.284 31.175 140.196 31.097 140.02 31.097H134.804C134.65 31.097 134.573 31.175 134.573 31.3296V33.2574C134.573 33.4129 134.65 33.49 134.804 33.49H140.02C140.196 33.49 140.284 33.4129 140.284 33.2574V31.3296ZM134.408 12.1524C134.363 12.1746 134.353 12.2081 134.375 12.2521C134.396 12.2967 134.429 12.3184 134.474 12.3184H139.36C139.404 12.3184 139.431 12.302 139.442 12.2685C139.453 12.2354 139.447 12.1969 139.426 12.1524C138.369 11.1333 137.489 10.3357 136.785 9.75934C136.653 9.64875 136.531 9.65961 136.421 9.79249C135.717 10.6789 135.046 11.4657 134.408 12.1524ZM139.624 19.3314C139.624 19.1542 139.546 19.0653 139.393 19.0653H132.955C132.779 19.0653 132.691 19.1542 132.691 19.3314V20.0295C132.691 20.207 132.779 20.2953 132.955 20.2953H139.393C139.546 20.2953 139.624 20.207 139.624 20.0295V19.3314ZM132.625 23.7519C132.603 23.9294 132.68 24.0177 132.856 24.0177H139.393C139.546 24.0177 139.624 23.9294 139.624 23.7519V22.9544C139.624 22.7995 139.546 22.7214 139.393 22.7214H132.922C132.768 22.7214 132.68 22.7995 132.658 22.9544C132.658 23.1535 132.647 23.4196 132.625 23.7519ZM140.548 13.4817C140.548 13.9253 140.394 14.296 140.086 14.5952C139.777 14.8944 139.414 15.044 138.996 15.044H133.88C133.571 15.044 133.302 14.9334 133.071 14.7117C132.84 14.4902 132.724 14.2245 132.724 13.9138C132.724 13.8921 132.713 13.8754 132.691 13.864C132.669 13.8531 132.647 13.8475 132.625 13.8475C131.788 14.6451 130.886 15.3987 129.918 16.1074C129.896 16.13 129.89 16.1572 129.902 16.1907C129.912 16.2238 129.94 16.2405 129.984 16.2405H141.308C141.836 16.2405 142.292 16.4347 142.678 16.8222C143.062 17.21 143.255 17.6697 143.255 18.2015V24.8818C143.255 25.4137 143.062 25.8739 142.678 26.2614C142.292 26.6492 141.836 26.8428 141.308 26.8428H132.592C132.416 26.8428 132.317 26.9208 132.295 27.0754C132.229 27.4526 132.185 27.7401 132.163 27.9396C132.118 28.1173 132.185 28.2053 132.361 28.2053H141.803C142.352 28.2053 142.815 28.3942 143.189 28.7706C143.563 29.1475 143.751 29.613 143.751 30.1665V35.5841C143.751 36.0713 143.58 36.4867 143.239 36.8308C142.897 37.1734 142.496 37.3453 142.034 37.3453H141.109C140.889 37.3453 140.697 37.2626 140.532 37.0962C140.367 36.9302 140.284 36.736 140.284 36.5146C140.284 36.426 140.251 36.3817 140.185 36.3817H134.672C134.606 36.3817 134.573 36.426 134.573 36.5146C134.573 36.7803 134.479 37.0018 134.292 37.1793C134.105 37.3564 133.89 37.4453 133.649 37.4453H132.889C132.405 37.4453 131.998 37.279 131.668 36.9466C131.338 36.6143 131.173 36.2154 131.173 35.7501V32.094C131.173 32.0723 131.161 32.0559 131.139 32.0445C131.117 32.0333 131.107 32.0392 131.107 32.0609C130.688 33.28 130.193 34.3656 129.621 35.3181C129.378 35.717 129.027 35.9276 128.565 35.9496H128.466C128.025 35.9496 127.651 35.7944 127.343 35.4844C126.991 35.152 126.771 34.7417 126.683 34.2544C126.661 34.1441 126.65 34.0218 126.65 33.8889C126.65 33.5349 126.738 33.2025 126.914 32.8919C128.499 30.056 129.291 26.1564 129.291 21.1926V16.7058C129.291 16.5952 129.246 16.5729 129.159 16.6392C128.895 16.8169 128.603 16.8718 128.284 16.8055C127.965 16.7389 127.706 16.5729 127.508 16.3068C127.376 16.13 127.233 15.9528 127.079 15.775C126.836 15.465 126.716 15.1103 126.716 14.7117V14.5454C126.76 14.0581 126.969 13.6926 127.343 13.4486C129.742 11.7869 131.722 9.85908 133.285 7.66524C134.012 6.64649 134.936 6.13638 136.058 6.13638C137.268 6.13638 138.336 6.50217 139.261 7.23345C140.999 8.62913 142.418 9.84822 143.519 10.8893C143.937 11.2882 144.147 11.7757 144.147 12.3518C144.147 12.8833 143.982 13.3489 143.652 13.7475L143.619 13.7809C143.288 14.1579 142.859 14.3573 142.331 14.379C141.803 14.379 141.373 14.191 141.043 13.8141C140.911 13.6812 140.79 13.5483 140.68 13.4154C140.658 13.3934 140.631 13.3934 140.598 13.4154C140.565 13.4377 140.548 13.46 140.548 13.4817Z" fill="white"/>
<path fill-rule="evenodd" clip-rule="evenodd" d="M183.175 14.5123C183.196 14.4683 183.191 14.4184 183.158 14.3627C183.125 14.3076 183.086 14.2797 183.042 14.2797H171.686C171.642 14.2797 171.604 14.302 171.571 14.346C171.537 14.3909 171.532 14.4457 171.554 14.5123C172.962 18.1018 174.877 21.2044 177.298 23.8186C177.408 23.9298 177.518 23.9298 177.628 23.8186C179.917 21.2484 181.766 18.1464 183.175 14.5123ZM192.88 12.3188C192.88 12.8506 192.687 13.3105 192.303 13.698C191.917 14.0861 191.461 14.2797 190.933 14.2797H188.258C188.104 14.2797 187.995 14.3577 187.928 14.5123C186.19 19.232 183.802 23.2759 180.764 26.6434C180.654 26.7766 180.666 26.8989 180.798 27.0092C183.856 29.3356 187.455 31.0757 191.593 32.2273C192.011 32.3385 192.286 32.6045 192.418 33.0249C192.44 33.158 192.451 33.2909 192.451 33.4238C192.451 33.6896 192.363 33.9339 192.187 34.1551C191.989 34.4434 191.791 34.742 191.593 35.0524C191.263 35.5396 190.834 35.8946 190.305 36.116C189.997 36.2489 189.689 36.3155 189.381 36.3155C189.161 36.3155 188.94 36.2823 188.721 36.2158C184.385 34.8864 180.621 32.8814 177.43 30.1998C177.298 30.0895 177.166 30.0895 177.034 30.1998C173.887 32.682 170.167 34.6869 165.876 36.2158C165.633 36.304 165.402 36.3486 165.183 36.3486C164.896 36.3486 164.61 36.2932 164.324 36.1826C163.818 35.9608 163.421 35.6062 163.136 35.119C162.981 34.8972 162.839 34.6755 162.707 34.4543C162.53 34.2108 162.443 33.9556 162.443 33.6896C162.443 33.535 162.464 33.3801 162.509 33.2243C162.662 32.7817 162.959 32.4934 163.4 32.3602C167.581 31.0757 171.102 29.3474 173.964 27.1752C174.096 27.0649 174.107 26.9426 173.997 26.8097C171.179 23.5308 168.869 19.4315 167.064 14.5123C166.998 14.3577 166.888 14.2797 166.734 14.2797H164.06C163.532 14.2797 163.075 14.0861 162.69 13.698C162.305 13.3105 162.112 12.8506 162.112 12.3188V12.2856C162.112 11.7538 162.305 11.2942 162.69 10.9061C163.075 10.5186 163.532 10.3244 164.06 10.3244H175.119C175.295 10.3244 175.384 10.2472 175.384 10.0918V6.93434C175.384 6.40253 175.576 5.94288 175.961 5.55509C176.346 5.1676 176.803 4.97341 177.331 4.97341H177.496C178.025 4.97341 178.481 5.1676 178.866 5.55509C179.251 5.94288 179.444 6.40253 179.444 6.93434V10.0918C179.444 10.2472 179.521 10.3244 179.675 10.3244H190.933C191.461 10.3244 191.917 10.5186 192.303 10.9061C192.687 11.2942 192.88 11.7538 192.88 12.2856V12.3188Z" fill="white"/>
<path fill-rule="evenodd" clip-rule="evenodd" d="M216.227 22.4284V30.7374C216.227 31.757 216.337 32.405 216.557 32.6819C216.777 32.9591 217.294 33.0972 218.108 33.0972H223.06C223.742 33.0972 224.221 32.8312 224.496 32.2997C224.771 31.7678 224.975 30.7042 225.107 29.1088C225.129 28.6661 225.338 28.3444 225.734 28.1449C225.933 28.0346 226.131 27.9786 226.329 27.9786C226.527 27.9786 226.725 28.0346 226.923 28.1449C226.989 28.1675 227.055 28.1898 227.121 28.2115C227.649 28.4772 228.067 28.843 228.376 29.3082C228.64 29.6855 228.772 30.0953 228.772 30.5379C228.772 30.6271 228.76 30.7268 228.739 30.8371C228.453 33.0755 227.93 34.6428 227.171 35.5404C226.411 36.4377 225.162 36.8862 223.424 36.8862H217.646C215.534 36.8862 214.092 36.4594 213.322 35.6067C212.551 34.7534 212.166 33.1198 212.166 30.7042V8.33609C212.166 7.80427 212.359 7.34462 212.744 6.95683C213.129 6.56934 213.586 6.37515 214.114 6.37515H214.279C214.829 6.37515 215.291 6.56934 215.666 6.95683C216.039 7.34462 216.227 7.80427 216.227 8.33609V17.7753V22.4284ZM204.871 7.96473C205.112 7.45521 205.486 7.08971 205.993 6.86795C206.278 6.73507 206.565 6.66849 206.851 6.66849C207.071 6.66849 207.291 6.70163 207.511 6.76822L207.809 6.86795C208.292 7.04542 208.645 7.37777 208.865 7.865C208.975 8.08676 209.03 8.31937 209.03 8.56283C209.03 8.80718 208.964 9.05065 208.832 9.29411C208.061 10.9341 207.203 12.5513 206.257 14.1467C206.169 14.3019 206.125 14.4574 206.125 14.612V35.4844C206.125 36.0162 205.938 36.4758 205.564 36.8639C205.189 37.2514 204.727 37.4453 204.177 37.4453H204.045C203.517 37.4453 203.06 37.2514 202.675 36.8639C202.29 36.4758 202.097 36.0162 202.097 35.4844V20.3287C202.097 20.2847 202.081 20.2572 202.048 20.2457C202.015 20.2349 201.987 20.2513 201.965 20.2956C201.371 20.9826 200.765 21.6581 200.15 22.3228C199.885 22.5889 199.577 22.7217 199.225 22.7217H198.961C198.477 22.6334 198.124 22.3674 197.905 21.9242C197.751 21.6364 197.596 21.3481 197.443 21.06C197.245 20.6834 197.146 20.2847 197.146 19.8635V19.4977C197.233 18.9442 197.476 18.479 197.872 18.102C200.732 15.2658 203.066 11.8866 204.871 7.96473Z" fill="white"/>
<path fill-rule="evenodd" clip-rule="evenodd" d="M223.61 19.1223L215.544 22.4346L215.533 21.4601C215.503 18.7697 217.484 15.7642 219.959 14.7481C219.958 14.7481 224.44 12.9077 224.44 12.9077C226.42 12.0949 228.005 9.6907 227.98 7.53822L228.036 12.4102C228.067 15.1009 226.085 18.1064 223.61 19.1223Z" fill="white"/>
<path d="M93.0788 59.0346C92.4401 57.8794 92.1211 56.5389 92.1211 55.0127C92.1211 53.4865 92.4419 52.1459 93.084 50.9908C93.7189 49.8497 94.593 48.9662 95.7063 48.3405C96.819 47.7219 98.0826 47.4124 99.4959 47.4124C100.418 47.4124 101.248 47.5171 101.985 47.7269C102.723 47.9366 103.477 48.2649 104.249 48.7119C104.495 48.8286 104.662 49.0073 104.751 49.2481C104.798 49.3786 104.823 49.5162 104.823 49.6605C104.823 49.9354 104.72 50.1762 104.515 50.3824C104.324 50.5749 104.085 50.6711 103.798 50.6711C103.614 50.6711 103.46 50.6367 103.337 50.5681C102.723 50.2449 102.137 50.0061 101.581 49.8512C101.024 49.6966 100.391 49.6192 99.6804 49.6192C98.54 49.6192 97.5823 49.8512 96.8073 50.3153C96.0323 50.7793 95.4362 51.412 95.0198 52.2128C94.6032 53.0139 94.3951 53.9505 94.3951 55.023C94.3951 56.0954 94.6 57.0238 95.0096 57.8073C95.4193 58.6392 96.0253 59.2839 96.8277 59.7409C97.6301 60.1982 98.5808 60.4267 99.6804 60.4267C100.391 60.4267 101.022 60.3511 101.575 60.2C101.855 60.1173 102.163 60.009 102.497 59.875C102.832 59.7409 103.112 59.6086 103.337 59.4781C103.46 59.4092 103.604 59.3749 103.768 59.3749C103.931 59.3749 104.076 59.3989 104.203 59.447C104.329 59.4951 104.44 59.5673 104.536 59.6638C104.727 59.863 104.823 60.0967 104.823 60.3649C104.823 60.8119 104.635 61.1349 104.259 61.3343C103.481 61.7811 102.723 62.1093 101.985 62.319C101.248 62.5288 100.418 62.6338 99.4959 62.6338C98.0963 62.6338 96.8431 62.3243 95.7368 61.7054C94.6032 61.08 93.7172 60.1897 93.0788 59.0346Z" fill="white"/>
<path d="M109.857 52.8477C110.752 51.8096 111.756 51.2904 112.869 51.2904H112.971C113.155 51.2904 113.336 51.1977 113.514 51.012L113.831 50.7029V52.1569C113.831 52.7069 113.722 53.0883 113.504 53.3015C113.367 53.4458 113.19 53.518 112.971 53.518H112.827C112.049 53.518 111.353 53.7553 110.738 54.2296C110.41 54.4839 110.117 54.8037 109.857 55.1885V61.3969C109.857 61.7475 109.717 62.0396 109.437 62.2734C109.225 62.4453 108.983 62.5312 108.71 62.5312C108.403 62.5312 108.138 62.4195 107.916 62.196C107.694 61.9724 107.583 61.7061 107.583 61.3969V52.5485C107.583 52.3356 107.595 52.1654 107.619 52.0381C107.643 51.9111 107.682 51.8199 107.737 51.765C107.791 51.7099 107.856 51.6823 107.931 51.6823H109.509C109.584 51.6823 109.649 51.7099 109.704 51.765C109.758 51.8199 109.797 51.9111 109.821 52.0381C109.845 52.1654 109.857 52.3356 109.857 52.5485V52.8477Z" fill="white"/>
<path d="M122.82 57.7043H120.791C120.136 57.7043 119.593 57.7592 119.163 57.8692C118.733 57.9792 118.415 58.1376 118.21 58.3438C118.006 58.55 117.903 58.8111 117.903 59.1276C117.903 59.54 118.016 59.863 118.241 60.0967C118.562 60.413 119.105 60.5711 119.87 60.5711C120.429 60.5711 120.972 60.437 121.498 60.1689C122.011 59.9078 122.451 59.5708 122.82 59.1584V57.7043ZM115.629 59.3338C115.629 58.1992 116.069 57.3195 116.95 56.6938C117.804 56.0886 119.002 55.7862 120.546 55.7862H122.82C122.813 54.9819 122.618 54.3976 122.236 54.033C121.84 53.6619 121.187 53.4762 120.279 53.4762C119.801 53.4762 119.369 53.5123 118.984 53.5845C118.598 53.6566 118.135 53.7857 117.596 53.9711L117.299 54.0124H117.288C117.036 54.0124 116.812 53.9145 116.617 53.7185C116.423 53.5226 116.326 53.2905 116.326 53.0224C116.326 52.5549 116.547 52.2284 116.991 52.0427C118.159 51.5408 119.364 51.29 120.607 51.29C122.007 51.29 123.117 51.7024 123.936 52.5276C124.202 52.7957 124.424 53.1016 124.602 53.4451C124.93 54.0846 125.094 54.7892 125.094 55.5595V61.3962C125.094 61.6095 125.085 61.7623 125.068 61.855C125.051 61.948 125.034 62.0166 125.017 62.0615C125 62.1061 124.977 62.1404 124.95 62.1645C124.923 62.1885 124.899 62.2076 124.878 62.2211C124.838 62.2486 124.793 62.2624 124.745 62.2624H123.168C123.092 62.2624 123.028 62.2349 122.973 62.18C122.918 62.1249 122.879 62.0339 122.855 61.9066C122.831 61.7796 122.82 61.6095 122.82 61.3962V61.3343C121.85 62.2005 120.634 62.6338 119.173 62.6338C118.559 62.6338 117.978 62.503 117.432 62.2419C116.783 61.9395 116.298 61.4786 115.977 60.86C115.745 60.3995 115.629 59.8905 115.629 59.3338Z" fill="white"/>
<path d="M128.955 59.0346C128.316 57.8794 127.997 56.5389 127.997 55.0127C127.997 53.4865 128.318 52.1459 128.96 50.9908C129.595 49.8497 130.469 48.9662 131.582 48.3405C132.695 47.7219 133.959 47.4124 135.372 47.4124C136.294 47.4124 137.124 47.5171 137.861 47.7269C138.599 47.9366 139.353 48.2649 140.125 48.7119C140.371 48.8286 140.538 49.0073 140.627 49.2481C140.675 49.3786 140.699 49.5162 140.699 49.6605C140.699 49.9354 140.596 50.1762 140.391 50.3824C140.2 50.5749 139.961 50.6711 139.674 50.6711C139.49 50.6711 139.336 50.6367 139.213 50.5681C138.599 50.2449 138.013 50.0061 137.457 49.8512C136.9 49.6966 136.267 49.6192 135.557 49.6192C134.416 49.6192 133.459 49.8512 132.683 50.3153C131.908 50.7793 131.312 51.412 130.896 52.2128C130.479 53.0139 130.271 53.9505 130.271 55.023C130.271 56.0954 130.476 57.0238 130.886 57.8073C131.295 58.6392 131.901 59.2839 132.704 59.7409C133.506 60.1982 134.457 60.4267 135.557 60.4267C136.267 60.4267 136.899 60.3511 137.452 60.2C137.732 60.1173 138.039 60.009 138.373 59.875C138.708 59.7409 138.988 59.6086 139.213 59.4781C139.336 59.4092 139.48 59.3749 139.644 59.3749C139.808 59.3749 139.953 59.3989 140.079 59.447C140.205 59.4951 140.316 59.5673 140.412 59.6638C140.603 59.863 140.699 60.0967 140.699 60.3649C140.699 60.8119 140.511 61.1349 140.135 61.3343C139.357 61.7811 138.599 62.1093 137.861 62.319C137.124 62.5288 136.294 62.6338 135.372 62.6338C133.973 62.6338 132.719 62.3243 131.613 61.7054C130.479 61.08 129.593 60.1897 128.955 59.0346Z" fill="white"/>
<path d="M145.733 52.8477C146.628 51.8096 147.632 51.2904 148.745 51.2904H148.847C149.031 51.2904 149.212 51.1977 149.39 51.012L149.707 50.7029V52.1569C149.707 52.7069 149.598 53.0883 149.38 53.3015C149.243 53.4458 149.066 53.518 148.847 53.518H148.703C147.925 53.518 147.229 53.7553 146.614 54.2296C146.286 54.4839 145.993 54.8037 145.733 55.1885V61.3969C145.733 61.7475 145.593 62.0396 145.313 62.2734C145.101 62.4453 144.859 62.5312 144.586 62.5312C144.279 62.5312 144.014 62.4195 143.792 62.196C143.57 61.9724 143.459 61.7061 143.459 61.3969V52.5485C143.459 52.3356 143.471 52.1654 143.495 52.0381C143.519 51.9111 143.558 51.8199 143.613 51.765C143.667 51.7099 143.732 51.6823 143.807 51.6823H145.385C145.46 51.6823 145.525 51.7099 145.579 51.765C145.634 51.8199 145.673 51.9111 145.697 52.0381C145.721 52.1654 145.733 52.3356 145.733 52.5485V52.8477Z" fill="white"/>
<path d="M158.696 57.7043H156.667C156.012 57.7043 155.469 57.7592 155.039 57.8692C154.609 57.9792 154.291 58.1376 154.086 58.3438C153.881 58.55 153.779 58.8111 153.779 59.1276C153.779 59.54 153.892 59.863 154.117 60.0967C154.438 60.413 154.981 60.5711 155.746 60.5711C156.306 60.5711 156.848 60.437 157.374 60.1689C157.886 59.9078 158.327 59.5708 158.696 59.1584V57.7043ZM151.505 59.3338C151.505 58.1992 151.945 57.3195 152.826 56.6938C153.68 56.0886 154.878 55.7862 156.422 55.7862H158.696C158.689 54.9819 158.494 54.3976 158.112 54.033C157.716 53.6619 157.063 53.4762 156.155 53.4762C155.677 53.4762 155.245 53.5123 154.86 53.5845C154.474 53.6566 154.011 53.7857 153.472 53.9711L153.175 54.0124H153.164C152.912 54.0124 152.688 53.9145 152.493 53.7185C152.299 53.5226 152.202 53.2905 152.202 53.0224C152.202 52.5549 152.424 52.2284 152.867 52.0427C154.035 51.5408 155.24 51.29 156.483 51.29C157.883 51.29 158.992 51.7024 159.812 52.5276C160.078 52.7957 160.3 53.1016 160.478 53.4451C160.806 54.0846 160.97 54.7892 160.97 55.5595V61.3962C160.97 61.6095 160.961 61.7623 160.944 61.855C160.927 61.948 160.91 62.0166 160.893 62.0615C160.876 62.1061 160.853 62.1404 160.826 62.1645C160.799 62.1885 160.775 62.2076 160.754 62.2211C160.714 62.2486 160.669 62.2624 160.621 62.2624H159.044C158.969 62.2624 158.904 62.2349 158.849 62.18C158.795 62.1249 158.755 62.0339 158.731 61.9066C158.708 61.7796 158.696 61.6095 158.696 61.3962V61.3343C157.726 62.2005 156.51 62.6338 155.049 62.6338C154.434 62.6338 153.854 62.503 153.308 62.2419C152.659 61.9395 152.174 61.4786 151.853 60.86C151.621 60.3995 151.505 59.8905 151.505 59.3338Z" fill="white"/>
<path d="M170.229 60.6693C170.417 60.8585 170.511 61.0835 170.511 61.3449C170.511 61.7297 170.313 62.0289 169.917 62.2419C169.357 62.5033 168.763 62.6338 168.135 62.6338C167.028 62.6338 166.209 62.3622 165.676 61.8192C165.185 61.3311 164.939 60.6265 164.939 59.7051V53.6208H164.099C163.914 53.6208 163.733 53.7135 163.556 53.8992L163.238 54.2087V52.7546C163.238 52.3214 163.334 52.0087 163.525 51.816C163.668 51.6716 163.86 51.5995 164.099 51.5995H164.939V50.3208C164.939 50.1076 164.947 49.9547 164.964 49.8618C164.981 49.7691 164.998 49.7001 165.015 49.6556C165.032 49.611 165.063 49.5661 165.108 49.5215C165.152 49.4769 165.212 49.4546 165.287 49.4546H166.864C166.973 49.4546 167.055 49.5095 167.11 49.6195C167.178 49.7433 167.212 49.977 167.212 50.3208V51.5995H169.323C169.507 51.5927 169.688 51.4997 169.866 51.3211L170.183 51.0116V52.4657C170.183 52.8989 170.088 53.2116 169.896 53.4041C169.753 53.5487 169.562 53.6208 169.323 53.6208H167.212V59.54C167.212 59.9181 167.284 60.1795 167.428 60.3238L167.469 60.3651C167.653 60.5027 167.943 60.5714 168.339 60.5714C168.606 60.5714 168.865 60.53 169.118 60.4476L169.128 60.4373C169.313 60.403 169.459 60.3857 169.568 60.3857C169.821 60.3857 170.041 60.4801 170.229 60.6693Z" fill="white"/>
<path d="M180.155 55.8792V55.8534V55.8276C180.107 55.3119 179.953 54.8789 179.694 54.5284C179.414 54.1157 179.066 53.8065 178.649 53.6C178.232 53.3938 177.809 53.2908 177.379 53.2908C176.949 53.2908 176.505 53.387 176.047 53.5795C175.604 53.7995 175.252 54.1227 174.992 54.5489C174.76 54.9338 174.617 55.3808 174.562 55.8895H180.093C180.121 55.8895 180.141 55.8859 180.155 55.8792ZM172.268 57.5395C172.254 57.3538 172.247 57.1614 172.247 56.9619C172.247 56.4808 172.292 56.0097 172.38 55.5492C172.695 53.9678 173.415 52.8059 174.542 52.0635C175.327 51.5478 176.263 51.29 177.348 51.29C178.393 51.29 179.308 51.5341 180.093 52.0225C180.831 52.5106 181.404 53.1635 181.814 53.9816C182.224 54.7997 182.429 55.7038 182.429 56.6938C182.429 57.01 182.32 57.2784 182.101 57.4984C181.883 57.7184 181.609 57.8284 181.281 57.8284H174.572C174.709 58.6533 175.044 59.2892 175.576 59.7359C176.15 60.2243 176.932 60.4684 177.922 60.4684C178.454 60.4684 178.948 60.4133 179.402 60.3033C179.856 60.1933 180.257 60.0419 180.606 59.8495C180.729 59.7808 180.879 59.7465 181.056 59.7465C181.343 59.7465 181.589 59.853 181.794 60.0659C181.985 60.2516 182.08 60.4787 182.08 60.7468C182.08 61.1454 181.865 61.4651 181.435 61.7057C180.848 62.0289 180.286 62.2645 179.75 62.412C179.214 62.5599 178.55 62.6338 177.758 62.6338C176.023 62.6338 174.671 62.1354 173.702 61.1387C172.841 60.2516 172.363 59.0519 172.268 57.5395Z" fill="white"/>
<path d="M185.148 61.1279V61.0041C185.148 60.6398 185.283 60.3218 185.553 60.0502C185.822 59.7786 186.138 59.643 186.5 59.643H186.705C187.067 59.643 187.383 59.7786 187.652 60.0502C187.922 60.3218 188.057 60.6398 188.057 61.0041V61.1279C188.057 61.4922 187.922 61.8102 187.652 62.0818C187.383 62.3534 187.067 62.4893 186.705 62.4893H186.5C186.138 62.4893 185.822 62.3534 185.553 62.0818C185.283 61.8102 185.148 61.4922 185.148 61.1279Z" fill="white"/>
<path d="M191.924 61.3969V48.6712C191.924 48.4583 191.936 48.2882 191.96 48.1608C191.984 48.0335 192.023 47.9426 192.077 47.8875C192.132 47.8326 192.197 47.805 192.272 47.805H193.849C193.925 47.805 193.99 47.8326 194.044 47.8875C194.099 47.9426 194.138 48.0335 194.162 48.1608C194.186 48.2882 194.198 48.4583 194.198 48.6712V61.3969C194.198 61.7131 194.082 61.9812 193.849 62.2012C193.624 62.4212 193.358 62.5312 193.051 62.5312C192.743 62.5312 192.479 62.4195 192.257 62.1963C192.035 61.9727 191.924 61.7064 191.924 61.3969Z" fill="white"/>
<path d="M198.638 61.3969V49.0837C198.638 48.6575 198.792 48.2896 199.099 47.9805C199.406 47.671 199.765 47.5164 200.175 47.5164H200.441C200.939 47.5164 201.37 47.7467 201.732 48.2072L209.25 59.1386V48.6713C209.25 48.4583 209.258 48.3052 209.276 48.2125C209.293 48.1195 209.31 48.0509 209.327 48.0063C209.344 47.9614 209.369 47.9253 209.404 47.8977C209.458 47.8361 209.523 47.805 209.598 47.805H211.176C211.251 47.805 211.316 47.8326 211.37 47.8875C211.425 47.9426 211.464 48.0335 211.488 48.1609C211.512 48.2882 211.524 48.4583 211.524 48.6713V60.9845C211.524 61.4588 211.333 61.8542 210.95 62.1705C210.663 62.411 210.336 62.5312 209.967 62.5312H209.721C209.387 62.5312 209.076 62.4283 208.789 62.2221C208.666 62.1326 208.557 62.0261 208.461 61.9023L200.912 50.9091V61.3969C200.912 61.7131 200.796 61.9813 200.564 62.2013C200.339 62.4213 200.072 62.5312 199.765 62.5312C199.458 62.5312 199.193 62.4195 198.971 62.1963C198.749 61.9727 198.638 61.7064 198.638 61.3969Z" fill="white"/>
<path d="M216.062 59.0346C215.423 57.8794 215.104 56.5389 215.104 55.0127C215.104 53.4865 215.425 52.1459 216.067 50.9908C216.702 49.8497 217.576 48.9662 218.689 48.3405C219.802 47.7219 221.065 47.4124 222.479 47.4124C223.401 47.4124 224.231 47.5171 224.968 47.7269C225.706 47.9366 226.46 48.2649 227.232 48.7119C227.478 48.8286 227.645 49.0073 227.734 49.2481C227.782 49.3786 227.805 49.5162 227.805 49.6605C227.805 49.9354 227.703 50.1762 227.498 50.3824C227.307 50.5749 227.068 50.6711 226.781 50.6711C226.597 50.6711 226.443 50.6367 226.32 50.5681C225.706 50.2449 225.12 50.0061 224.564 49.8512C224.007 49.6966 223.374 49.6192 222.663 49.6192C221.523 49.6192 220.565 49.8512 219.79 50.3153C219.015 50.7793 218.419 51.412 218.003 52.2128C217.586 53.0139 217.378 53.9505 217.378 55.023C217.378 56.0954 217.583 57.0238 217.993 57.8073C218.402 58.6392 219.008 59.2839 219.811 59.7409C220.613 60.1982 221.564 60.4267 222.663 60.4267C223.374 60.4267 224.005 60.3511 224.558 60.2C224.838 60.1173 225.146 60.009 225.48 59.875C225.815 59.7409 226.095 59.6086 226.32 59.4781C226.443 59.4092 226.586 59.3749 226.75 59.3749C226.914 59.3749 227.059 59.3989 227.186 59.447C227.312 59.4951 227.423 59.5673 227.518 59.6638C227.71 59.863 227.805 60.0967 227.805 60.3649C227.805 60.8119 227.618 61.1349 227.242 61.3343C226.463 61.7811 225.706 62.1093 224.968 62.319C224.231 62.5288 223.401 62.6338 222.479 62.6338C221.079 62.6338 219.826 62.3243 218.72 61.7054C217.586 61.08 216.7 60.1897 216.062 59.0346Z" fill="white"/>
</g>
</g>
</g>
<defs>
<clipPath id="clip0_3568_17637">
<rect width="250" height="70" fill="white"/>
</clipPath>
<clipPath id="clip1_3568_17637">
<rect width="236" height="88" fill="white" transform="translate(7 -9)"/>
</clipPath>
</defs>
</svg>
