<svg width="250" height="48" viewBox="0 0 250 48" fill="none" xmlns="http://www.w3.org/2000/svg">
<path d="M57.2546 6.29755H58.4202V12.2178C58.4202 12.4939 58.4663 12.6728 58.5583 12.7546C58.6503 12.8262 58.8446 12.862 59.1411 12.862C59.2127 12.862 59.3354 12.862 59.5092 12.862C59.6932 12.862 59.8926 12.862 60.1074 12.862C60.3221 12.862 60.5215 12.862 60.7055 12.862C60.8998 12.862 61.0429 12.862 61.135 12.862C61.3497 12.862 61.5082 12.7955 61.6104 12.6626C61.7127 12.5194 61.7843 12.2536 61.8252 11.865C61.8763 11.4663 61.907 10.8732 61.9172 10.0859C62.0194 10.1575 62.1319 10.229 62.2546 10.3006C62.3773 10.362 62.5051 10.4182 62.638 10.4693C62.7812 10.5204 62.9039 10.5613 63.0061 10.592C62.9652 11.4714 62.8885 12.1564 62.7761 12.6472C62.6738 13.1278 62.5 13.4652 62.2546 13.6595C62.0194 13.8538 61.6769 13.9509 61.227 13.9509C61.1554 13.9509 61.0123 13.9509 60.7975 13.9509C60.5828 13.9509 60.3528 13.9509 60.1074 13.9509C59.862 13.9509 59.6319 13.9509 59.4172 13.9509C59.2127 13.9509 59.0746 13.9509 59.0031 13.9509C58.5532 13.9509 58.1953 13.8998 57.9294 13.7975C57.6738 13.6953 57.4949 13.5164 57.3926 13.2607C57.3006 13.0153 57.2546 12.6728 57.2546 12.2331V6.29755ZM49.2178 5.60736H62.7607V6.74233H49.2178V5.60736ZM50.5675 1.31288H61.4571V2.41718H50.5675V1.31288ZM53.1442 6.48159H54.3712C54.2996 7.34049 54.1922 8.15337 54.0491 8.92025C53.9059 9.68712 53.6708 10.4029 53.3436 11.0675C53.0266 11.7219 52.5767 12.3149 51.9939 12.8466C51.4213 13.3783 50.68 13.8231 49.7699 14.181C49.7086 14.0481 49.6063 13.8896 49.4632 13.7055C49.32 13.5317 49.182 13.3937 49.0491 13.2914C49.8875 12.9744 50.5624 12.5808 51.0736 12.1104C51.5951 11.6401 51.9939 11.1135 52.2699 10.5307C52.5562 9.93763 52.7607 9.30368 52.8834 8.62883C53.0061 7.94376 53.093 7.22802 53.1442 6.48159ZM66.6411 7.89264H76.089V14.1963H74.9233V8.84356H67.7761V14.227H66.6411V7.89264ZM67.2853 10.2853H75.3374V11.1902H67.2853V10.2853ZM66.0583 1.38957H70.9663V2.32515H66.0583V1.38957ZM64.4172 3.78221H71.365V4.73313H64.4172V3.78221ZM67.2853 12.7086H75.3374V13.6595H67.2853V12.7086ZM67.6074 1.71166H68.6963V3.23006C68.6963 3.59816 68.6554 3.99693 68.5736 4.42638C68.4918 4.85583 68.3231 5.2955 68.0675 5.7454C67.8221 6.1953 67.454 6.63497 66.9632 7.06442C66.4724 7.48364 65.8231 7.8773 65.0153 8.2454C64.9335 8.1227 64.8211 7.98466 64.6779 7.83129C64.5348 7.66769 64.3967 7.53988 64.2638 7.44785C65.0409 7.1411 65.6544 6.80879 66.1043 6.45092C66.5542 6.08282 66.8865 5.70961 67.1012 5.33129C67.316 4.95297 67.454 4.58487 67.5153 4.22699C67.5767 3.8589 67.6074 3.52658 67.6074 3.23006V1.71166ZM66.135 0.0705513L67.1933 0.285275C66.9888 0.939672 66.7178 1.57362 66.3804 2.18712C66.0532 2.79039 65.7055 3.30164 65.3374 3.72086C65.2658 3.65951 65.1738 3.59305 65.0613 3.52147C64.9489 3.4499 64.8313 3.37832 64.7086 3.30675C64.5961 3.23517 64.499 3.18405 64.4172 3.15337C64.8057 2.7546 65.1483 2.28425 65.4448 1.74233C65.7413 1.20041 65.9714 0.643148 66.135 0.0705513ZM68.3589 4.94785C68.502 5.02965 68.7065 5.15235 68.9724 5.31595C69.2485 5.46932 69.5348 5.63804 69.8313 5.82209C70.138 6.00613 70.4192 6.17996 70.6748 6.34356C70.9407 6.49693 71.1299 6.61452 71.2423 6.69632L70.4448 7.47853C70.3016 7.36605 70.1022 7.21779 69.8466 7.03374C69.6012 6.84969 69.3354 6.65542 69.0491 6.45092C68.773 6.24642 68.502 6.05726 68.2362 5.88344C67.9806 5.70961 67.771 5.57157 67.6074 5.46932L68.3589 4.94785ZM73.0828 2.40184V5.66871H76.273V2.40184H73.0828ZM72.0092 1.35889H77.3926V6.71166H72.0092V1.35889ZM79.9387 4.5184H93.4356V5.69939H79.9387V4.5184ZM87.408 4.99386C87.7556 6.23108 88.2106 7.3865 88.773 8.46012C89.3456 9.52352 90.0409 10.454 90.8589 11.2515C91.6871 12.0491 92.6278 12.6728 93.681 13.1227C93.589 13.2045 93.4867 13.3067 93.3742 13.4294C93.272 13.5624 93.1697 13.6953 93.0675 13.8282C92.9652 13.9611 92.8834 14.0838 92.8221 14.1963C91.7178 13.6646 90.7413 12.9642 89.8926 12.0951C89.0542 11.226 88.3384 10.2137 87.7454 9.05828C87.1524 7.90286 86.6616 6.64008 86.273 5.26994L87.408 4.99386ZM86.0583 0.131901H87.3006C87.3006 0.796523 87.2802 1.53783 87.2393 2.35583C87.2086 3.1636 87.1319 4.00716 87.0092 4.8865C86.8865 5.75562 86.682 6.63497 86.3957 7.52454C86.1196 8.40389 85.7311 9.25767 85.2301 10.0859C84.7393 10.9039 84.1104 11.6656 83.3436 12.3712C82.5767 13.0767 81.636 13.6851 80.5215 14.1963C80.4294 14.0429 80.2965 13.8742 80.1227 13.6902C79.9591 13.5164 79.8006 13.3681 79.6472 13.2454C80.7311 12.7751 81.6411 12.2127 82.3773 11.5583C83.1237 10.9039 83.7321 10.1881 84.2025 9.41104C84.6728 8.63395 85.0358 7.83129 85.2914 7.00307C85.547 6.17485 85.726 5.35174 85.8282 4.53374C85.9305 3.70552 85.9918 2.9182 86.0123 2.17178C86.0429 1.42536 86.0583 0.745398 86.0583 0.131901ZM95.138 10.2393H108.865V11.2209H95.138V10.2393ZM97.9908 7.53988H105.245V8.41411H97.9908V7.53988ZM101.58 9.57975H102.699V13C102.699 13.2965 102.658 13.5215 102.577 13.6748C102.495 13.8282 102.331 13.9509 102.086 14.0429C101.851 14.1145 101.529 14.1554 101.12 14.1656C100.721 14.1759 100.215 14.181 99.6012 14.181C99.5705 14.0378 99.5143 13.8742 99.4325 13.6902C99.3609 13.5164 99.2842 13.3579 99.2025 13.2147C99.5194 13.2249 99.8211 13.2301 100.107 13.2301C100.394 13.2403 100.639 13.2403 100.844 13.2301C101.048 13.2301 101.191 13.2301 101.273 13.2301C101.396 13.2301 101.478 13.2096 101.518 13.1687C101.559 13.1278 101.58 13.0613 101.58 12.9693V9.57975ZM104.969 7.53988H105.245L105.491 7.47853L106.166 8.07669C105.808 8.35276 105.404 8.62372 104.954 8.88957C104.504 9.14519 104.039 9.38548 103.558 9.61043C103.078 9.82515 102.607 10.0194 102.147 10.1933C102.076 10.091 101.984 9.98364 101.871 9.87117C101.759 9.74847 101.662 9.65133 101.58 9.57975C101.989 9.43661 102.403 9.26278 102.822 9.05828C103.252 8.85378 103.655 8.63906 104.034 8.41411C104.412 8.17894 104.724 7.9591 104.969 7.7546V7.53988ZM95.4755 5.60736H108.574V8.41411H107.423V6.49693H96.5798V8.41411H95.4755V5.60736ZM106.61 0.699386H107.715C107.684 1.28221 107.648 1.90593 107.607 2.57055C107.566 3.22495 107.52 3.86401 107.469 4.48773C107.418 5.11145 107.362 5.64826 107.301 6.09816H106.196C106.268 5.63804 106.329 5.09611 106.38 4.47239C106.431 3.83845 106.478 3.19427 106.518 2.53988C106.559 1.87526 106.59 1.26176 106.61 0.699386ZM104.126 0.699386H107.071V1.49693H104.126V0.699386ZM99.3865 0.254601L99.908 0.960122C99.4581 1.13395 98.9468 1.2771 98.3742 1.38957C97.8016 1.50204 97.2853 1.59407 96.8251 1.66564L96.3957 1.00613C96.7025 0.955009 97.0348 0.888547 97.3926 0.806748C97.7607 0.714724 98.1186 0.617587 98.4663 0.515337C98.8241 0.413087 99.1309 0.326175 99.3865 0.254601ZM97.0092 2.32515H99.8006V3.1227H97.0092V2.32515ZM97.0859 3.96626H99.8773V4.74847H97.0859V3.96626ZM104.202 2.32515H106.963V3.1227H104.202V2.32515ZM104.126 3.96626H106.84V4.74847H104.126V3.96626ZM102.73 0.254601L103.543 0.484662C103.195 0.95501 102.756 1.40491 102.224 1.83436C101.702 2.25358 101.186 2.60123 100.675 2.8773C100.603 2.80573 100.496 2.7137 100.353 2.60123C100.22 2.47853 100.107 2.3865 100.015 2.32515C100.537 2.0593 101.043 1.74744 101.534 1.38957C102.035 1.0317 102.434 0.653374 102.73 0.254601ZM100.291 0.960122L100.874 0.438649C101.212 0.592024 101.559 0.770961 101.917 0.97546C102.285 1.16973 102.628 1.37423 102.945 1.58896C103.272 1.79346 103.543 1.98773 103.758 2.17178L103.16 2.73926C102.955 2.55521 102.694 2.35583 102.377 2.1411C102.06 1.92638 101.718 1.71677 101.35 1.51227C100.992 1.29755 100.639 1.1135 100.291 0.960122ZM102.776 2.84662L103.589 3.09202C103.221 3.58282 102.761 4.05317 102.209 4.50307C101.656 4.94274 101.104 5.31084 100.552 5.60736C100.481 5.52556 100.378 5.42331 100.245 5.30061C100.112 5.16769 100 5.06544 99.908 4.99386C100.45 4.72802 100.982 4.41104 101.503 4.04294C102.035 3.66462 102.459 3.26585 102.776 2.84662ZM100.245 3.52147L100.828 3.03067C101.176 3.19427 101.539 3.38344 101.917 3.59816C102.295 3.81288 102.648 4.03783 102.975 4.27301C103.313 4.49795 103.589 4.71268 103.804 4.91718L103.19 5.48466C102.986 5.28016 102.72 5.06033 102.393 4.82515C102.065 4.58998 101.713 4.35992 101.334 4.13497C100.966 3.8998 100.603 3.6953 100.245 3.52147ZM96.3957 1.00613L97.5153 1.29755L97.8067 6.06748H96.7331L96.3957 1.00613ZM113.558 8.1227V9.18098H121.288V8.1227H113.558ZM113.558 9.91718V10.9908H121.288V9.91718H113.558ZM113.558 6.34356V7.37117H121.288V6.34356H113.558ZM112.439 5.56135H122.439V11.7577H112.439V5.56135ZM118.788 12.4785L119.571 11.8497C120.123 12.0133 120.68 12.1973 121.242 12.4018C121.805 12.5961 122.331 12.7904 122.822 12.9847C123.323 13.1687 123.758 13.3476 124.126 13.5215L123.098 14.181C122.771 14.0072 122.377 13.8231 121.917 13.6288C121.457 13.4448 120.956 13.2505 120.414 13.046C119.882 12.8415 119.34 12.6524 118.788 12.4785ZM115 11.865L116.058 12.3405C115.639 12.5859 115.158 12.8262 114.617 13.0613C114.085 13.2965 113.533 13.5112 112.96 13.7055C112.388 13.8998 111.846 14.0685 111.334 14.2117C111.273 14.1299 111.191 14.0327 111.089 13.9202C110.987 13.818 110.879 13.7106 110.767 13.5982C110.665 13.4959 110.567 13.409 110.475 13.3374C111.007 13.2249 111.549 13.0971 112.101 12.954C112.664 12.8006 113.195 12.6319 113.696 12.4479C114.197 12.2536 114.632 12.0593 115 11.865ZM116.764 1.15951H123.083V2.04908H116.764V1.15951ZM117.009 0.0705513L118.037 0.300612C117.832 0.93456 117.556 1.54294 117.209 2.12577C116.861 2.70859 116.493 3.19939 116.104 3.59816C116.043 3.53681 115.956 3.47035 115.844 3.39877C115.741 3.3272 115.634 3.25562 115.521 3.18405C115.409 3.10225 115.312 3.0409 115.23 3C115.629 2.6319 115.982 2.19223 116.288 1.68098C116.595 1.16973 116.835 0.632924 117.009 0.0705513ZM118.834 1.71166H119.908V2.24847C119.908 2.53476 119.857 2.83129 119.755 3.13804C119.652 3.44478 119.438 3.74642 119.11 4.04294C118.793 4.32924 118.313 4.59509 117.669 4.84049C117.025 5.08589 116.166 5.29039 115.092 5.45399C115.031 5.32106 114.939 5.16769 114.816 4.99386C114.693 4.82004 114.576 4.682 114.463 4.57975C115.465 4.44683 116.258 4.28834 116.84 4.10429C117.423 3.91002 117.858 3.70552 118.144 3.4908C118.43 3.27607 118.615 3.06135 118.696 2.84662C118.788 2.62168 118.834 2.40695 118.834 2.20245V1.71166ZM119.755 2.6319C120.01 2.9591 120.368 3.25051 120.828 3.50613C121.288 3.76176 121.825 3.97137 122.439 4.13497C123.052 4.28834 123.707 4.39571 124.402 4.45705C124.289 4.5593 124.167 4.70245 124.034 4.8865C123.911 5.07055 123.819 5.23415 123.758 5.3773C123.021 5.27505 122.336 5.11145 121.702 4.8865C121.079 4.65133 120.532 4.35992 120.061 4.01227C119.591 3.66462 119.213 3.26585 118.926 2.81595L119.755 2.6319ZM110.736 1.02147H114.433V1.92638H110.736V1.02147ZM110.399 3.42945H114.831V4.34969H110.399V3.42945ZM122.715 1.15951H122.899L123.083 1.09816L123.85 1.35889C123.655 1.74744 123.446 2.14622 123.221 2.55521C122.996 2.96421 122.771 3.31186 122.546 3.59816L121.656 3.27607C121.83 3.01022 122.014 2.69836 122.209 2.34049C122.413 1.98262 122.582 1.64008 122.715 1.31288V1.15951ZM126.35 4.74847H130.69V5.66871H126.35V4.74847ZM126.35 6.77301H130.706V7.67791H126.35V6.77301ZM125.721 2.72393H131.273V3.67485H125.721V2.72393ZM126.794 8.81288H130.706V13.2914H126.794V12.3252H129.755V9.77914H126.794V8.81288ZM126.334 8.81288H127.255V14.0276H126.334V8.81288ZM127.362 0.515337L128.19 0.0552141C128.405 0.361963 128.615 0.699386 128.819 1.06748C129.024 1.43558 129.187 1.75767 129.31 2.03374L128.436 2.57055C128.333 2.29448 128.175 1.96217 127.96 1.57362C127.756 1.17485 127.556 0.822085 127.362 0.515337ZM131.258 6.65031H136.472V7.72393H131.258V6.65031ZM137.009 0.990797H138.144C138.134 2.03374 138.124 3.0409 138.113 4.01227C138.103 4.98364 138.103 5.90389 138.113 6.77301C138.124 7.64213 138.144 8.43456 138.175 9.15031C138.206 9.86605 138.246 10.4898 138.298 11.0215C138.359 11.5532 138.436 11.9724 138.528 12.2791C138.63 12.5859 138.753 12.7597 138.896 12.8006C138.937 12.8006 138.972 12.7086 139.003 12.5245C139.034 12.3303 139.064 12.0798 139.095 11.773C139.126 11.456 139.146 11.1135 139.156 10.7454C139.228 10.8272 139.305 10.9243 139.387 11.0368C139.468 11.1493 139.55 11.2515 139.632 11.3436C139.714 11.4356 139.785 11.5123 139.847 11.5736C139.785 12.2996 139.688 12.8466 139.555 13.2147C139.433 13.593 139.274 13.8333 139.08 13.9356C138.896 14.0378 138.686 14.0429 138.451 13.9509C138.124 13.8487 137.868 13.5521 137.684 13.0613C137.5 12.5808 137.357 11.9417 137.255 11.1442C137.152 10.3364 137.086 9.40593 137.055 8.35276C137.025 7.29959 137.009 6.14928 137.009 4.90184C137.009 3.6544 137.009 2.35072 137.009 0.990797ZM133.344 1.68098H134.433V14.2117H133.344V1.68098ZM131.442 0.990797H137.531V2.07975H131.442V0.990797ZM146.902 5.45399V6.42025H153.19V5.45399H146.902ZM146.902 3.78221V4.74847H153.19V3.78221H146.902ZM145.844 3.06135H154.294V7.15644H145.844V3.06135ZM145.092 8.15337C145.828 8.14315 146.672 8.13292 147.623 8.1227C148.574 8.11247 149.586 8.09714 150.66 8.07669C151.733 8.04601 152.807 8.02045 153.88 8L153.834 8.84356C152.802 8.87423 151.764 8.90491 150.721 8.93558C149.678 8.96626 148.686 8.99182 147.745 9.01227C146.805 9.03272 145.956 9.05317 145.199 9.07362L145.092 8.15337ZM151.948 7.29448L152.715 6.84969C153.021 7.05419 153.328 7.28425 153.635 7.53988C153.942 7.78528 154.228 8.03579 154.494 8.29141C154.77 8.54703 154.995 8.7771 155.169 8.98159L154.325 9.50307C154.172 9.29857 153.962 9.06851 153.696 8.81288C153.441 8.54703 153.16 8.28119 152.853 8.01534C152.546 7.74949 152.244 7.5092 151.948 7.29448ZM149.463 0.239264H150.567V8.47546L149.463 8.58282V0.239264ZM144.801 9.90184H155.077V10.8221H144.801V9.90184ZM151.794 8.58282H152.899V13.0153C152.899 13.3221 152.858 13.5573 152.776 13.7209C152.694 13.8845 152.536 14.002 152.301 14.0736C152.065 14.1554 151.748 14.2014 151.35 14.2117C150.951 14.2321 150.455 14.2423 149.862 14.2423C149.842 14.089 149.795 13.9202 149.724 13.7362C149.652 13.5521 149.581 13.3885 149.509 13.2454C149.826 13.2556 150.118 13.2607 150.383 13.2607C150.649 13.271 150.879 13.271 151.074 13.2607C151.268 13.2607 151.406 13.2607 151.488 13.2607C151.61 13.2505 151.692 13.2249 151.733 13.184C151.774 13.1534 151.794 13.0869 151.794 12.9847V8.58282ZM146.442 11.3589L147.285 10.8221C147.643 11.1084 148.006 11.4458 148.374 11.8344C148.753 12.2127 149.049 12.545 149.264 12.8313L148.359 13.4601C148.165 13.1636 147.883 12.8211 147.515 12.4325C147.157 12.0337 146.8 11.6759 146.442 11.3589ZM145.215 1.29755H154.908V2.18712H145.215V1.29755ZM144.386 0.177914L145.475 0.499999C145.148 1.36912 144.76 2.22802 144.31 3.07669C143.86 3.91513 143.374 4.70757 142.853 5.45399C142.331 6.20041 141.789 6.85992 141.227 7.43252C141.196 7.34049 141.14 7.2229 141.058 7.07975C140.987 6.93661 140.905 6.79346 140.813 6.65031C140.731 6.49693 140.654 6.37935 140.583 6.29755C141.094 5.79652 141.585 5.21881 142.055 4.56442C142.526 3.91002 142.96 3.20961 143.359 2.46319C143.758 1.70654 144.1 0.944785 144.386 0.177914ZM142.791 4.11963L143.88 3.03067L143.896 3.04601V14.1963H142.791V4.11963ZM169.172 0.208588L169.831 1.06748C169.279 1.19018 168.661 1.29755 167.975 1.38957C167.301 1.48159 166.585 1.56851 165.828 1.65031C165.082 1.72188 164.325 1.78323 163.558 1.83436C162.802 1.87526 162.071 1.91104 161.365 1.94172C161.345 1.81902 161.304 1.67587 161.242 1.51227C161.191 1.33845 161.145 1.19018 161.104 1.06748C161.8 1.03681 162.52 0.99591 163.267 0.944785C164.013 0.883435 164.749 0.816973 165.475 0.745398C166.201 0.673823 166.881 0.597136 167.515 0.515337C168.149 0.423313 168.701 0.321063 169.172 0.208588ZM160.859 4.30368H170.291V5.22393H160.859V4.30368ZM165 1.1135H166.058V7.83129H165V1.1135ZM165.031 8.52147H166.012V13.046H165.031V8.52147ZM162.147 2.32515L163.067 2.03374C163.241 2.30982 163.415 2.62168 163.589 2.96932C163.763 3.30675 163.896 3.58793 163.988 3.81288L163.037 4.16564C162.945 3.93047 162.812 3.63906 162.638 3.29141C162.474 2.93354 162.311 2.61145 162.147 2.32515ZM168.113 1.77301L169.11 2.07975C168.896 2.53988 168.671 3.02045 168.436 3.52147C168.211 4.01227 167.996 4.43149 167.791 4.77914L166.933 4.48773C167.065 4.24233 167.203 3.96114 167.347 3.64417C167.5 3.3272 167.643 3.00511 167.776 2.67791C167.919 2.34049 168.032 2.03885 168.113 1.77301ZM164.356 4.82515L165.261 5.16258C164.954 5.67382 164.565 6.16973 164.095 6.65031C163.635 7.13088 163.139 7.56544 162.607 7.95399C162.076 8.33231 161.544 8.64928 161.012 8.90491C160.93 8.77198 160.818 8.62372 160.675 8.46012C160.532 8.2863 160.399 8.14826 160.276 8.04601C160.787 7.85174 161.299 7.58589 161.81 7.24847C162.331 6.91104 162.812 6.53272 163.252 6.1135C163.701 5.69427 164.07 5.26483 164.356 4.82515ZM161.764 8.19939H169.479V14.135H168.405V9.11963H162.807V14.227H161.764V8.19939ZM162.515 10.4233H168.696V11.2822H162.515V10.4233ZM162.515 12.7086H168.681V13.5828H162.515V12.7086ZM156.104 8.18405C156.687 7.98977 157.393 7.74438 158.221 7.44785C159.049 7.15133 159.888 6.84458 160.736 6.52761L160.936 7.57055C160.138 7.8773 159.335 8.18405 158.528 8.4908C157.73 8.78732 157.004 9.05828 156.35 9.30368L156.104 8.18405ZM156.319 3.21472H160.966V4.28834H156.319V3.21472ZM158.236 0.131901H159.31V12.8926C159.31 13.1994 159.269 13.4397 159.187 13.6135C159.116 13.7873 158.983 13.9202 158.788 14.0123C158.604 14.1043 158.359 14.1656 158.052 14.1963C157.745 14.227 157.347 14.2372 156.856 14.227C156.846 14.0941 156.805 13.9202 156.733 13.7055C156.672 13.501 156.605 13.317 156.534 13.1534C156.861 13.1636 157.157 13.1687 157.423 13.1687C157.699 13.1789 157.883 13.1789 157.975 13.1687C158.067 13.1687 158.134 13.1483 158.175 13.1074C158.216 13.0767 158.236 13.0051 158.236 12.8926V0.131901ZM165.675 5.3773L166.304 4.74847C166.794 5.03476 167.306 5.36196 167.837 5.73006C168.369 6.08793 168.875 6.45092 169.356 6.81902C169.836 7.17689 170.235 7.50409 170.552 7.80061L169.862 8.53681C169.576 8.24029 169.197 7.90798 168.727 7.53988C168.257 7.16155 167.751 6.78323 167.209 6.40491C166.677 6.02658 166.166 5.68405 165.675 5.3773ZM171.825 10.2393H185.552V11.2209H171.825V10.2393ZM174.678 7.53988H181.933V8.41411H174.678V7.53988ZM178.267 9.57975H179.387V13C179.387 13.2965 179.346 13.5215 179.264 13.6748C179.182 13.8282 179.018 13.9509 178.773 14.0429C178.538 14.1145 178.216 14.1554 177.807 14.1656C177.408 14.1759 176.902 14.181 176.288 14.181C176.258 14.0378 176.201 13.8742 176.12 13.6902C176.048 13.5164 175.971 13.3579 175.89 13.2147C176.207 13.2249 176.508 13.2301 176.794 13.2301C177.081 13.2403 177.326 13.2403 177.531 13.2301C177.735 13.2301 177.878 13.2301 177.96 13.2301C178.083 13.2301 178.165 13.2096 178.206 13.1687C178.246 13.1278 178.267 13.0613 178.267 12.9693V9.57975ZM181.656 7.53988H181.933L182.178 7.47853L182.853 8.07669C182.495 8.35276 182.091 8.62372 181.641 8.88957C181.191 9.14519 180.726 9.38548 180.245 9.61043C179.765 9.82515 179.294 10.0194 178.834 10.1933C178.763 10.091 178.671 9.98364 178.558 9.87117C178.446 9.74847 178.349 9.65133 178.267 9.57975C178.676 9.43661 179.09 9.26278 179.509 9.05828C179.939 8.85378 180.343 8.63906 180.721 8.41411C181.099 8.17894 181.411 7.9591 181.656 7.7546V7.53988ZM172.163 5.60736H185.261V8.41411H184.11V6.49693H173.267V8.41411H172.163V5.60736ZM183.298 0.699386H184.402C184.371 1.28221 184.335 1.90593 184.294 2.57055C184.254 3.22495 184.208 3.86401 184.156 4.48773C184.105 5.11145 184.049 5.64826 183.988 6.09816H182.883C182.955 5.63804 183.016 5.09611 183.067 4.47239C183.119 3.83845 183.165 3.19427 183.206 2.53988C183.246 1.87526 183.277 1.26176 183.298 0.699386ZM180.813 0.699386H183.758V1.49693H180.813V0.699386ZM176.074 0.254601L176.595 0.960122C176.145 1.13395 175.634 1.2771 175.061 1.38957C174.489 1.50204 173.972 1.59407 173.512 1.66564L173.083 1.00613C173.39 0.955009 173.722 0.888547 174.08 0.806748C174.448 0.714724 174.806 0.617587 175.153 0.515337C175.511 0.413087 175.818 0.326175 176.074 0.254601ZM173.696 2.32515H176.488V3.1227H173.696V2.32515ZM173.773 3.96626H176.564V4.74847H173.773V3.96626ZM180.89 2.32515H183.65V3.1227H180.89V2.32515ZM180.813 3.96626H183.528V4.74847H180.813V3.96626ZM179.417 0.254601L180.23 0.484662C179.882 0.95501 179.443 1.40491 178.911 1.83436C178.39 2.25358 177.873 2.60123 177.362 2.8773C177.29 2.80573 177.183 2.7137 177.04 2.60123C176.907 2.47853 176.794 2.3865 176.702 2.32515C177.224 2.0593 177.73 1.74744 178.221 1.38957C178.722 1.0317 179.121 0.653374 179.417 0.254601ZM176.979 0.960122L177.561 0.438649C177.899 0.592024 178.246 0.770961 178.604 0.97546C178.972 1.16973 179.315 1.37423 179.632 1.58896C179.959 1.79346 180.23 1.98773 180.445 2.17178L179.847 2.73926C179.642 2.55521 179.381 2.35583 179.064 2.1411C178.747 1.92638 178.405 1.71677 178.037 1.51227C177.679 1.29755 177.326 1.1135 176.979 0.960122ZM179.463 2.84662L180.276 3.09202C179.908 3.58282 179.448 4.05317 178.896 4.50307C178.344 4.94274 177.791 5.31084 177.239 5.60736C177.168 5.52556 177.065 5.42331 176.933 5.30061C176.8 5.16769 176.687 5.06544 176.595 4.99386C177.137 4.72802 177.669 4.41104 178.19 4.04294C178.722 3.66462 179.146 3.26585 179.463 2.84662ZM176.933 3.52147L177.515 3.03067C177.863 3.19427 178.226 3.38344 178.604 3.59816C178.983 3.81288 179.335 4.03783 179.663 4.27301C180 4.49795 180.276 4.71268 180.491 4.91718L179.877 5.48466C179.673 5.28016 179.407 5.06033 179.08 4.82515C178.753 4.58998 178.4 4.35992 178.021 4.13497C177.653 3.8998 177.29 3.6953 176.933 3.52147ZM173.083 1.00613L174.202 1.29755L174.494 6.06748H173.42L173.083 1.00613ZM190.736 9.91718L191.902 10.3313C191.595 10.7301 191.247 11.1339 190.859 11.5429C190.481 11.9417 190.082 12.32 189.663 12.6779C189.254 13.0256 188.85 13.3374 188.451 13.6135C188.379 13.5419 188.282 13.455 188.16 13.3528C188.037 13.2607 187.909 13.1687 187.776 13.0767C187.653 12.9847 187.546 12.9131 187.454 12.862C188.067 12.4939 188.666 12.0491 189.248 11.5276C189.842 10.9959 190.337 10.4591 190.736 9.91718ZM196.135 10.3773L197.04 9.77914C197.449 10.0757 197.873 10.408 198.313 10.7761C198.763 11.1339 199.187 11.4918 199.586 11.8497C199.995 12.1973 200.327 12.5143 200.583 12.8006L199.601 13.4908C199.356 13.2045 199.039 12.8824 198.65 12.5245C198.262 12.1564 197.848 11.7832 197.408 11.4049C196.968 11.0266 196.544 10.684 196.135 10.3773ZM193.574 8.50613H194.739V12.8313C194.739 13.1483 194.693 13.3937 194.601 13.5675C194.519 13.7515 194.351 13.8896 194.095 13.9816C193.85 14.0736 193.528 14.1299 193.129 14.1503C192.74 14.1708 192.265 14.181 191.702 14.181C191.672 14.0072 191.61 13.8129 191.518 13.5982C191.437 13.3834 191.35 13.1994 191.258 13.046C191.575 13.0562 191.866 13.0613 192.132 13.0613C192.408 13.0716 192.643 13.0767 192.837 13.0767C193.042 13.0767 193.185 13.0716 193.267 13.0613C193.4 13.0511 193.482 13.0307 193.512 13C193.553 12.9591 193.574 12.8978 193.574 12.816V8.50613ZM197.301 0.116564L198.144 1.03681C197.49 1.32311 196.764 1.59407 195.966 1.84969C195.169 2.10532 194.325 2.3456 193.436 2.57055C192.546 2.7955 191.641 3.00511 190.721 3.19939C189.801 3.38343 188.896 3.55726 188.006 3.72086C187.986 3.57771 187.94 3.41411 187.868 3.23006C187.797 3.03579 187.73 2.8773 187.669 2.7546C188.538 2.60123 189.422 2.4274 190.322 2.23313C191.222 2.02863 192.096 1.81391 192.945 1.58896C193.804 1.36401 194.606 1.12883 195.353 0.883435C196.099 0.638037 196.748 0.382413 197.301 0.116564ZM188.328 9.73313C188.318 9.65133 188.292 9.54397 188.252 9.41104C188.211 9.27812 188.165 9.14008 188.113 8.99693C188.073 8.84356 188.032 8.72086 187.991 8.62883C188.236 8.59816 188.533 8.52147 188.88 8.39877C189.228 8.26585 189.632 8.09202 190.092 7.8773C190.348 7.76483 190.726 7.58589 191.227 7.34049C191.738 7.08487 192.316 6.77812 192.96 6.42025C193.604 6.05215 194.274 5.65337 194.969 5.22393C195.665 4.78425 196.329 4.32413 196.963 3.84356L197.837 4.61043C196.426 5.60225 194.985 6.48159 193.512 7.24847C192.04 8.00511 190.588 8.65951 189.156 9.21166V9.25767C189.156 9.25767 189.116 9.27301 189.034 9.30368C188.952 9.32413 188.855 9.35992 188.742 9.41104C188.63 9.45194 188.533 9.50307 188.451 9.56442C188.369 9.61554 188.328 9.67178 188.328 9.73313ZM188.328 9.73313L188.298 8.8589L189.095 8.42945L199.049 7.7546C199.029 7.90798 199.018 8.08691 199.018 8.29141C199.018 8.48568 199.024 8.63906 199.034 8.75153C197.5 8.86401 196.176 8.96115 195.061 9.04294C193.957 9.12474 193.027 9.19632 192.27 9.25767C191.524 9.31902 190.91 9.37014 190.429 9.41104C189.959 9.45194 189.586 9.49284 189.31 9.53374C189.044 9.56442 188.839 9.59509 188.696 9.62577C188.553 9.65644 188.43 9.69223 188.328 9.73313ZM189.156 6.51227C189.146 6.43047 189.121 6.32311 189.08 6.19018C189.049 6.04703 189.008 5.909 188.957 5.77607C188.916 5.63292 188.875 5.51022 188.834 5.40797C189.008 5.38753 189.192 5.3364 189.386 5.2546C189.591 5.1728 189.821 5.06544 190.077 4.93251C190.251 4.84049 190.537 4.67689 190.936 4.44172C191.345 4.19632 191.794 3.90491 192.285 3.56748C192.776 3.21984 193.236 2.85685 193.666 2.47853L194.678 3.1227C193.921 3.70552 193.139 4.24233 192.331 4.73313C191.524 5.2137 190.726 5.6227 189.939 5.96012V5.9908C189.939 5.9908 189.898 6.00613 189.816 6.03681C189.744 6.06748 189.657 6.1135 189.555 6.17485C189.453 6.22597 189.361 6.28221 189.279 6.34356C189.197 6.40491 189.156 6.46114 189.156 6.51227ZM189.156 6.51227V5.68405L189.816 5.33129L195.567 5.03988C195.537 5.18303 195.506 5.34663 195.475 5.53067C195.455 5.71472 195.445 5.86299 195.445 5.97546C194.392 6.03681 193.507 6.09305 192.791 6.14417C192.086 6.18507 191.508 6.22597 191.058 6.26687C190.619 6.29755 190.276 6.32822 190.031 6.3589C189.785 6.37935 189.596 6.40491 189.463 6.43558C189.34 6.45603 189.238 6.48159 189.156 6.51227ZM196.534 6.31288L197.485 5.83742C197.863 6.1953 198.252 6.57873 198.65 6.98773C199.059 7.39673 199.433 7.80061 199.77 8.19939C200.118 8.58793 200.399 8.93047 200.613 9.22699L199.632 9.82515C199.427 9.50818 199.151 9.14519 198.804 8.7362C198.466 8.3272 198.093 7.91309 197.684 7.49386C197.285 7.06442 196.902 6.67076 196.534 6.31288ZM5.51918 34.816H18.4762V33.3926H3.16335V30.9877H21.3719V37.2209H5.51918V34.816ZM4.07132 34.816H6.89341C6.82797 35.5194 6.74617 36.2638 6.64801 37.0491C6.54985 37.818 6.45169 38.5542 6.35353 39.2577C6.25537 39.9611 6.15721 40.5828 6.05905 41.1227H3.16335C3.29423 40.5501 3.40875 39.9121 3.50691 39.2086C3.62143 38.4888 3.72777 37.7526 3.82592 37C3.92408 36.2311 4.00588 35.5031 4.07132 34.816ZM5.05292 38.6687H20.3903V41.1227H4.31672L5.05292 38.6687ZM19.6296 38.6687H22.5744C22.5744 38.6687 22.5662 38.7996 22.5499 39.0613C22.5499 39.3231 22.5335 39.544 22.5008 39.7239C22.3863 41.3599 22.239 42.6115 22.0591 43.4785C21.8955 44.3456 21.6501 44.9427 21.3229 45.2699C21.0611 45.5644 20.783 45.7689 20.4885 45.8834C20.194 46.0143 19.8505 46.0961 19.4578 46.1288C19.1143 46.1616 18.6644 46.1861 18.1081 46.2025C17.5519 46.2188 16.9629 46.2106 16.3413 46.1779C16.3249 45.7526 16.2349 45.2945 16.0713 44.8037C15.9241 44.2965 15.7359 43.863 15.5069 43.5031C16.0141 43.5521 16.4967 43.5849 16.9548 43.6012C17.4292 43.6176 17.7809 43.6176 18.01 43.6012C18.2063 43.6012 18.3699 43.593 18.5008 43.5767C18.6317 43.544 18.7544 43.4785 18.8689 43.3804C19.0325 43.2168 19.1715 42.8078 19.286 42.1534C19.4169 41.4826 19.5314 40.4438 19.6296 39.0368V38.6687ZM10.648 31.5276H13.5437V47.2086H10.648V31.5276ZM10.0591 39.5276L12.3413 40.5092C11.6378 41.4581 10.7871 42.3579 9.78911 43.2086C8.80752 44.0429 7.74413 44.7873 6.59893 45.4417C5.4701 46.1125 4.3249 46.6605 3.16335 47.0859C3.01611 46.8569 2.83615 46.5951 2.62347 46.3006C2.42715 46.0225 2.20629 45.7444 1.96089 45.4663C1.7155 45.1881 1.49464 44.9591 1.29832 44.7791C2.42715 44.4519 3.54781 44.0184 4.66028 43.4785C5.78912 42.9387 6.81979 42.3333 7.75231 41.6626C8.68482 40.9755 9.45374 40.2638 10.0591 39.5276ZM4.3658 25.638H12.0713V27.8957H4.3658V25.638ZM14.5253 25.6626H23.7032V27.8712H14.5253V25.6626ZM4.4885 23.9202L7.08973 24.681C6.77889 25.4826 6.39443 26.2761 5.93635 27.0613C5.47828 27.8466 4.98748 28.591 4.46396 29.2945C3.9568 29.9816 3.43329 30.5787 2.89341 31.0859C2.76253 30.9059 2.57439 30.6933 2.32899 30.4479C2.08359 30.2025 1.83819 29.9571 1.5928 29.7117C1.3474 29.4499 1.12654 29.2454 0.930219 29.0982C1.65006 28.4438 2.32899 27.6667 2.96703 26.7669C3.62143 25.8507 4.12858 24.9018 4.4885 23.9202ZM14.648 23.9202L17.3474 24.6074C16.9548 25.6871 16.4394 26.7342 15.8014 27.7485C15.1633 28.7628 14.4926 29.6053 13.7891 30.2761C13.6255 30.1125 13.4047 29.9243 13.1265 29.7117C12.8648 29.4826 12.5948 29.2618 12.3167 29.0491C12.0386 28.8364 11.7932 28.6728 11.5805 28.5583C12.2676 27.9857 12.873 27.2904 13.3965 26.4724C13.9364 25.6544 14.3535 24.8037 14.648 23.9202ZM5.93635 28.7055L7.70323 27.184C8.12858 27.5112 8.58666 27.9039 9.07746 28.362C9.56826 28.8037 9.95271 29.1881 10.2308 29.5153L8.3658 31.2331C8.1204 30.8732 7.76049 30.456 7.28605 29.9816C6.81161 29.5072 6.36171 29.0818 5.93635 28.7055ZM16.6603 28.7791L18.5253 27.2086C18.967 27.5194 19.4415 27.8875 19.9486 28.3129C20.4558 28.7219 20.8566 29.09 21.1511 29.4172L19.1879 31.135C18.9098 30.7914 18.5253 30.3988 18.0345 29.9571C17.5601 29.5153 17.102 29.1227 16.6603 28.7791ZM25.691 45V42.9141C27.3433 41.4417 28.7503 40.0757 29.9118 38.816C31.0897 37.5562 31.9895 36.3865 32.6112 35.3067C33.2329 34.2106 33.5437 33.1963 33.5437 32.2638C33.5437 31.6748 33.4374 31.1595 33.2247 30.7178C33.012 30.2761 32.7012 29.9407 32.2922 29.7117C31.8995 29.4663 31.4087 29.3436 30.8198 29.3436C30.1654 29.3436 29.5601 29.5317 29.0038 29.908C28.464 30.2679 27.965 30.7014 27.5069 31.2086L25.4946 29.2699C26.3454 28.3538 27.2124 27.6667 28.0959 27.2086C28.9957 26.7342 30.0591 26.4969 31.286 26.4969C32.4312 26.4969 33.4292 26.7342 34.2799 27.2086C35.147 27.6667 35.8177 28.3129 36.2922 29.1472C36.7666 29.9816 37.0038 30.9632 37.0038 32.092C37.0038 33.1881 36.7257 34.3088 36.1695 35.454C35.6296 36.5828 34.9016 37.7117 33.9854 38.8405C33.0693 39.9693 32.055 41.0818 30.9425 42.1779C31.4169 42.1125 31.9241 42.0634 32.464 42.0307C33.0202 41.9816 33.511 41.9571 33.9364 41.9571H37.8627V45H25.691ZM46.3497 45.3436C45.1881 45.3436 44.1493 45.1391 43.2331 44.7301C42.317 44.3211 41.589 43.7485 41.0491 43.0123C40.5256 42.2761 40.2638 41.4335 40.2638 40.4847C40.2638 39.6994 40.4029 39.0123 40.681 38.4233C40.9755 37.818 41.3599 37.2945 41.8344 36.8528C42.3088 36.411 42.8241 36.0429 43.3804 35.7485V35.6258C42.6933 35.135 42.1207 34.5378 41.6626 33.8344C41.2045 33.1145 40.9755 32.2802 40.9755 31.3313C40.9755 30.3497 41.2127 29.499 41.6871 28.7791C42.1616 28.0593 42.8078 27.5031 43.6258 27.1104C44.4601 26.7178 45.4008 26.5215 46.4479 26.5215C47.5276 26.5215 48.4601 26.726 49.2454 27.135C50.0307 27.5276 50.636 28.0838 51.0614 28.8037C51.5031 29.5235 51.7239 30.3742 51.7239 31.3558C51.7239 31.9448 51.6094 32.501 51.3804 33.0245C51.1677 33.5481 50.8814 34.0225 50.5215 34.4479C50.1779 34.8569 49.8016 35.2086 49.3926 35.5031V35.6258C49.9652 35.9202 50.4806 36.2883 50.9387 36.7301C51.3967 37.1718 51.7648 37.7035 52.043 38.3252C52.3211 38.9305 52.4601 39.6503 52.4601 40.4847C52.4601 41.4008 52.1984 42.227 51.6749 42.9632C51.1677 43.6994 50.456 44.2802 49.5399 44.7055C48.6237 45.1309 47.5603 45.3436 46.3497 45.3436ZM47.4785 34.6196C47.9203 34.1452 48.2475 33.6544 48.4601 33.1472C48.6728 32.6401 48.7791 32.1166 48.7791 31.5767C48.7791 31.0859 48.681 30.6524 48.4847 30.2761C48.3047 29.8834 48.0348 29.5808 47.6749 29.3681C47.3149 29.1554 46.8814 29.0491 46.3742 29.0491C45.7526 29.0491 45.229 29.2454 44.8037 29.638C44.3783 30.0307 44.1657 30.5951 44.1657 31.3313C44.1657 31.8875 44.3047 32.3701 44.5828 32.7791C44.8773 33.1718 45.2781 33.5153 45.7853 33.8098C46.2924 34.0879 46.8569 34.3579 47.4785 34.6196ZM46.4233 42.7914C46.9468 42.7914 47.4049 42.7014 47.7976 42.5215C48.2066 42.3252 48.5256 42.047 48.7546 41.6871C48.9836 41.3108 49.0982 40.8691 49.0982 40.362C49.0982 39.8875 48.9918 39.4785 48.7791 39.135C48.5828 38.7751 48.3047 38.4642 47.9448 38.2025C47.5849 37.9243 47.1595 37.6708 46.6687 37.4417C46.1779 37.2127 45.638 36.9673 45.0491 36.7055C44.5583 37.1145 44.1575 37.6135 43.8466 38.2025C43.5358 38.7751 43.3804 39.4049 43.3804 40.092C43.3804 40.6319 43.5113 41.1063 43.773 41.5153C44.0511 41.908 44.4192 42.2188 44.8773 42.4479C45.3354 42.6769 45.8507 42.7914 46.4233 42.7914ZM56.7753 25.2699H59.7446V32.5583C59.7446 33.6217 59.7037 34.7996 59.6219 36.092C59.5565 37.3681 59.4174 38.6769 59.2048 40.0184C59.0084 41.3436 58.714 42.636 58.3213 43.8957C57.9287 45.1391 57.4052 46.2597 56.7508 47.2577C56.5545 47.1104 56.3009 46.9387 55.99 46.7423C55.6792 46.546 55.352 46.3497 55.0084 46.1534C54.6812 45.9734 54.3868 45.8425 54.125 45.7607C54.7467 44.8119 55.2293 43.7812 55.5729 42.6687C55.9328 41.5399 56.1945 40.3865 56.3581 39.2086C56.5217 38.0307 56.6281 36.8773 56.6772 35.7485C56.7426 34.6033 56.7753 33.5399 56.7753 32.5583V25.2699ZM58.5913 25.2699H75.6465V32.5583H58.5913V29.8834H72.6772V27.9448H58.5913V25.2699ZM64.579 35.3067H72.1618V37.6871H64.579V35.3067ZM64.0146 40.092H72.6281V42.4724H64.0146V40.092ZM67.0084 33.1472H69.6833V41.4663H67.0084V33.1472ZM73.2907 34.4969H76.0882V47.2086H73.2907V34.4969ZM60.5054 34.5215H63.3275V43.7485H74.6403V46.3252H60.5054V34.5215ZM88.7999 33.8098H91.7692V47.1104H88.7999V33.8098ZM83.1557 33.8589H85.8796V40.8037H83.1557V33.8589ZM94.8121 33.8589H97.5606V40.8037H94.8121V33.8589ZM84.0146 30.227V31.4294H96.6526V30.227H84.0146ZM84.0146 27.184V28.3865H96.6526V27.184H84.0146ZM81.168 25.2209H99.6465V33.3926H81.168V25.2209ZM79.2048 38.7669H101.561V41.1472H79.2048V38.7669ZM80.26 35.2086H99.7937V37.5399H80.26V35.2086ZM81.7078 42.3497H99.1557V44.7301H81.7078V42.3497ZM88.7999 26.1534H91.7446V32.8773H88.7999V26.1534ZM104.039 39.1595H125.929V41.589H104.039V39.1595ZM104.113 28.1656H125.855V30.4724H104.113V28.1656ZM105.119 32.6319H124.898V34.865H105.119V32.6319ZM106.321 35.9693H123.769V38.0798H106.321V35.9693ZM113.438 33.7117H116.358V47.2086H113.438V33.7117ZM111.352 24.1166H114.1V29.319H111.352V24.1166ZM115.892 24.1166H118.689V29.1472H115.892V24.1166ZM121.561 24.3374L124.628 25.0736C124.235 25.7444 123.843 26.3988 123.45 27.0368C123.058 27.6585 122.698 28.1902 122.37 28.6319L119.99 27.8957C120.186 27.5685 120.383 27.2004 120.579 26.7914C120.775 26.3661 120.955 25.9407 121.119 25.5153C121.299 25.0736 121.446 24.681 121.561 24.3374ZM118.542 30.2761L121.659 31.0613C121.299 31.4867 120.947 31.8712 120.604 32.2147C120.276 32.5419 119.965 32.8364 119.671 33.0982L117.168 32.362C117.413 32.0511 117.659 31.6994 117.904 31.3067C118.166 30.9141 118.379 30.5706 118.542 30.2761ZM105.904 25.1227L108.432 24.2638C108.792 24.771 109.152 25.3599 109.512 26.0307C109.871 26.6851 110.133 27.2495 110.297 27.7239L107.622 28.7055C107.491 28.2147 107.254 27.6339 106.91 26.9632C106.583 26.2924 106.248 25.6789 105.904 25.1227ZM108.751 30.8405L111.524 30.227C111.736 30.5378 111.949 30.8896 112.162 31.2822C112.391 31.6748 112.563 32.0266 112.677 32.3374L109.781 33.0245C109.7 32.7301 109.552 32.3783 109.34 31.9693C109.143 31.544 108.947 31.1677 108.751 30.8405ZM110.763 42.3988L112.849 43.3558C112.309 43.8139 111.63 44.2556 110.812 44.681C110.01 45.1063 109.168 45.4826 108.285 45.8098C107.401 46.1534 106.534 46.4233 105.683 46.6196C105.503 46.3088 105.242 45.9407 104.898 45.5153C104.554 45.09 104.235 44.7546 103.941 44.5092C104.759 44.3783 105.601 44.2065 106.469 43.9939C107.336 43.7812 108.145 43.5358 108.898 43.2577C109.651 42.9795 110.272 42.6933 110.763 42.3988ZM117.413 43.6258L119.377 42.227C120.047 42.4888 120.783 42.7832 121.585 43.1104C122.403 43.4376 123.188 43.773 123.941 44.1166C124.71 44.4438 125.356 44.7464 125.88 45.0245L123.794 46.6196C123.319 46.3579 122.714 46.047 121.978 45.6871C121.242 45.3272 120.464 44.9673 119.646 44.6074C118.845 44.2474 118.1 43.9202 117.413 43.6258ZM133.855 33.4908H149.61V35.9448H133.855V33.4908ZM133.34 37.6626H150.665V40.1411H133.34V37.6626ZM136.947 31.5276H139.646V38.816H136.947V31.5276ZM143.327 31.5276H146.076V38.816H143.327V31.5276ZM130.37 25.1963H133.364V32.4847C133.364 33.5644 133.323 34.7505 133.242 36.0429C133.176 37.319 133.037 38.6278 132.824 39.9693C132.628 41.3108 132.334 42.6115 131.941 43.8712C131.548 45.1309 131.025 46.2597 130.37 47.2577C130.19 47.1104 129.937 46.9387 129.61 46.7423C129.282 46.546 128.947 46.3497 128.604 46.1534C128.276 45.9734 127.982 45.8425 127.72 45.7607C128.342 44.8119 128.833 43.773 129.192 42.6442C129.552 41.5153 129.814 40.362 129.978 39.184C130.141 37.9898 130.248 36.82 130.297 35.6748C130.346 34.5297 130.37 33.4663 130.37 32.4847V25.1963ZM132.211 25.1963H149.364V31.7975H132.211V29.2945H146.395V27.6994H132.211V25.1963ZM142.64 38.6196C143.295 40.2065 144.317 41.5235 145.708 42.5706C147.098 43.6176 148.857 44.3374 150.984 44.7301C150.689 45.0245 150.37 45.409 150.027 45.8834C149.7 46.3579 149.446 46.7914 149.266 47.184C146.943 46.5951 145.053 45.6299 143.597 44.2883C142.141 42.9468 141.013 41.229 140.211 39.135L142.64 38.6196ZM147.622 39.7975L149.831 41.319C149.176 41.7935 148.464 42.2515 147.696 42.6933C146.927 43.1186 146.223 43.4785 145.585 43.773L143.72 42.3742C144.129 42.1616 144.571 41.908 145.045 41.6135C145.52 41.3027 145.986 40.9918 146.444 40.681C146.902 40.3701 147.295 40.0757 147.622 39.7975ZM135.205 47.3313L135.082 45.1963L136.113 44.362L142.248 43.1595C142.182 43.5358 142.125 43.9693 142.076 44.4601C142.027 44.9346 142.002 45.319 142.002 45.6135C140.661 45.908 139.565 46.1452 138.714 46.3252C137.88 46.5215 137.233 46.6769 136.775 46.7914C136.317 46.9059 135.974 47.0041 135.745 47.0859C135.516 47.1677 135.336 47.2495 135.205 47.3313ZM135.205 47.3558C135.156 47.1268 135.066 46.8569 134.935 46.546C134.82 46.2515 134.689 45.9571 134.542 45.6626C134.395 45.3845 134.256 45.1554 134.125 44.9755C134.387 44.8282 134.665 44.5665 134.959 44.1902C135.254 43.8139 135.401 43.3149 135.401 42.6933V38.7669L138.1 38.865V44.4356C138.1 44.4356 138.002 44.5092 137.806 44.6564C137.626 44.7873 137.389 44.9591 137.094 45.1718C136.8 45.3845 136.505 45.6217 136.211 45.8834C135.916 46.1452 135.671 46.3988 135.475 46.6442C135.295 46.9059 135.205 47.1431 135.205 47.3558ZM159.008 38.546V39.3313H168.898V38.546H159.008ZM159.008 40.7546V41.5644H168.898V40.7546H159.008ZM159.008 36.3129V37.1227H168.898V36.3129H159.008ZM156.211 34.816H171.818V43.0859H156.211V34.816ZM165.021 42.227H167.916V44.0675C167.916 44.362 167.982 44.5501 168.113 44.6319C168.26 44.6973 168.579 44.7301 169.07 44.7301C169.184 44.7301 169.372 44.7301 169.634 44.7301C169.912 44.7301 170.207 44.7301 170.518 44.7301C170.828 44.7301 171.123 44.7301 171.401 44.7301C171.679 44.7301 171.9 44.7301 172.064 44.7301C172.325 44.7301 172.522 44.6892 172.653 44.6074C172.783 44.5092 172.882 44.3292 172.947 44.0675C173.013 43.8057 173.062 43.4049 173.094 42.865C173.372 43.045 173.749 43.2168 174.223 43.3804C174.714 43.544 175.147 43.6667 175.524 43.7485C175.426 44.5828 175.262 45.229 175.033 45.6871C174.82 46.1452 174.493 46.4642 174.051 46.6442C173.626 46.8405 173.062 46.9387 172.358 46.9387C172.244 46.9387 172.055 46.9387 171.794 46.9387C171.548 46.9387 171.27 46.9387 170.959 46.9387C170.665 46.9387 170.362 46.9387 170.051 46.9387C169.757 46.9387 169.487 46.9387 169.242 46.9387C169.013 46.9387 168.833 46.9387 168.702 46.9387C167.736 46.9387 166.984 46.8487 166.444 46.6687C165.92 46.5051 165.552 46.2106 165.34 45.7853C165.127 45.3763 165.021 44.8037 165.021 44.0675V42.227ZM159.622 42.3988H162.518C162.354 43.1022 162.109 43.7239 161.781 44.2638C161.454 44.8037 160.963 45.2618 160.309 45.638C159.655 46.0307 158.796 46.3497 157.732 46.5951C156.669 46.8569 155.327 47.0613 153.708 47.2086C153.61 46.8814 153.43 46.4888 153.168 46.0307C152.923 45.589 152.677 45.229 152.432 44.9509C153.822 44.8855 154.959 44.7955 155.843 44.681C156.726 44.5501 157.422 44.3865 157.929 44.1902C158.452 43.9939 158.837 43.7485 159.082 43.454C159.327 43.1595 159.507 42.8078 159.622 42.3988ZM166.346 27.9202H173.929V29.5644H166.346V27.9202ZM166.297 25.4172H175.058V27.2331H166.297V25.4172ZM157.904 25.6135H160.211V27.9202H157.904V25.6135ZM157.904 30.5215H160.211V32.8528H157.904V30.5215ZM155.229 27.4294H163.278V31.4294H155.229V29.908H160.8V28.9509H155.229V27.4294ZM171.622 31.5521V32.7791H172.653V31.5521H171.622ZM169.192 31.5521V32.7791H170.199V31.5521H169.192ZM166.812 31.5521V32.7791H167.769V31.5521H166.812ZM164.873 30.2025H174.665V34.1534H164.873V30.2025ZM166.076 24.1902L168.579 24.5828C168.219 25.5317 167.761 26.4397 167.205 27.3067C166.649 28.1738 165.929 28.9755 165.045 29.7117C164.816 29.4335 164.514 29.1227 164.137 28.7791C163.761 28.4356 163.417 28.1902 163.107 28.0429C163.876 27.5031 164.497 26.8896 164.972 26.2025C165.462 25.5153 165.831 24.8446 166.076 24.1902ZM163.769 24.8773V26.546H156.162V32.4356H163.965V34.1043H153.683V24.8773H163.769ZM178.444 29.589H198.788V31.0123H178.444V29.589ZM177.34 39.4294H199.794V40.9018H177.34V39.4294ZM187.622 41.8589H199.401V43.454H187.622V41.8589ZM180.334 44.2147H185.683V45.7607H180.334V44.2147ZM177.561 33.589H197.389V35.0368H177.561V33.589ZM180.211 31.6748H197.021V32.9264H180.211V31.6748ZM188.309 44.411L190.199 43.2577C190.591 43.5358 190.976 43.8712 191.352 44.2638C191.745 44.6401 192.039 44.9918 192.235 45.319L190.248 46.5706C190.051 46.2597 189.773 45.8998 189.413 45.4908C189.053 45.0818 188.685 44.7219 188.309 44.411ZM187.156 28.5583H190.002V32.3865H187.156V28.5583ZM181.242 35.6748H195.597V36.8528H181.242V35.6748ZM179.745 37.5153H196.923V38.7423H179.745V37.5153ZM187.008 36.0429H189.757V38.4479H187.008V36.0429ZM196.873 33.589H197.266L197.708 33.5153L199.794 33.9325C199.663 34.4888 199.507 35.0695 199.327 35.6748C199.164 36.2802 199.008 36.7955 198.861 37.2209L196.383 36.681C196.464 36.3047 196.546 35.863 196.628 35.3558C196.726 34.8323 196.808 34.3497 196.873 33.908V33.589ZM178.91 41.5153H187.008V46.2515H184.53V43.0613H181.266V46.4233H178.91V41.5153ZM194.15 40.6319H197.021V44.9018C197.021 45.4744 196.939 45.8998 196.775 46.1779C196.628 46.456 196.342 46.6769 195.916 46.8405C195.507 47.0041 195.041 47.1022 194.518 47.135C193.994 47.1677 193.397 47.184 192.726 47.184C192.612 46.8569 192.448 46.4969 192.235 46.1043C192.039 45.728 191.851 45.409 191.671 45.1472C192.096 45.1636 192.514 45.1718 192.923 45.1718C193.348 45.1718 193.618 45.1636 193.732 45.1472C193.896 45.1472 194.002 45.1227 194.051 45.0736C194.117 45.0245 194.15 44.9346 194.15 44.8037V40.6319ZM180.505 25.2945H188.26V27.0859H180.505V25.2945ZM190.567 25.2945H199.916V27.0859H190.567V25.2945ZM180.432 23.9448L183.18 24.7301C182.706 25.6135 182.109 26.4724 181.389 27.3067C180.685 28.1411 179.99 28.8282 179.303 29.3681C179.107 29.2209 178.861 29.0491 178.567 28.8528C178.289 28.6401 178.002 28.4356 177.708 28.2393C177.413 28.0429 177.152 27.8875 176.923 27.773C177.642 27.2986 178.313 26.726 178.935 26.0552C179.573 25.3681 180.072 24.6646 180.432 23.9448ZM190.763 23.8957L193.561 24.6319C193.119 25.4826 192.546 26.2924 191.843 27.0613C191.139 27.8303 190.444 28.4601 189.757 28.9509C189.561 28.8037 189.307 28.6401 188.996 28.4601C188.685 28.2802 188.366 28.1084 188.039 27.9448C187.728 27.7648 187.45 27.6258 187.205 27.5276C187.957 27.0859 188.644 26.546 189.266 25.908C189.904 25.2699 190.403 24.5992 190.763 23.8957ZM182.272 27.6748L184.653 27.0123C184.882 27.274 185.103 27.5849 185.315 27.9448C185.544 28.2883 185.708 28.591 185.806 28.8528L183.327 29.589C183.229 29.3272 183.082 29.0164 182.886 28.6564C182.689 28.2965 182.485 27.9693 182.272 27.6748ZM193.291 27.6258L195.696 26.9632C195.941 27.2249 196.186 27.5358 196.432 27.8957C196.694 28.2393 196.89 28.5419 197.021 28.8037L194.518 29.5153C194.419 29.2536 194.248 28.9427 194.002 28.5828C193.773 28.2229 193.536 27.9039 193.291 27.6258ZM205.978 24.1411L208.702 24.9509C208.244 26.3742 207.696 27.8139 207.058 29.2699C206.436 30.726 205.749 32.1084 204.996 33.4172C204.26 34.7096 203.483 35.8466 202.665 36.8282C202.583 36.5992 202.46 36.2802 202.297 35.8712C202.133 35.4622 201.953 35.0532 201.757 34.6442C201.561 34.2352 201.389 33.8998 201.242 33.638C201.896 32.8691 202.518 31.9775 203.107 30.9632C203.696 29.9489 204.235 28.8609 204.726 27.6994C205.217 26.5215 205.634 25.3354 205.978 24.1411ZM204.015 30.9877L206.812 28.1902L206.886 28.2393V47.1595H204.015V30.9877ZM207.892 30.3742H224.334V33.0736H207.892V30.3742ZM211.941 38.0061H222.1V40.1166H211.941V38.0061ZM211.892 41.4908H222.1V43.6012H211.892V41.4908ZM208.628 26.1288H223.745V28.8282H208.628V26.1288ZM215.303 35.2331H217.953V46.6933H215.303V35.2331ZM212.137 24.2393H214.959V31.6258H212.137V24.2393ZM217.929 24.2393H220.751V31.6258H217.929V24.2393ZM220.702 34.3742H223.475V44.5828C223.475 45.1554 223.409 45.6053 223.278 45.9325C223.148 46.2597 222.894 46.5215 222.518 46.7178C222.158 46.8978 221.724 47.0041 221.217 47.0368C220.726 47.0859 220.17 47.1104 219.548 47.1104C219.483 46.7669 219.368 46.3824 219.205 45.9571C219.058 45.5317 218.902 45.1718 218.739 44.8773C219.049 44.8937 219.368 44.9018 219.696 44.9018C220.039 44.9018 220.268 44.8937 220.383 44.8773C220.595 44.8773 220.702 44.771 220.702 44.5583V34.3742ZM211.573 31.6748L214.174 32.5092C213.52 33.7689 212.669 34.9714 211.622 36.1166C210.591 37.2454 209.52 38.1779 208.407 38.9141C208.309 38.7342 208.154 38.4888 207.941 38.1779C207.745 37.8671 207.532 37.5562 207.303 37.2454C207.09 36.9346 206.902 36.681 206.739 36.4847C207.704 35.9448 208.62 35.2495 209.487 34.3988C210.37 33.5481 211.066 32.6401 211.573 31.6748ZM210.886 34.3742H222.15V36.7301H210.886V34.3742ZM209.806 34.3742H212.628V39.2577C212.628 40.1084 212.579 41.0327 212.481 42.0307C212.383 43.0123 212.178 43.9693 211.867 44.9018C211.557 45.8344 211.098 46.6605 210.493 47.3804C210.346 47.2168 210.117 47.0286 209.806 46.816C209.512 46.6033 209.201 46.3906 208.873 46.1779C208.563 45.9652 208.301 45.8016 208.088 45.6871C208.612 45.0654 208.988 44.3865 209.217 43.6503C209.462 42.8978 209.618 42.137 209.683 41.3681C209.765 40.5992 209.806 39.8712 209.806 39.184V34.3742ZM231.548 33.0736V36.1411H243.597V33.0736H231.548ZM229.094 31.2331H246.199V37.9571H229.094V31.2331ZM233.291 28.4847H241.978V30.3988H233.291V28.4847ZM236.334 31.8712H238.714V37.0491H236.334V31.8712ZM232.407 33.589L234.419 33.0491C234.649 33.4581 234.853 33.908 235.033 34.3988C235.213 34.8896 235.336 35.3149 235.401 35.6748L233.266 36.3129C233.217 35.9366 233.111 35.4949 232.947 34.9877C232.783 34.4806 232.604 34.0143 232.407 33.589ZM240.53 32.9509L242.959 33.5399C242.681 34.0634 242.419 34.5706 242.174 35.0613C241.945 35.5521 241.724 35.9693 241.511 36.3129L239.524 35.7485C239.704 35.3558 239.892 34.8896 240.088 34.3497C240.285 33.8098 240.432 33.3436 240.53 32.9509ZM230.444 38.7669H244.972V47.1104H241.929V40.681H233.34V47.184H230.444V38.7669ZM232.088 41.6626H243.18V43.5767H232.088V41.6626ZM232.113 44.6074H243.18V46.5215H232.113V44.6074ZM237.119 23.9448L239.72 24.8773C238.837 26.0225 237.741 27.0613 236.432 27.9939C235.139 28.9264 233.732 29.7444 232.211 30.4479C230.689 31.1513 229.135 31.7403 227.548 32.2147C227.45 32.0184 227.311 31.7812 227.131 31.5031C226.951 31.2086 226.755 30.9223 226.542 30.6442C226.329 30.3497 226.141 30.1125 225.978 29.9325C227.499 29.5726 228.972 29.1063 230.395 28.5337C231.818 27.9611 233.111 27.2904 234.272 26.5215C235.45 25.7362 236.399 24.8773 237.119 23.9448ZM239.058 25.0736C239.614 25.5971 240.276 26.0961 241.045 26.5706C241.831 27.045 242.689 27.4867 243.622 27.8957C244.554 28.3047 245.528 28.6646 246.542 28.9755C247.556 29.2863 248.571 29.5481 249.585 29.7607C249.291 30.0225 248.955 30.3824 248.579 30.8405C248.219 31.2822 247.941 31.6748 247.745 32.0184C246.714 31.7566 245.683 31.4213 244.653 31.0123C243.638 30.6033 242.657 30.137 241.708 29.6135C240.759 29.09 239.876 28.5174 239.058 27.8957C238.24 27.274 237.511 26.6196 236.873 25.9325L239.058 25.0736Z" fill="white"/>
</svg>
